<svg width="25" height="25" viewBox="0 0 25 25" fill="none" xmlns="http://www.w3.org/2000/svg">
<path d="M21.4776 19.8047H21.438L21.3985 19.8008C21.2643 19.7868 21.1328 19.7539 21.0078 19.7031L18.2373 18.7212L18.2178 18.7129C18.1579 18.687 18.0931 18.6742 18.0279 18.6753C17.966 18.6752 17.9046 18.6862 17.8467 18.708C17.7808 18.7329 17.1743 18.9609 16.5371 19.1358C16.1919 19.2305 14.9903 19.5396 14.0259 19.5396C11.5611 19.5396 9.25637 18.5923 7.53713 16.8721C6.69774 16.0377 6.03209 15.0452 5.57867 13.952C5.12525 12.8587 4.89306 11.6865 4.89553 10.5029C4.89613 9.88546 4.96275 9.26982 5.09426 8.66651C5.52297 6.68458 6.65969 4.88038 8.29445 3.58839C9.97158 2.2735 12.0418 1.56005 14.1729 1.56251C16.7222 1.56251 19.0977 2.53907 20.8623 4.30567C22.5303 5.97901 23.4444 8.17921 23.437 10.5005C23.437 12.2263 22.9213 13.9127 21.9561 15.3433L21.9292 15.3809C21.9112 15.4048 21.8941 15.4297 21.878 15.4566C21.855 15.4966 21.8389 15.5293 21.8291 15.5542L22.5972 18.2847C22.625 18.3786 22.6427 18.4751 22.6499 18.5728V18.6328C22.6499 18.7868 22.6196 18.9392 22.5607 19.0814C22.5017 19.2236 22.4154 19.3528 22.3065 19.4616C22.1976 19.5705 22.0684 19.6568 21.9262 19.7156C21.7839 19.7745 21.6315 19.8048 21.4776 19.8047ZM18.7969 17.2632L20.8931 18.0059L20.2901 15.8633C20.1924 15.5088 20.272 15.106 20.5293 14.665L20.5342 14.6572C20.5759 14.5872 20.6212 14.5194 20.6699 14.4541C21.4542 13.2838 21.873 11.9068 21.8731 10.4981C21.8794 8.59376 21.1265 6.78712 19.7539 5.40919C18.2862 3.93604 16.3067 3.12501 14.1729 3.12501C10.5332 3.12501 7.35744 5.59522 6.62111 8.99805C6.51327 9.4926 6.4586 9.99726 6.45803 10.5034C6.45803 14.625 9.85305 17.9785 14.0264 17.9785C14.6382 17.9785 15.5401 17.791 16.126 17.6304C16.7031 17.4722 17.272 17.2568 17.2979 17.2481C17.7829 17.0646 18.3191 17.07 18.8003 17.2632H18.7969Z" fill="#F5F5F5"/>
<path d="M3.51033 23.4375C3.24319 23.4372 2.98402 23.3465 2.77498 23.1801L2.75985 23.1679C2.59934 23.0333 2.47785 22.8581 2.40803 22.6606C2.33821 22.4631 2.32262 22.2505 2.36287 22.0449C2.50252 21.3193 2.79647 19.7875 2.90682 19.2207V19.2177C2.09297 18.0053 1.63011 16.5915 1.56936 15.1325C1.50861 13.6735 1.85234 12.2261 2.56258 10.9501C2.66333 10.7688 2.83198 10.635 3.03142 10.578C3.23086 10.5211 3.44476 10.5457 3.62606 10.6464C3.80736 10.7472 3.94121 10.9158 3.99816 11.1153C4.05512 11.3147 4.03052 11.5286 3.92977 11.7099C3.35605 12.7338 3.07821 13.897 3.12727 15.0696C3.17633 16.2422 3.55036 17.3782 4.2076 18.3505L4.21053 18.3549C4.3907 18.6269 4.56307 18.9565 4.47957 19.3417C4.45955 19.4394 4.23543 20.5986 4.03524 21.6445L6.11971 20.8286C6.49476 20.6799 6.91329 20.6848 7.28475 20.8422C8.17586 21.1879 9.10067 21.3706 9.96053 21.3706H9.96785C11.1998 21.3689 12.4095 21.0422 13.4747 20.4233C13.5636 20.372 13.6617 20.3387 13.7635 20.3253C13.8653 20.312 13.9687 20.3188 14.0678 20.3454C14.167 20.372 14.2599 20.4178 14.3413 20.4803C14.4227 20.5428 14.491 20.6208 14.5423 20.7097C14.5936 20.7986 14.6269 20.8967 14.6403 20.9985C14.6536 21.1002 14.6468 21.2037 14.6202 21.3028C14.5936 21.4019 14.5478 21.4949 14.4853 21.5763C14.4228 21.6577 14.3448 21.726 14.2559 21.7773C12.9516 22.5331 11.471 22.9315 9.96346 22.9321H9.95418C8.89949 22.9321 7.77449 22.7109 6.70125 22.2929L6.67977 22.2841L3.95028 23.3505C3.81202 23.4083 3.6636 23.4379 3.51375 23.4375H3.51033ZM3.89754 22.3378C3.89754 22.3378 3.89754 22.3378 3.89754 22.3417C3.89754 22.3457 3.89705 22.3388 3.89754 22.3378ZM2.9493 19.0048C2.9493 19.0102 2.9493 19.0156 2.94588 19.0209C2.94735 19.0136 2.94832 19.0083 2.9493 19.0048Z" fill="#F5F5F5"/>
</svg>
