<svg width="550" height="577" viewBox="0 0 550 577" fill="none" xmlns="http://www.w3.org/2000/svg">
<rect width="550" height="577" rx="10" fill="#343552"/>
<mask id="path-2-inside-1_592_45581" fill="white">
<path d="M20 20H530V70H20V20Z"/>
</mask>
<path d="M530 69H20V71H530V69Z" fill="#F5F5F5" mask="url(#path-2-inside-1_592_45581)"/>
<path d="M21.25 52V50.4375L26.1523 45.4961C27.6953 43.875 28.4766 42.9766 28.4766 41.7461C28.4766 40.3594 27.3438 39.4609 25.8594 39.4609C24.2969 39.4609 23.2812 40.457 23.2812 41.9609H21.25C21.2305 39.3828 23.2031 37.6641 25.8984 37.6641C28.6328 37.6641 30.5078 39.3828 30.5273 41.6875C30.5078 43.2695 29.7656 44.5195 27.1094 47.1367L24.2383 50.0469V50.1641H30.7617V52H21.25ZM38.0664 52.1953C34.7852 52.1953 32.8711 49.5586 32.8711 44.9297C32.8711 40.3398 34.8242 37.6641 38.0664 37.6641C41.3086 37.6641 43.2617 40.3398 43.2617 44.9297C43.2617 49.5586 41.3281 52.1953 38.0664 52.1953ZM38.0664 50.3398C39.9805 50.3398 41.1133 48.4648 41.1133 44.9297C41.1133 41.4141 39.9609 39.4805 38.0664 39.4805C36.1719 39.4805 35.0195 41.4141 35.0195 44.9297C35.0195 48.4648 36.1523 50.3398 38.0664 50.3398ZM45.4883 52V50.4375L50.3906 45.4961C51.9336 43.875 52.7148 42.9766 52.7148 41.7461C52.7148 40.3594 51.582 39.4609 50.0977 39.4609C48.5352 39.4609 47.5195 40.457 47.5195 41.9609H45.4883C45.4688 39.3828 47.4414 37.6641 50.1367 37.6641C52.8711 37.6641 54.7461 39.3828 54.7656 41.6875C54.7461 43.2695 54.0039 44.5195 51.3477 47.1367L48.4766 50.0469V50.1641H55V52H45.4883ZM56.7578 49.2461V47.5078L63.0078 37.8594H65.6641V47.4297H67.5977V49.2461H65.6641V52H63.6328V49.2461H56.7578ZM59.0234 47.4297H63.6328V40.418H63.4766L59.0234 47.3125V47.4297ZM70.625 52.1367C69.8633 52.1367 69.2188 51.5117 69.2383 50.75C69.2188 49.9883 69.8633 49.3633 70.625 49.3633C71.3672 49.3633 72.0117 49.9883 72.0117 50.75C72.0117 51.5117 71.3672 52.1367 70.625 52.1367ZM78.9062 52.1953C75.625 52.1953 73.7109 49.5586 73.7109 44.9297C73.7109 40.3398 75.6641 37.6641 78.9062 37.6641C82.1484 37.6641 84.1016 40.3398 84.1016 44.9297C84.1016 49.5586 82.168 52.1953 78.9062 52.1953ZM78.9062 50.3398C80.8203 50.3398 81.9531 48.4648 81.9531 44.9297C81.9531 41.4141 80.8008 39.4805 78.9062 39.4805C77.0117 39.4805 75.8594 41.4141 75.8594 44.9297C75.8594 48.4648 76.9922 50.3398 78.9062 50.3398ZM91.2695 52.1953C88.2031 52.1953 86.0547 50.5352 86.0742 48.2305C86.0547 46.4141 87.3633 44.9297 89.0234 44.6758V44.5977C87.5781 44.2656 86.6016 42.9766 86.6016 41.4336C86.6016 39.2656 88.5742 37.6641 91.2695 37.6641C93.9453 37.6641 95.8984 39.2656 95.918 41.4336C95.8984 42.9766 94.9219 44.2656 93.4961 44.5977V44.6758C95.1367 44.9297 96.4453 46.4141 96.4648 48.2305C96.4453 50.5352 94.2969 52.1953 91.2695 52.1953ZM91.2695 50.418C93.1055 50.418 94.2773 49.4609 94.2773 48.0742C94.2773 46.6094 93.0078 45.5547 91.2695 45.5547C89.5117 45.5547 88.2227 46.6094 88.2617 48.0742C88.2227 49.4609 89.3945 50.418 91.2695 50.418ZM91.2695 43.8555C92.7539 43.8555 93.8086 42.957 93.8086 41.6289C93.8086 40.3203 92.7734 39.4219 91.2695 39.4219C89.707 39.4219 88.6914 40.3008 88.6914 41.6289C88.6914 42.957 89.7656 43.8555 91.2695 43.8555ZM99.6484 52.1367C98.8867 52.1367 98.2422 51.5117 98.2617 50.75C98.2422 49.9883 98.8867 49.3633 99.6484 49.3633C100.391 49.3633 101.035 49.9883 101.035 50.75C101.035 51.5117 100.391 52.1367 99.6484 52.1367ZM107.93 52.1953C104.648 52.1953 102.734 49.5586 102.734 44.9297C102.734 40.3398 104.688 37.6641 107.93 37.6641C111.172 37.6641 113.125 40.3398 113.125 44.9297C113.125 49.5586 111.191 52.1953 107.93 52.1953ZM107.93 50.3398C109.844 50.3398 110.977 48.4648 110.977 44.9297C110.977 41.4141 109.824 39.4805 107.93 39.4805C106.035 39.4805 104.883 41.4141 104.883 44.9297C104.883 48.4648 106.016 50.3398 107.93 50.3398ZM115.352 52V50.4375L120.254 45.4961C121.797 43.875 122.578 42.9766 122.578 41.7461C122.578 40.3594 121.445 39.4609 119.961 39.4609C118.398 39.4609 117.383 40.457 117.383 41.9609H115.352C115.332 39.3828 117.305 37.6641 120 37.6641C122.734 37.6641 124.609 39.3828 124.629 41.6875C124.609 43.2695 123.867 44.5195 121.211 47.1367L118.34 50.0469V50.1641H124.863V52H115.352Z" fill="#F5F5F5"/>
<path d="M492.395 36.1602V40.6328H494.934V42.1562H492.395V46.707H490.539V36.1602H492.395ZM492.395 47.5859V53.6602H490.539V49.0898H480.832V47.5859H492.395ZM481.145 37.2539V39.8711H485.734V37.2539H487.57V45.5938H479.328V37.2539H481.145ZM481.145 44.1094H485.734V41.3359H481.145V44.1094ZM509.562 36.1602V42.9375H512.375V44.4609H509.562V53.6992H507.707V36.1602H509.562ZM504.855 37.8398V39.3438H498.527V47.8008C501.467 47.791 503.674 47.6641 506.164 47.2148L506.398 48.7773C503.664 49.2656 501.34 49.3633 498.078 49.3438H496.672V37.8398H504.855ZM527.688 36.1602V53.6602H525.832V36.1602H527.688ZM513.312 48.7773C516.633 48.7773 520.969 48.7773 524.758 48.2891L524.895 49.6562C520.949 50.3203 516.789 50.3594 513.566 50.3398L513.312 48.7773ZM524.367 38.4453V39.9297H513.684V38.4453H518.098V36.3555H519.973V38.4453H524.367ZM519.035 40.8086C521.555 40.8086 523.273 42.0977 523.273 44.1289C523.273 46.082 521.555 47.4297 519.035 47.4102C516.535 47.4297 514.797 46.082 514.816 44.1289C514.797 42.0977 516.535 40.8086 519.035 40.8086ZM519.035 42.2344C517.57 42.2344 516.535 42.9961 516.555 44.1289C516.535 45.2422 517.57 45.9844 519.035 45.9844C520.5 45.9844 521.496 45.2422 521.516 44.1289C521.496 42.9961 520.5 42.2344 519.035 42.2344Z" fill="#F5F5F5"/>
<rect x="20" y="100" width="510" height="41" rx="10" fill="#22233B"/>
<path d="M53.0605 113.641V114.801C53.0605 116.014 53.0605 117.438 52.6562 119.389H54.9414V120.531H40.6328V119.389H51.2676C51.6895 117.429 51.6895 116.014 51.6895 114.801V114.783H42.4434V113.641H53.0605ZM53.1309 122.693V128.213H42.3906V122.693H53.1309ZM43.7617 123.783V127.088H51.7598V123.783H43.7617ZM60.6191 113.377C62.957 113.395 64.6621 114.801 64.6621 116.84C64.6621 118.879 62.957 120.285 60.6191 120.285C58.2461 120.285 56.5586 118.879 56.5586 116.84C56.5586 114.801 58.2461 113.395 60.6191 113.377ZM60.6191 114.537C59.0547 114.537 57.8945 115.486 57.9121 116.84C57.8945 118.211 59.0547 119.16 60.6191 119.16C62.166 119.16 63.3262 118.211 63.3262 116.84C63.3262 115.486 62.166 114.537 60.6191 114.537ZM69.0918 112.797V120.83H67.7207V112.797H69.0918ZM69.0918 121.586V125.348H60.3203V127.105H69.6543V128.213H58.9668V124.311H67.7207V122.693H58.9316V121.586H69.0918ZM81.8887 116.154C81.8887 118.264 83.5586 120.162 85.8965 120.9L85.1934 122.008C83.374 121.393 81.9238 120.109 81.2207 118.457C80.5352 120.241 79.0674 121.647 77.2129 122.324L76.4922 121.217C78.8301 120.391 80.5 118.369 80.5 116.154V115.24H76.8438V114.115H85.4922V115.24H81.8887V116.154ZM89.166 112.814V124.275H87.7949V112.814H89.166ZM89.6582 126.93V128.09H79.0762V123.186H80.4473V126.93H89.6582ZM105.092 112.797V122.693H103.773V118.211H101.682V122.131H100.381V113.113H101.682V117.068H103.773V112.797H105.092ZM99.748 114.678V115.785H91.7324V114.678H95.0723V112.92H96.4434V114.678H99.748ZM95.7578 116.629C97.7441 116.629 99.0977 117.666 99.1152 119.301C99.0977 120.9 97.7441 121.955 95.7578 121.955C93.7891 121.955 92.4004 120.9 92.418 119.301C92.4004 117.666 93.7891 116.629 95.7578 116.629ZM95.7578 117.648C94.5098 117.648 93.6484 118.316 93.6484 119.301C93.6484 120.268 94.5098 120.918 95.7578 120.918C97.0059 120.918 97.8672 120.268 97.8672 119.301C97.8672 118.316 97.0059 117.648 95.7578 117.648ZM99.9238 122.957C103.211 122.957 105.18 123.941 105.18 125.699C105.18 127.404 103.211 128.389 99.9238 128.389C96.6367 128.389 94.668 127.404 94.6855 125.699C94.668 123.941 96.6367 122.957 99.9238 122.957ZM99.9238 124.047C97.498 124.029 96.0391 124.627 96.0566 125.699C96.0391 126.719 97.498 127.316 99.9238 127.316C102.35 127.316 103.791 126.719 103.809 125.699C103.791 124.627 102.35 124.029 99.9238 124.047ZM119.594 112.814V117.965H121.949V119.125H119.594V124.521H118.223V112.814H119.594ZM116.729 114.73V115.855H107.412V114.73H111.385V112.814H112.756V114.73H116.729ZM112.07 116.717C114.303 116.717 115.814 117.859 115.832 119.635C115.814 121.393 114.303 122.518 112.07 122.518C109.82 122.518 108.291 121.393 108.309 119.635C108.291 117.859 109.82 116.717 112.07 116.717ZM112.07 117.807C110.594 117.807 109.609 118.527 109.627 119.635C109.609 120.742 110.594 121.445 112.07 121.428C113.529 121.445 114.514 120.742 114.531 119.635C114.514 118.527 113.529 117.807 112.07 117.807ZM120.314 126.93V128.09H109.82V123.59H111.174V126.93H120.314ZM131.758 113.535C133.858 113.518 135.449 114.739 135.748 116.541H139.018V112.797H140.406V121.182H139.018V117.684H135.766C135.484 119.529 133.876 120.76 131.758 120.76C129.385 120.76 127.697 119.283 127.697 117.139C127.697 115.012 129.385 113.518 131.758 113.535ZM131.758 114.713C130.158 114.695 129.016 115.697 129.016 117.139C129.016 118.562 130.158 119.6 131.758 119.6C133.34 119.6 134.465 118.562 134.465 117.139C134.465 115.697 133.34 114.695 131.758 114.713ZM131.723 121.973V123.959H139.018V121.973H140.406V128.213H130.334V121.973H131.723ZM131.723 127.088H139.018V125.066H131.723V127.088ZM157.299 121.885V123.027H150.777V128.424H149.424V123.027H142.99V121.885H157.299ZM155.436 113.676V119.758H144.836V113.676H155.436ZM146.189 114.801V118.668H154.064V114.801H146.189Z" fill="#F5F5F5"/>
<path d="M36.2734 168.244C36.2734 170.723 37.4863 173.412 39.5605 174.643L38.7695 175.715C37.2666 174.801 36.1855 173.131 35.6406 171.232C35.0605 173.307 33.9004 175.091 32.3359 176.049L31.457 175.012C33.6191 173.746 34.9375 170.969 34.9375 168.297V165.273H36.2734V168.244ZM45.0273 163.797V179.424H43.6914V163.797H45.0273ZM41.793 164.131V178.633H40.4922V170.582H37.8379V169.404H40.4922V164.131H41.793ZM60.0742 163.814V173.025H58.6855V172.164H55.5215V171.25H58.6855V163.814H60.0742ZM47.1367 169.703C50.1602 169.721 54.0273 169.686 57.4023 169.316L57.4902 170.213C55.9609 170.433 54.3701 170.564 52.8145 170.635V173.078H51.4609V170.688C49.9844 170.74 48.5693 170.749 47.2949 170.74L47.1367 169.703ZM60.0742 173.588V176.822H50.9512V178.229H60.584V179.248H49.5977V175.855H58.7031V174.59H49.5273V173.588H60.0742ZM52.2344 164.113C54.5547 164.113 56.1016 165.027 56.1191 166.469C56.1016 167.928 54.5547 168.807 52.2344 168.807C49.8789 168.807 48.3496 167.928 48.3496 166.469C48.3496 165.027 49.8789 164.113 52.2344 164.113ZM52.2344 165.08C50.6523 165.08 49.6328 165.625 49.6504 166.469C49.6328 167.295 50.6523 167.857 52.2344 167.857C53.7988 167.857 54.8184 167.295 54.8184 166.469C54.8184 165.625 53.7988 165.08 52.2344 165.08ZM73.3105 170.951V172.34H67.7383V170.951H73.3105ZM91.0996 171.637C91.0996 175.662 88.7266 178.176 85.4746 178.176C82.2051 178.176 79.8496 175.662 79.8496 171.637C79.8496 167.611 82.2051 165.098 85.4746 165.098C88.7266 165.098 91.0996 167.611 91.0996 171.637ZM89.5703 171.637C89.5703 168.35 87.7773 166.574 85.4746 166.574C83.1719 166.574 81.3789 168.35 81.3789 171.637C81.3789 174.924 83.1719 176.699 85.4746 176.699C87.7773 176.699 89.5703 174.924 89.5703 171.637ZM102.104 169.281C101.734 167.523 100.223 166.574 98.5527 166.574C96.25 166.574 94.457 168.35 94.457 171.637C94.457 174.924 96.25 176.699 98.5527 176.699C100.223 176.699 101.717 175.75 102.104 174.01H103.686C103.229 176.611 101.137 178.176 98.5527 178.176C95.2832 178.176 92.9277 175.662 92.9277 171.637C92.9277 167.611 95.2832 165.098 98.5527 165.098C101.119 165.098 103.211 166.645 103.686 169.281H102.104ZM105.9 178V165.273H107.482V176.594H113.389V178H105.9ZM124.797 167.998C124.779 170.846 126.73 173.729 129.033 174.766L128.189 175.855C126.414 174.985 124.876 173.148 124.129 170.916C123.399 173.28 121.861 175.249 120.033 176.172L119.154 175.012C121.475 173.939 123.408 170.969 123.426 167.998V165.15H124.797V167.998ZM132.127 163.797V179.459H130.738V163.797H132.127ZM147.016 163.797V168.561H149.371V169.721H147.016V175.328H145.645V163.797H147.016ZM147.736 177.93V179.09H137.242V174.133H138.596V177.93H147.736ZM139.193 164.904C141.531 164.904 143.289 166.486 143.307 168.754C143.289 171.021 141.531 172.604 139.193 172.604C136.855 172.604 135.08 171.021 135.098 168.754C135.08 166.486 136.855 164.904 139.193 164.904ZM139.193 166.117C137.646 166.117 136.434 167.207 136.451 168.754C136.434 170.301 137.646 171.391 139.193 171.391C140.775 171.391 141.953 170.301 141.953 168.754C141.953 167.207 140.775 166.117 139.193 166.117ZM162.713 165.256C162.713 167.453 165.596 169.369 168.408 169.756L167.846 170.881C165.42 170.477 163.021 169.132 162.01 167.207C161.008 169.141 158.6 170.477 156.174 170.881L155.611 169.756C158.424 169.369 161.289 167.488 161.289 165.256V164.359H162.713V165.256ZM169.111 172.604V173.764H162.643V179.424H161.289V173.764H154.873V172.604H169.111ZM183.385 163.797V173.113H181.996V169.018H178.85V167.875H181.996V163.797H183.385ZM178.199 173.605C181.451 173.605 183.438 174.66 183.438 176.506C183.438 178.352 181.451 179.406 178.199 179.424C174.947 179.406 172.961 178.352 172.961 176.506C172.961 174.66 174.947 173.605 178.199 173.605ZM178.199 174.678C175.809 174.678 174.314 175.363 174.332 176.506C174.314 177.631 175.809 178.316 178.199 178.316C180.59 178.316 182.066 177.631 182.066 176.506C182.066 175.363 180.59 174.678 178.199 174.678ZM175.861 166.662C175.861 168.701 177.426 170.635 179.711 171.426L178.99 172.533C177.232 171.9 175.87 170.591 175.211 168.965C174.525 170.802 173.075 172.27 171.221 172.973L170.5 171.865C172.82 171.021 174.473 168.912 174.473 166.68V166.1H170.939V164.939H179.359V166.1H175.861V166.662Z" fill="#F5F5F5"/>
<path d="M44.4297 210.73C43.4453 210.73 42.6367 209.922 42.6367 208.92C42.6367 207.936 43.4453 207.127 44.4297 207.127C45.4316 207.127 46.2402 207.936 46.2402 208.92C46.2402 209.922 45.4316 210.73 44.4297 210.73ZM65.1895 201.625V205.703H67.5625V200.131H68.8809V214.633H67.5625V206.846H65.1895V211.223H59.2129V201.625H65.1895ZM60.5137 202.732V210.115H63.8887V202.732H60.5137ZM72.0273 199.797V215.424H70.6914V199.797H72.0273ZM87.0918 199.814V211.24H85.7207V199.814H87.0918ZM87.584 213.93V215.09H77.002V210.08H78.373V213.93H87.584ZM78.6543 200.904C80.9922 200.904 82.75 202.486 82.75 204.736C82.75 207.021 80.9922 208.586 78.6543 208.586C76.3164 208.586 74.5586 207.021 74.5586 204.736C74.5586 202.486 76.3164 200.904 78.6543 200.904ZM78.6543 202.117C77.0723 202.117 75.8945 203.207 75.9121 204.736C75.8945 206.301 77.0723 207.373 78.6543 207.373C80.2012 207.373 81.3965 206.301 81.3965 204.736C81.3965 203.207 80.2012 202.117 78.6543 202.117ZM107.711 199.797V215.424H106.375V199.797H107.711ZM104.652 200.184V214.598H103.334V206.986H101.154V205.738H103.334V200.184H104.652ZM101.611 201.801V202.943H100.293V210.168C100.882 210.133 101.444 210.08 101.963 210.01L102.051 211.029C99.5898 211.486 96.3027 211.557 94.2637 211.557L94.0879 210.379L95.7402 210.361V202.943H94.4219V201.801H101.611ZM97.0059 210.344C97.6562 210.326 98.3418 210.3 99.0098 210.256V202.943H97.0059V210.344ZM122.705 199.797V215.459H121.316V199.797H122.705ZM114.391 201.01C116.711 201.027 118.381 203.137 118.381 206.459C118.381 209.781 116.711 211.891 114.391 211.891C112.053 211.891 110.4 209.781 110.4 206.459C110.4 203.137 112.053 201.027 114.391 201.01ZM114.391 202.24C112.826 202.258 111.736 203.91 111.736 206.459C111.736 209.008 112.826 210.66 114.391 210.66C115.955 210.66 117.045 209.008 117.045 206.459C117.045 203.91 115.955 202.258 114.391 202.24ZM130.967 204.596C130.967 207.25 132.9 209.939 135.203 210.941L134.43 212.031C132.602 211.196 131.02 209.395 130.299 207.232C129.561 209.526 127.987 211.521 126.203 212.418L125.377 211.328C127.609 210.256 129.561 207.303 129.578 204.596V202.557H125.887V201.414H134.693V202.557H130.967V204.596ZM138.262 199.797V215.424H136.873V199.797H138.262Z" fill="#F5F5F5"/>
<path d="M368.188 201.688V213H366.766V203.156H366.703L363.953 204.984V203.562L366.766 201.688H368.188ZM374.906 213.156C372.391 213.156 370.953 211.047 370.953 207.344C370.953 203.672 372.422 201.531 374.906 201.531C377.391 201.531 378.859 203.672 378.859 207.344C378.859 211.047 377.406 213.156 374.906 213.156ZM374.906 211.906C376.531 211.906 377.484 210.266 377.484 207.344C377.484 204.422 376.531 202.75 374.906 202.75C373.281 202.75 372.312 204.422 372.312 207.344C372.312 210.266 373.266 211.906 374.906 211.906ZM384.438 213.156C381.922 213.156 380.484 211.047 380.484 207.344C380.484 203.672 381.953 201.531 384.438 201.531C386.922 201.531 388.391 203.672 388.391 207.344C388.391 211.047 386.938 213.156 384.438 213.156ZM384.438 211.906C386.062 211.906 387.016 210.266 387.016 207.344C387.016 204.422 386.062 202.75 384.438 202.75C382.812 202.75 381.844 204.422 381.844 207.344C381.844 210.266 382.797 211.906 384.438 211.906ZM392.656 206.938C391.188 206.938 390.391 205.844 390.391 204.219C390.391 202.625 391.219 201.516 392.656 201.516C394.141 201.516 394.922 202.625 394.922 204.219C394.922 205.844 394.109 206.938 392.656 206.938ZM392.656 205.969C393.422 205.969 393.781 205.281 393.781 204.219C393.781 203.172 393.453 202.469 392.656 202.484C391.906 202.484 391.531 203.172 391.531 204.219C391.531 205.281 391.906 205.969 392.656 205.969ZM399.562 213.156C398.094 213.172 397.281 212.062 397.297 210.453C397.281 208.844 398.125 207.734 399.562 207.734C401.031 207.734 401.812 208.844 401.812 210.453C401.812 212.062 401 213.172 399.562 213.156ZM399.562 212.188C400.312 212.188 400.672 211.5 400.672 210.453C400.672 209.391 400.344 208.688 399.562 208.703C398.812 208.719 398.422 209.391 398.422 210.453C398.422 211.5 398.797 212.188 399.562 212.188ZM391.5 213L399.281 201.688H400.547L392.766 213H391.5Z" fill="#F5F5F5"/>
<rect x="419" y="205.5" width="100" height="4" rx="2" fill="#22233B"/>
<rect x="419" y="205.5" width="100" height="4" rx="2" fill="#157FD1"/>
<path d="M76.6953 232.273V245H75.0957V233.926H75.0254L71.9316 235.982V234.383L75.0957 232.273H76.6953ZM85.5723 237.951V239.34H80V237.951H85.5723ZM92.375 232.273V245H90.7754V233.926H90.7051L87.6113 235.982V234.383L90.7754 232.273H92.375ZM99.1074 240.148C99.0898 243.471 98.1934 246.23 96.5762 248.586H95.2402C96.4355 246.846 97.543 243.277 97.543 240.148C97.543 237.02 96.4355 233.469 95.2402 231.729H96.5762C98.1934 234.066 99.0898 236.826 99.1074 240.148ZM120.166 243.26V244.42H105.857V243.26H112.291V239.445H107.545V232.115H118.391V239.445H113.645V243.26H120.166ZM108.898 233.223V238.338H117.055V233.223H108.898ZM135.67 238.689V239.814H121.414V238.689H135.67ZM134.035 235.824V236.967H123.225V231.482H133.895V232.607H124.596V235.824H134.035ZM134.158 244.912V246.072H123.26V241.502H124.631V244.912H134.158ZM154.426 230.814V242.627H153.02V240.43H149.574V239.305H153.02V230.814H154.426ZM154.812 244.93V246.09H143.721V241.309H145.109V244.93H154.812ZM141.383 237.002C143.387 237.002 145.909 236.976 148.396 236.809C148.704 235.077 148.757 233.785 148.766 232.889H142.789V231.764H150.137V232.379C150.137 233.24 150.137 234.708 149.803 236.686C150.418 236.642 151.016 236.571 151.596 236.492L151.701 237.494C150.242 237.74 148.713 237.89 147.219 237.986V241.59H145.848V238.057C144.301 238.127 142.842 238.145 141.576 238.145L141.383 237.002ZM169.262 230.814V235.965H171.617V237.125H169.262V242.521H167.891V230.814H169.262ZM166.396 232.73V233.855H157.08V232.73H161.053V230.814H162.424V232.73H166.396ZM161.738 234.717C163.971 234.717 165.482 235.859 165.5 237.635C165.482 239.393 163.971 240.518 161.738 240.518C159.488 240.518 157.959 239.393 157.977 237.635C157.959 235.859 159.488 234.717 161.738 234.717ZM161.738 235.807C160.262 235.807 159.277 236.527 159.295 237.635C159.277 238.742 160.262 239.445 161.738 239.428C163.197 239.445 164.182 238.742 164.199 237.635C164.182 236.527 163.197 235.807 161.738 235.807ZM169.982 244.93V246.09H159.488V241.59H160.842V244.93H169.982ZM185.996 230.797V246.424H184.66V230.797H185.996ZM182.85 231.131V245.633H181.531V238.039H179.527C179.378 241.08 178.086 242.979 176.152 242.979C174.113 242.979 172.795 240.869 172.795 237.547C172.795 234.225 174.113 232.115 176.152 232.115C178.051 232.115 179.334 233.952 179.51 236.896H181.531V231.131H182.85ZM176.152 233.416C174.887 233.416 174.078 234.998 174.096 237.547C174.078 240.078 174.887 241.678 176.152 241.66C177.418 241.678 178.227 240.078 178.227 237.547C178.227 234.998 177.418 233.416 176.152 233.416ZM193.66 234.998C193.66 237.828 195.471 240.676 197.738 241.713L196.912 242.838C195.137 241.924 193.669 240.052 192.975 237.828C192.28 240.166 190.812 242.17 189.037 243.119L188.141 242.012C190.426 240.887 192.254 237.881 192.254 234.998V232.15H193.66V234.998ZM201.113 230.797V246.459H199.742V237.266H196.033V236.141H199.742V230.797H201.113ZM212.416 245.193C210.043 245.193 208.355 243.277 208.355 240.254C208.355 237.23 210.043 235.332 212.434 235.332C214.279 235.332 214.877 236.457 215.193 236.967H215.299V232.273H216.828V245H215.352V243.541H215.193C214.859 244.068 214.244 245.193 212.416 245.193ZM212.627 243.84C214.367 243.84 215.352 242.363 215.352 240.219C215.352 238.109 214.402 236.686 212.627 236.686C210.799 236.686 209.885 238.232 209.885 240.219C209.885 242.258 210.816 243.84 212.627 243.84ZM218.99 242.293C218.99 240.096 220.924 239.604 222.576 239.48C223.183 239.437 224.729 239.357 225.16 239.34V238.566C225.16 237.354 224.439 236.65 222.998 236.65C221.785 236.65 221.064 237.213 220.854 237.934H219.271C219.465 236.404 220.959 235.332 223.068 235.332C224.316 235.332 226.654 235.701 226.654 238.707V245H225.16V243.699H225.09C224.773 244.35 223.895 245.229 222.242 245.229C220.432 245.229 218.99 244.156 218.99 242.293ZM220.502 242.363C220.502 243.365 221.346 243.875 222.506 243.875C224.211 243.875 225.16 242.732 225.16 241.537V240.57L222.752 240.746C221.381 240.834 220.502 241.326 220.502 242.363ZM233.246 235.455V236.721H231.242V242.258C231.242 243.488 231.84 243.682 232.49 243.682C232.771 243.682 233.158 243.664 233.387 243.646V245.053C233.158 245.088 232.771 245.123 232.332 245.123C231.066 245.123 229.713 244.332 229.713 242.645V236.721H228.271V235.455H229.713V233.17H231.242V235.455H233.246ZM234.74 242.293C234.74 240.096 236.674 239.604 238.326 239.48C238.933 239.437 240.479 239.357 240.91 239.34V238.566C240.91 237.354 240.189 236.65 238.748 236.65C237.535 236.65 236.814 237.213 236.604 237.934H235.021C235.215 236.404 236.709 235.332 238.818 235.332C240.066 235.332 242.404 235.701 242.404 238.707V245H240.91V243.699H240.84C240.523 244.35 239.645 245.229 237.992 245.229C236.182 245.229 234.74 244.156 234.74 242.293ZM236.252 242.363C236.252 243.365 237.096 243.875 238.256 243.875C239.961 243.875 240.91 242.732 240.91 241.537V240.57L238.502 240.746C237.131 240.834 236.252 241.326 236.252 242.363ZM245.023 245V232.273H246.535V236.967H246.658C246.992 236.457 247.555 235.332 249.418 235.332C251.809 235.332 253.496 237.23 253.496 240.254C253.496 243.277 251.809 245.193 249.436 245.193C247.607 245.193 246.992 244.068 246.658 243.541H246.482V245H245.023ZM246.5 240.219C246.5 242.363 247.467 243.84 249.207 243.84C251.018 243.84 251.967 242.258 251.967 240.219C251.967 238.232 251.053 236.686 249.207 236.686C247.449 236.686 246.5 238.109 246.5 240.219ZM255.008 242.293C255.008 240.096 256.941 239.604 258.594 239.48C259.2 239.437 260.747 239.357 261.178 239.34V238.566C261.178 237.354 260.457 236.65 259.016 236.65C257.803 236.65 257.082 237.213 256.871 237.934H255.289C255.482 236.404 256.977 235.332 259.086 235.332C260.334 235.332 262.672 235.701 262.672 238.707V245H261.178V243.699H261.107C260.791 244.35 259.912 245.229 258.26 245.229C256.449 245.229 255.008 244.156 255.008 242.293ZM256.52 242.363C256.52 243.365 257.363 243.875 258.523 243.875C260.229 243.875 261.178 242.732 261.178 241.537V240.57L258.77 240.746C257.398 240.834 256.52 241.326 256.52 242.363ZM270.406 237.934C270.195 237.143 269.598 236.615 268.473 236.615C267.295 236.615 266.451 237.248 266.451 238.057C266.451 238.689 266.961 239.129 268.086 239.393L269.51 239.744C271.215 240.148 272.059 240.992 272.059 242.328C272.059 243.98 270.705 245.193 268.314 245.193C266.17 245.193 264.887 244.244 264.641 242.504H266.223C266.398 243.436 267.084 243.875 268.279 243.875C269.633 243.875 270.494 243.312 270.494 242.416C270.494 241.748 270.02 241.291 268.93 241.045L267.488 240.711C265.818 240.324 264.939 239.41 264.939 238.145C264.939 236.51 266.363 235.332 268.473 235.332C270.441 235.332 271.689 236.387 271.883 237.934H270.406ZM278.035 245.193C275.275 245.193 273.57 243.242 273.57 240.307C273.57 237.371 275.293 235.332 277.895 235.332C279.898 235.332 282.008 236.562 282.008 240.096V240.729H275.082C275.152 242.75 276.33 243.857 278.035 243.857C279.178 243.857 279.898 243.365 280.25 242.768H281.867C281.41 244.209 280.004 245.193 278.035 245.193ZM275.1 239.445H280.479C280.479 237.846 279.459 236.668 277.895 236.668C276.242 236.668 275.188 237.969 275.1 239.445ZM291.184 231.061V232.555H298.918V231.061H300.289V236.193H295.684V237.74H302.152V238.865H287.914V237.74H294.33V236.193H289.812V231.061H291.184ZM291.184 235.121H298.918V233.609H291.184V235.121ZM300.324 240.166V243.629H291.043V245.158H300.799V246.248H289.672V242.609H298.971V241.221H289.637V240.166H300.324ZM315.828 232.256C315.828 234.453 318.711 236.369 321.523 236.756L320.961 237.881C318.535 237.477 316.136 236.132 315.125 234.207C314.123 236.141 311.715 237.477 309.289 237.881L308.727 236.756C311.539 236.369 314.404 234.488 314.404 232.256V231.359H315.828V232.256ZM322.227 239.604V240.764H315.758V246.424H314.404V240.764H307.988V239.604H322.227ZM333.354 241.291C333.354 242.671 334.092 244.139 335.586 244.982C337.062 244.06 337.854 242.504 337.854 241.291V240.43H339.207V241.291C339.207 242.891 340.385 244.508 342.389 245.193L341.703 246.213C340.139 245.659 339.04 244.569 338.504 243.26C338.021 244.525 337.062 245.721 335.621 246.336C334.101 245.756 333.134 244.604 332.668 243.295C332.114 244.561 331.033 245.65 329.539 246.213L328.836 245.193C330.805 244.455 332 242.785 332.018 241.291V240.43H333.354V241.291ZM340.965 230.814V239.744H339.594V230.814H340.965ZM332.527 231.729C334.9 231.729 336.623 233.205 336.623 235.385C336.623 237.529 334.9 239.006 332.527 239.006C330.154 239.006 328.432 237.529 328.432 235.385C328.432 233.205 330.154 231.729 332.527 231.729ZM332.527 232.906C330.928 232.889 329.768 233.926 329.785 235.385C329.768 236.826 330.928 237.846 332.527 237.863C334.109 237.846 335.27 236.826 335.27 235.385C335.27 233.926 334.109 232.889 332.527 232.906ZM356.24 238.127V239.252H351.406V243.295H357.928V244.455H343.619V243.295H350.053V239.252H345.447V232.08H356.082V233.205H346.836V238.127H356.24ZM373.467 239.41V240.553H359.158V239.41H365.627V237.758H361.021V233.943H370.232V232.326H360.969V231.201H371.621V234.98H362.393V236.65H371.955V237.758H366.98V239.41H373.467ZM371.709 241.748V246.283H370.32V242.873H360.758V241.748H371.709Z" fill="#F5F5F5"/>
<path d="M76.6953 263.273V276H75.0957V264.926H75.0254L71.9316 266.982V265.383L75.0957 263.273H76.6953ZM85.5723 268.951V270.34H80V268.951H85.5723ZM87.2949 276L87.2773 274.84L91.6191 270.27C93.1309 268.67 93.8516 267.809 93.8516 266.631C93.8516 265.33 92.7441 264.469 91.3203 264.469C89.8086 264.469 88.8418 265.436 88.8418 266.859H87.3477C87.3301 264.609 89.0703 263.098 91.373 263.098C93.6758 263.098 95.3281 264.645 95.3281 266.631C95.3281 268.055 94.6602 269.162 92.4102 271.482L89.4922 274.488V274.594H95.5566V276H87.2949ZM101.199 271.148C101.182 274.471 100.285 277.23 98.668 279.586H97.332C98.5273 277.846 99.6348 274.277 99.6348 271.148C99.6348 268.02 98.5273 264.469 97.332 262.729H98.668C100.285 265.066 101.182 267.826 101.199 271.148ZM120.553 261.797V265.242H122.539V266.402H120.553V270.076H119.217V261.797H120.553ZM109.566 262.57V264.768H111.412V262.57H112.572V269.215H108.406V262.57H109.566ZM109.566 268.125H111.412V265.857H109.566V268.125ZM114.752 262.57V264.768H116.598V262.57H117.758V269.215H113.574V262.57H114.752ZM114.752 268.125H116.598V265.857H114.752V268.125ZM120.553 270.744V274.4H111.711V276.123H121.133V277.248H110.357V273.363H119.217V271.852H110.305V270.744H120.553ZM135.723 261.797V266.561H138.078V267.721H135.723V273.24H134.334V261.797H135.723ZM131.504 263.01C131.504 267.035 128.621 270.023 124.121 271.43L123.523 270.322C127.268 269.153 129.711 266.921 130.01 264.17H124.174V263.01H131.504ZM136.443 275.93V277.09H125.932V272.08H127.303V275.93H136.443ZM156.535 261.814V273.381H155.146V267.369H151.455V270.709H144.371V262.852H145.742V265.629H150.102V262.852H151.455V266.209H155.146V261.814H156.535ZM156.887 275.93V277.09H146.428V272.238H147.816V275.93H156.887ZM145.742 269.566H150.102V266.719H145.742V269.566ZM172.637 264.117V265.26H159.84V264.117H165.57V262.061H166.924V264.117H172.637ZM173.445 274.453V275.596H159.137V274.453H165.57V272.256C162.793 272.106 161.105 271.025 161.123 269.268C161.105 267.404 163.074 266.314 166.256 266.332C169.402 266.314 171.389 267.404 171.389 269.268C171.389 271.025 169.684 272.106 166.924 272.256V274.453H173.445ZM166.256 267.422C163.918 267.422 162.494 268.107 162.512 269.268C162.494 270.463 163.918 271.131 166.256 271.148C168.559 271.131 169.982 270.463 169.982 269.268C169.982 268.107 168.559 267.422 166.256 267.422ZM191.305 261.797V267.984H193.924V269.145H191.305V277.459H189.934V261.797H191.305ZM187.191 263.326V264.469H181.268V272.379C184.098 272.379 186.102 272.247 188.422 271.816L188.598 273.012C186.154 273.451 184.098 273.539 181.127 273.539H179.896V263.326H187.191ZM209.305 264.17V265.312H206.984V267.492H209.305V268.652H206.984V271.078H205.613V261.797H206.984V264.17H209.305ZM199.162 262.746C201.535 262.729 203.258 264.24 203.275 266.42C203.258 268.6 201.535 270.076 199.162 270.094C196.789 270.076 195.049 268.6 195.066 266.42C195.049 264.24 196.789 262.729 199.162 262.746ZM199.162 263.924C197.58 263.906 196.402 264.943 196.42 266.42C196.402 267.896 197.58 268.916 199.162 268.934C200.762 268.916 201.922 267.896 201.922 266.42C201.922 264.943 200.762 263.906 199.162 263.924ZM201.975 271.553C205.156 271.57 207.125 272.625 207.125 274.488C207.125 276.316 205.156 277.389 201.975 277.389C198.775 277.389 196.789 276.316 196.789 274.488C196.789 272.625 198.775 271.57 201.975 271.553ZM201.975 272.678C199.619 272.678 198.16 273.346 198.178 274.488C198.16 275.613 199.619 276.281 201.975 276.281C204.348 276.281 205.789 275.613 205.789 274.488C205.789 273.346 204.348 272.678 201.975 272.678ZM222.418 261.797V268.248H225.037V269.391H222.418V277.424H221.047V261.797H222.418ZM219.535 264.311V265.453H210.236V264.311H214.262V261.99H215.633V264.311H219.535ZM214.965 266.754C217.18 266.754 218.779 268.23 218.797 270.34C218.779 272.449 217.18 273.926 214.965 273.926C212.732 273.926 211.115 272.449 211.133 270.34C211.115 268.23 212.732 266.754 214.965 266.754ZM214.965 267.914C213.506 267.914 212.434 268.934 212.451 270.34C212.434 271.764 213.506 272.766 214.965 272.748C216.406 272.766 217.461 271.764 217.479 270.34C217.461 268.934 216.406 267.914 214.965 267.914ZM239.258 261.797V277.424H237.939V261.797H239.258ZM235.971 262.219V276.633H234.652V269.338H231.348C230.39 271.157 228.887 272.766 226.707 274.049L225.898 273.047C229.3 271.034 231.005 268.213 231.26 264.943H226.566V263.801H232.631C232.622 265.339 232.376 266.824 231.857 268.213H234.652V262.219H235.971Z" fill="#F5F5F5"/>
<path d="M44.4297 308.73C43.4453 308.73 42.6367 307.922 42.6367 306.92C42.6367 305.936 43.4453 305.127 44.4297 305.127C45.4316 305.127 46.2402 305.936 46.2402 306.92C46.2402 307.922 45.4316 308.73 44.4297 308.73ZM67.6152 299.502V300.645H65.875V308.168C66.7188 308.106 67.5537 308.036 68.3535 307.939L68.4238 308.959C65.1191 309.486 61.375 309.539 58.6152 309.557L58.4395 308.379L60.5488 308.361V300.645H58.8262V299.502H67.6152ZM70.7266 297.797V304.072H73.3457V305.232H70.7266V313.424H69.3555V297.797H70.7266ZM61.8848 308.344C62.7549 308.326 63.6602 308.291 64.5566 308.238V300.645H61.8848V308.344ZM78.6191 298.377C80.957 298.395 82.6621 299.801 82.6621 301.84C82.6621 303.879 80.957 305.285 78.6191 305.285C76.2461 305.285 74.5586 303.879 74.5586 301.84C74.5586 299.801 76.2461 298.395 78.6191 298.377ZM78.6191 299.537C77.0547 299.537 75.8945 300.486 75.9121 301.84C75.8945 303.211 77.0547 304.16 78.6191 304.16C80.166 304.16 81.3262 303.211 81.3262 301.84C81.3262 300.486 80.166 299.537 78.6191 299.537ZM87.0918 297.797V305.83H85.7207V297.797H87.0918ZM87.0918 306.586V310.348H78.3203V312.105H87.6543V313.213H76.9668V309.311H85.7207V307.693H76.9316V306.586H87.0918ZM98.5703 298.535C100.671 298.518 102.262 299.739 102.561 301.541H105.83V297.797H107.219V306.182H105.83V302.684H102.578C102.297 304.529 100.688 305.76 98.5703 305.76C96.1973 305.76 94.5098 304.283 94.5098 302.139C94.5098 300.012 96.1973 298.518 98.5703 298.535ZM98.5703 299.713C96.9707 299.695 95.8281 300.697 95.8281 302.139C95.8281 303.562 96.9707 304.6 98.5703 304.6C100.152 304.6 101.277 303.562 101.277 302.139C101.277 300.697 100.152 299.695 98.5703 299.713ZM98.5352 306.973V308.959H105.83V306.973H107.219V313.213H97.1465V306.973H98.5352ZM98.5352 312.088H105.83V310.066H98.5352V312.088ZM124.129 310.33V311.49H109.82V310.33H116.254V307.377H111.613V302.561H120.965V300.1H111.578V298.957H122.318V303.686H112.984V306.234H122.688V307.377H117.607V310.33H124.129ZM137.998 305.32V306.463H127.205V299.256H137.84V300.398H128.576V305.32H137.998ZM139.686 310.137V311.297H125.377V310.137H139.686ZM146.031 312V302.455H147.49V303.949H147.613C148.018 302.93 148.932 302.332 150.18 302.332C151.428 302.332 152.271 302.93 152.729 303.949H152.834C153.326 302.965 154.328 302.332 155.699 302.332C157.404 302.332 158.617 303.369 158.617 305.619V312H157.105V305.637C157.105 304.23 156.209 303.686 155.172 303.686C153.836 303.686 153.08 304.582 153.08 305.795V312H151.551V305.479C151.551 304.406 150.777 303.686 149.688 303.686C148.545 303.686 147.543 304.652 147.543 306.041V312H146.031ZM164.945 312.193C162.344 312.193 160.586 310.242 160.586 307.271C160.586 304.301 162.344 302.332 164.945 302.332C167.529 302.332 169.27 304.301 169.27 307.271C169.27 310.242 167.529 312.193 164.945 312.193ZM164.945 310.857C166.861 310.857 167.758 309.17 167.758 307.271C167.758 305.373 166.861 303.668 164.945 303.668C162.994 303.668 162.098 305.373 162.098 307.271C162.098 309.17 162.994 310.857 164.945 310.857ZM174.859 312.193C172.486 312.193 170.799 310.277 170.799 307.254C170.799 304.23 172.486 302.332 174.877 302.332C176.723 302.332 177.32 303.457 177.637 303.967H177.742V299.273H179.271V312H177.795V310.541H177.637C177.303 311.068 176.688 312.193 174.859 312.193ZM175.07 310.84C176.811 310.84 177.795 309.363 177.795 307.219C177.795 305.109 176.846 303.686 175.07 303.686C173.242 303.686 172.328 305.232 172.328 307.219C172.328 309.258 173.26 310.84 175.07 310.84ZM181.434 309.293C181.434 307.096 183.367 306.604 185.02 306.48C185.626 306.437 187.173 306.357 187.604 306.34V305.566C187.604 304.354 186.883 303.65 185.441 303.65C184.229 303.65 183.508 304.213 183.297 304.934H181.715C181.908 303.404 183.402 302.332 185.512 302.332C186.76 302.332 189.098 302.701 189.098 305.707V312H187.604V310.699H187.533C187.217 311.35 186.338 312.229 184.686 312.229C182.875 312.229 181.434 311.156 181.434 309.293ZM182.945 309.363C182.945 310.365 183.789 310.875 184.949 310.875C186.654 310.875 187.604 309.732 187.604 308.537V307.57L185.195 307.746C183.824 307.834 182.945 308.326 182.945 309.363ZM193.035 299.273V312H191.523V299.273H193.035Z" fill="#F5F5F5"/>
<path d="M368.188 299.688V311H366.766V301.156H366.703L363.953 302.984V301.562L366.766 299.688H368.188ZM374.906 311.156C372.391 311.156 370.953 309.047 370.953 305.344C370.953 301.672 372.422 299.531 374.906 299.531C377.391 299.531 378.859 301.672 378.859 305.344C378.859 309.047 377.406 311.156 374.906 311.156ZM374.906 309.906C376.531 309.906 377.484 308.266 377.484 305.344C377.484 302.422 376.531 300.75 374.906 300.75C373.281 300.75 372.312 302.422 372.312 305.344C372.312 308.266 373.266 309.906 374.906 309.906ZM384.438 311.156C381.922 311.156 380.484 309.047 380.484 305.344C380.484 301.672 381.953 299.531 384.438 299.531C386.922 299.531 388.391 301.672 388.391 305.344C388.391 309.047 386.938 311.156 384.438 311.156ZM384.438 309.906C386.062 309.906 387.016 308.266 387.016 305.344C387.016 302.422 386.062 300.75 384.438 300.75C382.812 300.75 381.844 302.422 381.844 305.344C381.844 308.266 382.797 309.906 384.438 309.906ZM392.656 304.938C391.188 304.938 390.391 303.844 390.391 302.219C390.391 300.625 391.219 299.516 392.656 299.516C394.141 299.516 394.922 300.625 394.922 302.219C394.922 303.844 394.109 304.938 392.656 304.938ZM392.656 303.969C393.422 303.969 393.781 303.281 393.781 302.219C393.781 301.172 393.453 300.469 392.656 300.484C391.906 300.484 391.531 301.172 391.531 302.219C391.531 303.281 391.906 303.969 392.656 303.969ZM399.562 311.156C398.094 311.172 397.281 310.062 397.297 308.453C397.281 306.844 398.125 305.734 399.562 305.734C401.031 305.734 401.812 306.844 401.812 308.453C401.812 310.062 401 311.172 399.562 311.156ZM399.562 310.188C400.312 310.188 400.672 309.5 400.672 308.453C400.672 307.391 400.344 306.688 399.562 306.703C398.812 306.719 398.422 307.391 398.422 308.453C398.422 309.5 398.797 310.188 399.562 310.188ZM391.5 311L399.281 299.688H400.547L392.766 311H391.5Z" fill="#F5F5F5"/>
<rect x="419" y="303.5" width="100" height="4" rx="2" fill="#22233B"/>
<rect x="419" y="303.5" width="100" height="4" rx="2" fill="#157FD1"/>
<path d="M72.1953 343L72.1777 341.84L76.5195 337.27C78.0312 335.67 78.752 334.809 78.752 333.631C78.752 332.33 77.6445 331.469 76.2207 331.469C74.709 331.469 73.7422 332.436 73.7422 333.859H72.248C72.2305 331.609 73.9707 330.098 76.2734 330.098C78.5762 330.098 80.2285 331.645 80.2285 333.631C80.2285 335.055 79.5605 336.162 77.3105 338.482L74.3926 341.488V341.594H80.457V343H72.1953ZM88.2441 335.951V337.34H82.6719V335.951H88.2441ZM95.0469 330.273V343H93.4473V331.926H93.377L90.2832 333.982V332.383L93.4473 330.273H95.0469ZM101.779 338.148C101.762 341.471 100.865 344.23 99.248 346.586H97.9121C99.1074 344.846 100.215 341.277 100.215 338.148C100.215 335.02 99.1074 331.469 97.9121 329.729H99.248C100.865 332.066 101.762 334.826 101.779 338.148ZM121.484 328.797V344.459H120.113V335.758H116.369V340.504H109.162V330.027H110.551V334.105H115.016V330.027H116.369V334.615H120.113V328.797H121.484ZM110.551 339.361H115.016V335.213H110.551V339.361ZM138.324 337.463V338.588H124.068V337.463H138.324ZM136.83 342.93V344.09H125.932V339.73H127.303V342.93H136.83ZM136.637 334.896V335.986H125.967V329.395H136.549V330.502H127.355V332.137H136.127V333.209H127.355V334.896H136.637ZM158.398 338.254V339.414H151.947V344.459H150.594V339.414H144.16V338.254H158.398ZM151.965 331.891C151.965 333.842 154.689 335.547 157.484 335.934L156.975 337.041C154.558 336.672 152.281 335.459 151.297 333.754C150.295 335.477 147.983 336.672 145.566 337.041L145.057 335.934C147.834 335.547 150.594 333.859 150.594 331.891V331.873H145.549V330.748H150.594V328.797H151.947V330.748H157.027V331.873H151.965V331.891ZM171.811 328.797V335.16H174.342V336.32H171.811V344.424H170.439V328.797H171.811ZM167.768 330.484C167.768 334.914 165.693 338.939 160.596 341.453L159.822 340.363C163.865 338.351 166.062 335.345 166.379 331.645H160.543V330.484H167.768ZM185.838 335.951V337.34H180.266V335.951H185.838ZM199.936 330.256C199.936 332.453 202.818 334.369 205.631 334.756L205.068 335.881C202.643 335.477 200.243 334.132 199.232 332.207C198.23 334.141 195.822 335.477 193.396 335.881L192.834 334.756C195.646 334.369 198.512 332.488 198.512 330.256V329.359H199.936V330.256ZM206.334 337.604V338.764H199.865V344.424H198.512V338.764H192.096V337.604H206.334ZM220.572 328.797V344.424H219.184V328.797H220.572ZM215.949 330.502C215.932 335.002 213.84 338.975 208.602 341.488L207.846 340.363C212.073 338.359 214.227 335.362 214.543 331.627H208.566V330.502H215.949ZM240.629 328.797V337.182H239.258V328.797H240.629ZM231.875 337.973V339.871H239.258V337.973H240.629V344.213H230.504V337.973H231.875ZM231.875 343.088H239.258V340.979H231.875V343.088ZM232.191 329.57C234.564 329.553 236.287 331.012 236.287 333.156C236.287 335.283 234.564 336.742 232.191 336.742C229.818 336.742 228.096 335.283 228.096 333.156C228.096 331.012 229.818 329.553 232.191 329.57ZM232.191 330.73C230.592 330.713 229.432 331.732 229.449 333.156C229.432 334.58 230.592 335.6 232.191 335.6C233.773 335.6 234.934 334.58 234.934 333.156C234.934 331.732 233.773 330.713 232.191 330.73ZM250.701 329.764V334.141H245.322V336.566C248.258 336.566 249.77 336.522 251.615 336.18L251.756 337.322C249.805 337.639 248.223 337.691 245.059 337.691H243.951V333.086H249.33V330.871H243.916V329.764H250.701ZM256.238 328.814V338.412H254.85V335.512H251.738V334.369H254.85V332.26H251.738V331.135H254.85V328.814H256.238ZM256.238 339.256V344.459H254.85V340.381H245.709V339.256H256.238ZM275.451 328.797V335.16H277.982V336.32H275.451V344.424H274.08V328.797H275.451ZM271.408 330.484C271.408 334.914 269.334 338.939 264.236 341.453L263.463 340.363C267.506 338.351 269.703 335.345 270.02 331.645H264.184V330.484H271.408ZM291.535 333.174V334.316H280.865V329.113H282.236V333.174H291.535ZM293.17 336.145V337.287H278.914V336.145H293.17ZM286.033 338.693C289.391 338.693 291.395 339.713 291.412 341.523C291.395 343.334 289.391 344.354 286.033 344.354C282.658 344.354 280.637 343.334 280.637 341.523C280.637 339.713 282.658 338.693 286.033 338.693ZM286.033 339.783C283.52 339.801 282.025 340.416 282.043 341.523C282.025 342.613 283.52 343.281 286.033 343.281C288.512 343.281 290.023 342.613 290.023 341.523C290.023 340.416 288.512 339.801 286.033 339.783ZM303.84 333.455V334.721H301.73V343H300.201V334.721H298.672V333.455H300.201V332.154C300.201 330.607 301.238 329.676 302.926 329.676C303.295 329.676 303.734 329.729 304.051 329.781V331.135C303.734 331.082 303.453 331.064 303.26 331.064C302.205 331.064 301.73 331.504 301.73 332.488V333.455H303.84ZM309.131 343.193C306.529 343.193 304.771 341.242 304.771 338.271C304.771 335.301 306.529 333.332 309.131 333.332C311.715 333.332 313.455 335.301 313.455 338.271C313.455 341.242 311.715 343.193 309.131 343.193ZM309.131 341.857C311.047 341.857 311.943 340.17 311.943 338.271C311.943 336.373 311.047 334.668 309.131 334.668C307.18 334.668 306.283 336.373 306.283 338.271C306.283 340.17 307.18 341.857 309.131 341.857ZM315.441 343V333.455H316.9V334.914H317.006C317.357 333.947 318.342 333.297 319.467 333.297C319.695 333.297 320.082 333.314 320.258 333.332V334.861C320.152 334.826 319.73 334.756 319.344 334.756C317.973 334.756 316.953 335.705 316.953 336.988V343H315.441ZM321.734 343V333.455H323.193V334.949H323.316C323.721 333.93 324.635 333.332 325.883 333.332C327.131 333.332 327.975 333.93 328.432 334.949H328.537C329.029 333.965 330.031 333.332 331.402 333.332C333.107 333.332 334.32 334.369 334.32 336.619V343H332.809V336.637C332.809 335.23 331.912 334.686 330.875 334.686C329.539 334.686 328.783 335.582 328.783 336.795V343H327.254V336.479C327.254 335.406 326.48 334.686 325.391 334.686C324.248 334.686 323.246 335.652 323.246 337.041V343H321.734ZM349.051 328.797V344.459H347.662V328.797H349.051ZM340.736 330.01C343.057 330.027 344.727 332.137 344.727 335.459C344.727 338.781 343.057 340.891 340.736 340.891C338.398 340.891 336.746 338.781 336.746 335.459C336.746 332.137 338.398 330.027 340.736 330.01ZM340.736 331.24C339.172 331.258 338.082 332.91 338.082 335.459C338.082 338.008 339.172 339.66 340.736 339.66C342.301 339.66 343.391 338.008 343.391 335.459C343.391 332.91 342.301 331.258 340.736 331.24ZM370.865 335.037V336.197H368.334V344.424H366.963V328.797H368.334V335.037H370.865ZM358.262 330.344V339.291C360.547 339.282 362.876 339.106 365.451 338.57L365.627 339.748C362.938 340.293 360.512 340.451 358.139 340.451H356.891V330.344H358.262ZM379.812 330.221V331.381H373.871V334.615H379.461V335.74H373.871V339.52C376.684 339.52 378.661 339.405 381.008 339.01L381.166 340.152C378.723 340.557 376.666 340.645 373.713 340.662H372.482V330.221H379.812ZM383.891 328.797V335.09H386.51V336.268H383.891V344.424H382.52V328.797H383.891ZM401.979 335.037V336.197H399.447V344.424H398.076V328.797H399.447V335.037H401.979ZM389.375 330.344V339.291C391.66 339.282 393.989 339.106 396.564 338.57L396.74 339.748C394.051 340.293 391.625 340.451 389.252 340.451H388.004V330.344H389.375ZM415.531 336.127V337.252H410.697V341.295H417.219V342.455H402.91V341.295H409.344V337.252H404.738V330.08H415.373V331.205H406.127V336.127H415.531ZM432.758 337.41V338.553H418.449V337.41H424.918V335.758H420.312V331.943H429.523V330.326H420.26V329.201H430.912V332.98H421.684V334.65H431.246V335.758H426.271V337.41H432.758ZM431 339.748V344.283H429.611V340.873H420.049V339.748H431Z" fill="#F5F5F5"/>
<path d="M72.1953 374L72.1777 372.84L76.5195 368.27C78.0312 366.67 78.752 365.809 78.752 364.631C78.752 363.33 77.6445 362.469 76.2207 362.469C74.709 362.469 73.7422 363.436 73.7422 364.859H72.248C72.2305 362.609 73.9707 361.098 76.2734 361.098C78.5762 361.098 80.2285 362.645 80.2285 364.631C80.2285 366.055 79.5605 367.162 77.3105 369.482L74.3926 372.488V372.594H80.457V374H72.1953ZM88.2441 366.951V368.34H82.6719V366.951H88.2441ZM89.9668 374L89.9492 372.84L94.291 368.27C95.8027 366.67 96.5234 365.809 96.5234 364.631C96.5234 363.33 95.416 362.469 93.9922 362.469C92.4805 362.469 91.5137 363.436 91.5137 364.859H90.0195C90.002 362.609 91.7422 361.098 94.0449 361.098C96.3477 361.098 98 362.645 98 364.631C98 366.055 97.332 367.162 95.082 369.482L92.1641 372.488V372.594H98.2285V374H89.9668ZM103.871 369.148C103.854 372.471 102.957 375.23 101.34 377.586H100.004C101.199 375.846 102.307 372.277 102.307 369.148C102.307 366.02 101.199 362.469 100.004 360.729H101.34C102.957 363.066 103.854 365.826 103.871 369.148ZM115.367 364.455V365.721H113.363V371.258C113.363 372.488 113.961 372.682 114.611 372.682C114.893 372.682 115.279 372.664 115.508 372.646V374.053C115.279 374.088 114.893 374.123 114.453 374.123C113.188 374.123 111.834 373.332 111.834 371.645V365.721H110.393V364.455H111.834V362.17H113.363V364.455H115.367ZM121.221 374.193C118.461 374.193 116.756 372.242 116.756 369.307C116.756 366.371 118.479 364.332 121.08 364.332C123.084 364.332 125.193 365.562 125.193 369.096V369.729H118.268C118.338 371.75 119.516 372.857 121.221 372.857C122.363 372.857 123.084 372.365 123.436 371.768H125.053C124.596 373.209 123.189 374.193 121.221 374.193ZM118.285 368.445H123.664C123.664 366.846 122.645 365.668 121.08 365.668C119.428 365.668 118.373 366.969 118.285 368.445ZM128.059 364.455L130.309 368.34L132.576 364.455H134.316L131.24 369.219L134.316 374H132.594L130.309 370.309L128.059 374H126.318L129.324 369.219L126.318 364.455H128.059ZM140.311 364.455V365.721H138.307V371.258C138.307 372.488 138.904 372.682 139.555 372.682C139.836 372.682 140.223 372.664 140.451 372.646V374.053C140.223 374.088 139.836 374.123 139.396 374.123C138.131 374.123 136.777 373.332 136.777 371.645V365.721H135.336V364.455H136.777V362.17H138.307V364.455H140.311ZM159.154 359.814V371.381H157.766V367.18H154.074V368.709H146.99V360.852H148.361V363.629H152.721V360.852H154.074V362.68H157.766V359.814H159.154ZM159.506 373.93V375.09H149.047V370.238H150.436V373.93H159.506ZM148.361 367.566H152.721V364.719H148.361V367.566ZM154.074 366.037H157.766V363.84H154.074V366.037ZM174.711 359.814V369.201H173.322V367.092H169.174V365.949H173.322V363.84H169.332C168.304 366.354 165.887 368.173 162.547 369.166L161.967 368.076C165.746 366.951 168.093 364.842 168.383 362.135H162.758V360.975H169.877C169.877 361.59 169.807 362.179 169.684 362.732H173.322V359.814H174.711ZM169.596 369.359C172.76 369.359 174.799 370.484 174.799 372.348C174.799 374.229 172.76 375.354 169.596 375.354C166.396 375.354 164.375 374.229 164.375 372.348C164.375 370.484 166.396 369.359 169.596 369.359ZM169.596 370.467C167.24 370.449 165.729 371.17 165.729 372.348C165.729 373.525 167.24 374.229 169.596 374.229C171.916 374.229 173.41 373.525 173.428 372.348C173.41 371.17 171.916 370.449 169.596 370.467Z" fill="#F5F5F5"/>
<rect x="20" y="408" width="510" height="41" rx="10" fill="#22233B"/>
<path d="M53.5352 430.939V436.424H52.1641V432.1H43.0234V430.939H53.5352ZM53.5352 420.797V430.096H52.1641V420.797H53.5352ZM45.0977 421.746C47.4707 421.729 49.1934 423.258 49.1934 425.42C49.1934 427.617 47.4707 429.129 45.0977 429.129C42.7246 429.129 41.002 427.617 41.002 425.42C41.002 423.258 42.7246 421.729 45.0977 421.746ZM45.0977 422.924C43.498 422.924 42.3379 423.943 42.3555 425.42C42.3379 426.914 43.498 427.951 45.0977 427.934C46.6797 427.951 47.8398 426.914 47.8398 425.42C47.8398 423.943 46.6797 422.924 45.0977 422.924ZM60.6191 421.377C62.957 421.395 64.6621 422.801 64.6621 424.84C64.6621 426.879 62.957 428.285 60.6191 428.285C58.2461 428.285 56.5586 426.879 56.5586 424.84C56.5586 422.801 58.2461 421.395 60.6191 421.377ZM60.6191 422.537C59.0547 422.537 57.8945 423.486 57.9121 424.84C57.8945 426.211 59.0547 427.16 60.6191 427.16C62.166 427.16 63.3262 426.211 63.3262 424.84C63.3262 423.486 62.166 422.537 60.6191 422.537ZM69.0918 420.797V428.83H67.7207V420.797H69.0918ZM69.0918 429.586V433.348H60.3203V435.105H69.6543V436.213H58.9668V432.311H67.7207V430.693H58.9316V429.586H69.0918ZM89.6582 420.797V436.424H88.3223V420.797H89.6582ZM86.5469 421.131V435.633H85.2285V430.5H82.7324C82.1875 432.064 81.1504 432.979 79.8145 432.979C77.7754 432.979 76.457 430.869 76.457 427.547C76.457 424.225 77.7754 422.115 79.8145 422.115C81.1504 422.115 82.1875 423.029 82.7324 424.594H85.2285V421.131H86.5469ZM79.8145 423.416C78.5312 423.416 77.7402 424.998 77.7402 427.547C77.7402 430.078 78.5312 431.678 79.8145 431.66C81.0801 431.678 81.9062 430.078 81.9062 427.547C81.9062 424.998 81.0801 423.416 79.8145 423.416ZM83.0312 425.736C83.1367 426.29 83.1895 426.896 83.1895 427.547C83.1895 428.188 83.1367 428.795 83.0488 429.34H85.2285V425.736H83.0312ZM104.775 420.797V430.113H103.387V426.018H100.24V424.875H103.387V420.797H104.775ZM99.5898 430.605C102.842 430.605 104.828 431.66 104.828 433.506C104.828 435.352 102.842 436.406 99.5898 436.424C96.3379 436.406 94.3516 435.352 94.3516 433.506C94.3516 431.66 96.3379 430.605 99.5898 430.605ZM99.5898 431.678C97.1992 431.678 95.7051 432.363 95.7227 433.506C95.7051 434.631 97.1992 435.316 99.5898 435.316C101.98 435.316 103.457 434.631 103.457 433.506C103.457 432.363 101.98 431.678 99.5898 431.678ZM97.252 423.662C97.252 425.701 98.8164 427.635 101.102 428.426L100.381 429.533C98.623 428.9 97.2607 427.591 96.6016 425.965C95.916 427.802 94.4658 429.27 92.6113 429.973L91.8906 428.865C94.2109 428.021 95.8633 425.912 95.8633 423.68V423.1H92.3301V421.939H100.75V423.1H97.252V423.662ZM116.201 421.535C118.302 421.518 119.893 422.739 120.191 424.541H123.461V420.797H124.85V429.182H123.461V425.684H120.209C119.928 427.529 118.319 428.76 116.201 428.76C113.828 428.76 112.141 427.283 112.141 425.139C112.141 423.012 113.828 421.518 116.201 421.535ZM116.201 422.713C114.602 422.695 113.459 423.697 113.459 425.139C113.459 426.562 114.602 427.6 116.201 427.6C117.783 427.6 118.908 426.562 118.908 425.139C118.908 423.697 117.783 422.695 116.201 422.713ZM116.166 429.973V431.959H123.461V429.973H124.85V436.213H114.777V429.973H116.166ZM116.166 435.088H123.461V433.066H116.166V435.088ZM141.742 429.885V431.027H135.221V436.424H133.867V431.027H127.434V429.885H141.742ZM139.879 421.676V427.758H129.279V421.676H139.879ZM130.633 422.801V426.668H138.508V422.801H130.633Z" fill="#F5F5F5"/>
<path d="M36.2734 476.244C36.2734 478.723 37.4863 481.412 39.5605 482.643L38.7695 483.715C37.2666 482.801 36.1855 481.131 35.6406 479.232C35.0605 481.307 33.9004 483.091 32.3359 484.049L31.457 483.012C33.6191 481.746 34.9375 478.969 34.9375 476.297V473.273H36.2734V476.244ZM45.0273 471.797V487.424H43.6914V471.797H45.0273ZM41.793 472.131V486.633H40.4922V478.582H37.8379V477.404H40.4922V472.131H41.793ZM60.0742 471.814V481.025H58.6855V480.164H55.5215V479.25H58.6855V471.814H60.0742ZM47.1367 477.703C50.1602 477.721 54.0273 477.686 57.4023 477.316L57.4902 478.213C55.9609 478.433 54.3701 478.564 52.8145 478.635V481.078H51.4609V478.688C49.9844 478.74 48.5693 478.749 47.2949 478.74L47.1367 477.703ZM60.0742 481.588V484.822H50.9512V486.229H60.584V487.248H49.5977V483.855H58.7031V482.59H49.5273V481.588H60.0742ZM52.2344 472.113C54.5547 472.113 56.1016 473.027 56.1191 474.469C56.1016 475.928 54.5547 476.807 52.2344 476.807C49.8789 476.807 48.3496 475.928 48.3496 474.469C48.3496 473.027 49.8789 472.113 52.2344 472.113ZM52.2344 473.08C50.6523 473.08 49.6328 473.625 49.6504 474.469C49.6328 475.295 50.6523 475.857 52.2344 475.857C53.7988 475.857 54.8184 475.295 54.8184 474.469C54.8184 473.625 53.7988 473.08 52.2344 473.08ZM73.3105 478.951V480.34H67.7383V478.951H73.3105ZM91.0996 479.637C91.0996 483.662 88.7266 486.176 85.4746 486.176C82.2051 486.176 79.8496 483.662 79.8496 479.637C79.8496 475.611 82.2051 473.098 85.4746 473.098C88.7266 473.098 91.0996 475.611 91.0996 479.637ZM89.5703 479.637C89.5703 476.35 87.7773 474.574 85.4746 474.574C83.1719 474.574 81.3789 476.35 81.3789 479.637C81.3789 482.924 83.1719 484.699 85.4746 484.699C87.7773 484.699 89.5703 482.924 89.5703 479.637ZM102.104 477.281C101.734 475.523 100.223 474.574 98.5527 474.574C96.25 474.574 94.457 476.35 94.457 479.637C94.457 482.924 96.25 484.699 98.5527 484.699C100.223 484.699 101.717 483.75 102.104 482.01H103.686C103.229 484.611 101.137 486.176 98.5527 486.176C95.2832 486.176 92.9277 483.662 92.9277 479.637C92.9277 475.611 95.2832 473.098 98.5527 473.098C101.119 473.098 103.211 474.645 103.686 477.281H102.104ZM105.9 486V473.273H107.482V484.594H113.389V486H105.9ZM124.797 475.998C124.779 478.846 126.73 481.729 129.033 482.766L128.189 483.855C126.414 482.985 124.876 481.148 124.129 478.916C123.399 481.28 121.861 483.249 120.033 484.172L119.154 483.012C121.475 481.939 123.408 478.969 123.426 475.998V473.15H124.797V475.998ZM132.127 471.797V487.459H130.738V471.797H132.127ZM147.016 471.797V476.561H149.371V477.721H147.016V483.328H145.645V471.797H147.016ZM147.736 485.93V487.09H137.242V482.133H138.596V485.93H147.736ZM139.193 472.904C141.531 472.904 143.289 474.486 143.307 476.754C143.289 479.021 141.531 480.604 139.193 480.604C136.855 480.604 135.08 479.021 135.098 476.754C135.08 474.486 136.855 472.904 139.193 472.904ZM139.193 474.117C137.646 474.117 136.434 475.207 136.451 476.754C136.434 478.301 137.646 479.391 139.193 479.391C140.775 479.391 141.953 478.301 141.953 476.754C141.953 475.207 140.775 474.117 139.193 474.117ZM162.713 473.256C162.713 475.453 165.596 477.369 168.408 477.756L167.846 478.881C165.42 478.477 163.021 477.132 162.01 475.207C161.008 477.141 158.6 478.477 156.174 478.881L155.611 477.756C158.424 477.369 161.289 475.488 161.289 473.256V472.359H162.713V473.256ZM169.111 480.604V481.764H162.643V487.424H161.289V481.764H154.873V480.604H169.111ZM183.385 471.797V481.113H181.996V477.018H178.85V475.875H181.996V471.797H183.385ZM178.199 481.605C181.451 481.605 183.438 482.66 183.438 484.506C183.438 486.352 181.451 487.406 178.199 487.424C174.947 487.406 172.961 486.352 172.961 484.506C172.961 482.66 174.947 481.605 178.199 481.605ZM178.199 482.678C175.809 482.678 174.314 483.363 174.332 484.506C174.314 485.631 175.809 486.316 178.199 486.316C180.59 486.316 182.066 485.631 182.066 484.506C182.066 483.363 180.59 482.678 178.199 482.678ZM175.861 474.662C175.861 476.701 177.426 478.635 179.711 479.426L178.99 480.533C177.232 479.9 175.87 478.591 175.211 476.965C174.525 478.802 173.075 480.27 171.221 480.973L170.5 479.865C172.82 479.021 174.473 476.912 174.473 474.68V474.1H170.939V472.939H179.359V474.1H175.861V474.662Z" fill="#F5F5F5"/>
<path d="M44.4297 518.73C43.4453 518.73 42.6367 517.922 42.6367 516.92C42.6367 515.936 43.4453 515.127 44.4297 515.127C45.4316 515.127 46.2402 515.936 46.2402 516.92C46.2402 517.922 45.4316 518.73 44.4297 518.73ZM70.1641 515.637C70.1641 519.662 67.791 522.176 64.5391 522.176C61.2695 522.176 58.9141 519.662 58.9141 515.637C58.9141 511.611 61.2695 509.098 64.5391 509.098C67.791 509.098 70.1641 511.611 70.1641 515.637ZM68.6348 515.637C68.6348 512.35 66.8418 510.574 64.5391 510.574C62.2363 510.574 60.4434 512.35 60.4434 515.637C60.4434 518.924 62.2363 520.699 64.5391 520.699C66.8418 520.699 68.6348 518.924 68.6348 515.637ZM72.4844 522V509.273H76.8086C79.7969 509.273 81.1504 511.049 81.1504 513.316C81.1504 515.566 79.7969 517.377 76.8262 517.377H74.0664V522H72.4844ZM74.0664 515.971H76.7559C78.7773 515.971 79.5859 514.828 79.5859 513.316C79.5859 511.787 78.7773 510.68 76.7383 510.68H74.0664V515.971ZM87.3203 522H83.3652V509.273H87.4785C91.1875 509.273 93.3848 511.664 93.3848 515.619C93.3848 519.592 91.1875 522 87.3203 522ZM84.9473 520.594H87.2148C90.3438 520.594 91.8379 518.713 91.8379 515.619C91.8379 512.543 90.3438 510.68 87.373 510.68H84.9473V520.594ZM102.648 512.473C102.508 511.225 101.365 510.504 99.8359 510.504C98.1484 510.504 97.041 511.383 97.041 512.596C97.041 513.932 98.5352 514.424 99.502 514.67L100.768 515.021C102.139 515.373 104.371 516.164 104.371 518.537C104.371 520.611 102.701 522.229 99.748 522.229C97.0059 522.229 95.3008 520.805 95.1602 518.695H96.7773C96.918 520.119 98.2363 520.787 99.748 520.787C101.506 520.787 102.824 519.891 102.824 518.502C102.824 517.271 101.646 516.797 100.311 516.41L98.7461 515.988C96.7422 515.408 95.5117 514.389 95.5117 512.666C95.5117 510.521 97.4277 509.098 99.8887 509.098C102.35 509.098 104.125 510.539 104.195 512.473H102.648Z" fill="#F5F5F5"/>
<path d="M374.766 521.156C372.516 521.156 370.906 519.953 370.828 518.156H372.25C372.328 519.234 373.406 519.906 374.75 519.906C376.234 519.906 377.328 519.094 377.328 517.922C377.328 516.688 376.344 515.812 374.578 515.812H373.656V514.578H374.578C375.953 514.578 376.906 513.812 376.906 512.641C376.906 511.516 376.078 510.75 374.797 510.75C373.594 510.75 372.484 511.422 372.422 512.531H371.062C371.141 510.734 372.797 509.531 374.812 509.531C376.969 509.531 378.281 510.938 378.266 512.562C378.281 513.844 377.531 514.797 376.344 515.125V515.203C377.812 515.438 378.719 516.484 378.703 517.922C378.719 519.781 377.016 521.156 374.766 521.156ZM384.438 521.156C381.922 521.156 380.484 519.047 380.484 515.344C380.484 511.672 381.953 509.531 384.438 509.531C386.922 509.531 388.391 511.672 388.391 515.344C388.391 519.047 386.938 521.156 384.438 521.156ZM384.438 519.906C386.062 519.906 387.016 518.266 387.016 515.344C387.016 512.422 386.062 510.75 384.438 510.75C382.812 510.75 381.844 512.422 381.844 515.344C381.844 518.266 382.797 519.906 384.438 519.906ZM392.656 514.938C391.188 514.938 390.391 513.844 390.391 512.219C390.391 510.625 391.219 509.516 392.656 509.516C394.141 509.516 394.922 510.625 394.922 512.219C394.922 513.844 394.109 514.938 392.656 514.938ZM392.656 513.969C393.422 513.969 393.781 513.281 393.781 512.219C393.781 511.172 393.453 510.469 392.656 510.484C391.906 510.484 391.531 511.172 391.531 512.219C391.531 513.281 391.906 513.969 392.656 513.969ZM399.562 521.156C398.094 521.172 397.281 520.062 397.297 518.453C397.281 516.844 398.125 515.734 399.562 515.734C401.031 515.734 401.812 516.844 401.812 518.453C401.812 520.062 401 521.172 399.562 521.156ZM399.562 520.188C400.312 520.188 400.672 519.5 400.672 518.453C400.672 517.391 400.344 516.688 399.562 516.703C398.812 516.719 398.422 517.391 398.422 518.453C398.422 519.5 398.797 520.188 399.562 520.188ZM391.5 521L399.281 509.688H400.547L392.766 521H391.5Z" fill="#F5F5F5"/>
<rect x="419" y="513.5" width="100" height="4" rx="2" fill="#22233B"/>
<rect x="419" y="513.5" width="30" height="4" rx="2" fill="#157FD1"/>
<path d="M82.0508 553.176C79.5196 553.176 77.709 551.822 77.6212 549.801H79.2208C79.3087 551.014 80.5215 551.77 82.0333 551.77C83.7032 551.77 84.9337 550.855 84.9337 549.537C84.9337 548.148 83.8262 547.164 81.8399 547.164H80.8028V545.775H81.8399C83.3868 545.775 84.459 544.914 84.459 543.596C84.459 542.33 83.5274 541.469 82.086 541.469C80.7325 541.469 79.4844 542.225 79.4141 543.473H77.8848C77.9727 541.451 79.836 540.098 82.1036 540.098C84.5294 540.098 86.0059 541.68 85.9883 543.508C86.0059 544.949 85.1622 546.021 83.8262 546.391V546.479C85.4786 546.742 86.4981 547.92 86.4805 549.537C86.4981 551.629 84.5821 553.176 82.0508 553.176ZM89.7149 553.105C89.0997 553.105 88.5723 552.596 88.5899 551.963C88.5723 551.348 89.0997 550.838 89.7149 550.838C90.3301 550.838 90.8399 551.348 90.8399 551.963C90.8399 552.596 90.3301 553.105 89.7149 553.105ZM103.273 543.244C103.273 545.723 104.486 548.412 106.561 549.643L105.77 550.715C104.267 549.801 103.186 548.131 102.641 546.232C102.061 548.307 100.9 550.091 99.3359 551.049L98.457 550.012C100.619 548.746 101.938 545.969 101.938 543.297V540.273H103.273V543.244ZM112.027 538.797V554.424H110.691V538.797H112.027ZM108.793 539.131V553.633H107.492V545.582H104.838V544.404H107.492V539.131H108.793ZM128.48 548.078V549.203H121.959V554.424H120.605V549.203H114.172V548.078H128.48ZM117.371 539.447V541.609H125.246V539.447H126.635V546.18H116V539.447H117.371ZM117.371 545.055H125.246V542.734H117.371V545.055ZM143.984 548.254V549.414H137.533V554.459H136.18V549.414H129.746V548.254H143.984ZM137.551 541.891C137.551 543.842 140.275 545.547 143.07 545.934L142.561 547.041C140.144 546.672 137.867 545.459 136.883 543.754C135.881 545.477 133.569 546.672 131.152 547.041L130.643 545.934C133.42 545.547 136.18 543.859 136.18 541.891V541.873H131.135V540.748H136.18V538.797H137.533V540.748H142.613V541.873H137.551V541.891ZM150.928 542.154C150.928 544.264 152.598 546.162 154.936 546.9L154.232 548.008C152.413 547.393 150.963 546.109 150.26 544.457C149.574 546.241 148.106 547.647 146.252 548.324L145.531 547.217C147.869 546.391 149.539 544.369 149.539 542.154V541.24H145.883V540.115H154.531V541.24H150.928V542.154ZM158.205 538.814V550.275H156.834V538.814H158.205ZM158.697 552.93V554.09H148.115V549.186H149.486V552.93H158.697ZM166.098 542.998C166.098 545.758 167.926 548.588 170.141 549.678L169.297 550.785C167.574 549.88 166.133 548.034 165.447 545.863C164.744 548.175 163.268 550.144 161.51 551.084L160.631 549.977C162.916 548.852 164.727 545.846 164.744 542.998V540.15H166.098V542.998ZM172.953 538.797V545.143H175.572V546.338H172.953V554.424H171.582V538.797H172.953ZM188.633 538.797V543.156H190.988V544.334H188.633V548.887H187.262V538.797H188.633ZM183.693 548.992C186.875 548.992 188.809 549.994 188.809 551.699C188.809 553.404 186.875 554.389 183.693 554.389C180.512 554.389 178.561 553.404 178.578 551.699C178.561 549.994 180.512 548.992 183.693 548.992ZM183.693 550.082C181.355 550.082 179.932 550.662 179.949 551.699C179.932 552.719 181.355 553.316 183.693 553.316C186.031 553.316 187.438 552.719 187.438 551.699C187.438 550.662 186.031 550.082 183.693 550.082ZM185.768 540.59V541.68H176.451V540.59H180.424V538.674H181.795V540.59H185.768ZM181.109 542.488C183.359 542.488 184.854 543.578 184.871 545.248C184.854 546.936 183.359 548.008 181.109 548.008C178.842 548.008 177.33 546.936 177.348 545.248C177.33 543.578 178.842 542.488 181.109 542.488ZM181.109 543.525C179.633 543.543 178.648 544.229 178.666 545.248C178.648 546.268 179.633 546.936 181.109 546.936C182.568 546.936 183.553 546.268 183.57 545.248C183.553 544.229 182.568 543.543 181.109 543.525Z" fill="#F5F5F5"/>
</svg>
