<svg width="197" height="60" viewBox="0 0 197 60" fill="none" xmlns="http://www.w3.org/2000/svg">
<path d="M0.0976562 55.1613V0H26.6926C29.7892 0 32.5216 0.539036 34.7075 1.43743C37.0755 2.33582 39.0793 3.77325 40.5365 5.39035C42.1759 7.00746 43.2689 8.98392 43.9975 11.1401C44.7261 13.2962 45.2726 15.632 45.2726 18.1475C45.2726 20.663 44.9083 22.9988 44.1796 25.155C43.451 27.3111 42.3581 29.2876 40.9008 30.9047C39.4436 32.7015 37.622 33.9592 35.254 35.217C33.0681 36.2951 30.3357 37.1934 27.239 37.3731L13.9416 38.9902V52.4661L0.0976562 55.1613ZM24.5067 25.694C26.6926 25.5143 28.332 24.7956 29.6071 23.7176C30.8822 22.6395 31.4287 21.0224 31.4287 18.8662C31.4287 16.8898 30.8822 15.2727 29.6071 14.0149C28.332 12.7572 26.6926 12.2181 24.5067 12.2181H14.1237V26.7721L24.5067 25.694Z" fill="white"/>
<path d="M0.0976562 60.0002V5.80664H14.0581V48.2583L35.452 45.7292V60.0002H0.0976562Z" fill="white"/>
<path d="M81.475 1.93555H95.3582V33.2772C95.3582 36.8591 94.8173 40.2619 93.7355 43.1274C92.6537 45.9929 91.0309 48.5003 89.0476 50.6494C87.0643 52.7985 84.7204 54.2313 81.8356 55.485C78.9508 56.5595 75.8857 57.0968 72.2797 57.0968C68.8539 57.0968 65.6085 56.5595 62.7237 55.485C59.8389 54.4104 57.495 52.7985 55.5117 50.6494C53.5284 48.5003 51.9057 45.9929 50.8239 43.1274C49.7421 40.2619 49.2012 36.8591 49.2012 33.2772V1.93555H63.0843V33.0981C63.0843 34.889 63.2646 36.5009 63.8055 37.9337C64.1661 39.3664 64.8873 40.6201 65.6085 41.6947C66.3297 42.7692 67.4115 43.4856 68.4933 44.202C69.5752 44.7393 70.8373 45.0975 72.2797 45.0975C73.7221 45.0975 74.9842 44.7393 76.066 44.202C77.1478 43.6647 78.2296 42.7692 78.9508 41.6947C79.672 40.6201 80.3932 39.3664 80.7538 37.9337C81.1144 36.5009 81.475 34.889 81.475 33.0981V1.93555Z" fill="white"/>
<path d="M115.814 57.0968V13.974H100.268V1.93555H145.443V14.1537H129.896V54.222L115.814 57.0968Z" fill="white"/>
<path d="M196.511 30.6197C196.511 34.7624 196.148 38.3647 194.875 41.6068C193.783 44.8489 192.147 47.5506 189.964 49.8921C187.782 52.2336 185.418 53.8547 182.326 55.1155C179.416 56.3763 176.143 57.0968 172.505 57.0968C169.05 57.0968 165.776 56.7365 162.685 55.6558C159.775 54.5751 157.047 52.9541 154.865 50.7927C152.682 48.6313 150.864 45.9296 149.591 42.6875C148.318 39.4454 147.59 35.8431 147.59 31.8805L147.408 26.4771C147.408 22.3344 147.772 18.7321 149.045 15.49C150.136 12.2479 151.773 9.54615 153.955 7.20464C156.138 4.86313 158.502 3.24209 161.594 1.98128C164.503 0.720464 167.777 0 171.414 0C174.87 0 178.143 0.540348 181.235 1.62104C184.145 2.70174 186.873 4.32278 189.055 6.48418C191.237 8.64557 193.056 11.3473 194.329 14.5894C195.602 17.8315 196.33 21.4338 196.33 25.3964L196.511 30.6197ZM182.508 25.3964C182.508 21.0736 181.599 17.8315 179.598 15.49C177.779 13.1485 175.233 12.0678 171.96 12.0678C168.868 12.0678 166.322 13.1485 164.322 15.49C162.503 17.8315 161.412 21.0736 161.412 25.3964V31.7004C161.412 35.8431 162.321 39.0852 164.322 41.4267C166.14 43.7682 168.686 45.029 171.96 45.029C175.051 45.029 177.598 43.7682 179.598 41.4267C181.417 39.0852 182.508 35.8431 182.508 31.7004V25.3964Z" fill="white"/>
</svg>
