<svg width="116" height="36" viewBox="0 0 116 36" fill="none" xmlns="http://www.w3.org/2000/svg">
<path d="M0 33V0H15.8952C17.746 0 19.379 0.322476 20.6855 0.859935C22.1008 1.39739 23.2984 2.25733 24.1694 3.22476C25.1492 4.19218 25.8024 5.37459 26.2379 6.6645C26.6734 7.9544 27 9.35179 27 10.8567C27 12.3616 26.7823 13.759 26.3468 15.0489C25.9113 16.3388 25.2581 17.5212 24.3871 18.4886C23.5161 19.5635 22.4274 20.316 21.0121 21.0684C19.7056 21.7134 18.0726 22.2508 16.2218 22.3583L8.2742 23.3257V31.3876L0 33ZM14.5887 15.3713C15.8952 15.2638 16.875 14.8339 17.6371 14.1889C18.3992 13.544 18.7258 12.5765 18.7258 11.2866C18.7258 10.1042 18.3992 9.13681 17.6371 8.38436C16.875 7.63192 15.8952 7.30945 14.5887 7.30945H8.38306V16.0163L14.5887 15.3713Z" fill="#277CC0"/>
<path d="M0 36V4H8.29231V29.0667L21 27.5733V36H0Z" fill="#277CC0"/>
<path d="M47.8789 1H56V19.75C56 21.8929 55.6836 23.9286 55.0508 25.6429C54.418 27.3571 53.4688 28.8571 52.3086 30.1429C51.1484 31.4286 49.7773 32.2857 48.0898 33.0357C46.4023 33.6786 44.6094 34 42.5 34C40.4961 34 38.5977 33.6786 36.9102 33.0357C35.2227 32.3929 33.8516 31.4286 32.6914 30.1429C31.5313 28.8571 30.582 27.3571 29.9492 25.6429C29.3164 23.9286 29 21.8929 29 19.75V1H37.1211V19.6429C37.1211 20.7143 37.2266 21.6786 37.543 22.5357C37.7539 23.3929 38.1758 24.1429 38.5977 24.7857C39.0195 25.4286 39.6523 25.8571 40.2852 26.2857C40.918 26.6071 41.6562 26.8214 42.5 26.8214C43.3437 26.8214 44.082 26.6071 44.7148 26.2857C45.3477 25.9643 45.9805 25.4286 46.4023 24.7857C46.8242 24.1429 47.2461 23.3929 47.457 22.5357C47.668 21.6786 47.8789 20.7143 47.8789 19.6429V1Z" fill="#277CC0"/>
<path d="M68.2915 34V8.20196H59V1H86V8.30945H76.7085V32.2801L68.2915 34Z" fill="#277CC0"/>
<path d="M116 18.2334C116 20.7003 115.785 22.8454 115.033 24.776C114.389 26.7066 113.422 28.3155 112.133 29.7098C110.844 31.1041 109.448 32.0694 107.622 32.8202C105.904 33.571 103.97 34 101.822 34C99.7815 34 97.8481 33.7855 96.0222 33.142C94.3037 32.4984 92.6926 31.5331 91.4037 30.2461C90.1148 28.959 89.0407 27.3502 88.2889 25.4196C87.537 23.489 87.1074 21.3438 87.1074 18.9842L87 15.7666C87 13.2997 87.2148 11.1546 87.9667 9.22397C88.6111 7.29338 89.5778 5.68454 90.8667 4.29022C92.1556 2.8959 93.5518 1.9306 95.3778 1.17981C97.0963 0.429022 99.0296 0 101.178 0C103.219 0 105.152 0.321766 106.978 0.9653C108.696 1.60883 110.307 2.57413 111.596 3.8612C112.885 5.14827 113.959 6.7571 114.711 8.6877C115.463 10.6183 115.893 12.7634 115.893 15.123L116 18.2334ZM107.73 15.123C107.73 12.5489 107.193 10.6183 106.011 9.22397C104.937 7.82965 103.433 7.18612 101.5 7.18612C99.6741 7.18612 98.1704 7.82965 96.9889 9.22397C95.9148 10.6183 95.2704 12.5489 95.2704 15.123V18.877C95.2704 21.3438 95.8074 23.2744 96.9889 24.6688C98.063 26.0631 99.5667 26.8139 101.5 26.8139C103.326 26.8139 104.83 26.0631 106.011 24.6688C107.085 23.2744 107.73 21.3438 107.73 18.877V15.123Z" fill="#277CC0"/>
</svg>
