<svg width="27" height="27" viewBox="0 0 27 27" fill="none" xmlns="http://www.w3.org/2000/svg">
<path d="M11.7586 26H4C2.34315 26 1 24.6569 1 23V5C1 3.34315 2.34315 2 4 2H23.1034C24.7603 2 26.1034 3.34315 26.1034 5V11.5" stroke="white" stroke-width="1.5" stroke-linecap="round"/>
<rect x="19.2678" y="0.336207" width="0.672414" height="3.32759" rx="0.336207" stroke="white" stroke-width="0.672414"/>
<rect x="7.16433" y="0.336207" width="0.672414" height="3.32759" rx="0.336207" stroke="white" stroke-width="0.672414"/>
<path d="M26.2511 19C26.2511 23.0832 23.3007 26.25 19.8287 26.25C16.3566 26.25 13.4062 23.0832 13.4062 19C13.4062 14.9168 16.3566 11.75 19.8287 11.75C23.3007 11.75 26.2511 14.9168 26.2511 19Z" stroke="#4694FF" stroke-width="1.5"/>
<path d="M22.9661 19H20.3281C20.052 19 19.8281 18.7761 19.8281 18.5V14" stroke="#4694FF" stroke-width="1.2" stroke-linecap="round"/>
</svg>
