<svg width="28" height="28" viewBox="0 0 28 28" fill="none" xmlns="http://www.w3.org/2000/svg">
<path d="M14 21.5652V25.913" stroke="white" stroke-width="1.5" stroke-linecap="round"/>
<path d="M7.125 27H21.125" stroke="white" stroke-width="1.5" stroke-linecap="round"/>
<path d="M27 11.2391V18.5652C27 20.222 25.6569 21.5652 24 21.5652H4C2.34315 21.5652 1 20.222 1 18.5652V4.99997C1 3.34311 2.34315 1.99997 4 1.99997H23.75" stroke="white" stroke-width="1.5" stroke-linecap="round"/>
<path d="M6.99935 15.0434C6.99935 15.9695 6.25158 16.7173 5.33268 16.7173C4.41378 16.7173 3.66602 15.9695 3.66602 15.0434C3.66602 14.1174 4.41378 13.3695 5.33268 13.3695C6.25158 13.3695 6.99935 14.1174 6.99935 15.0434Z" stroke="#157FD1"/>
<path d="M11.3333 9.60873C11.3333 10.5348 10.5856 11.2826 9.66667 11.2826C8.74776 11.2826 8 10.5348 8 9.60873C8 8.68268 8.74776 7.93481 9.66667 7.93481C10.5856 7.93481 11.3333 8.68268 11.3333 9.60873Z" stroke="#157FD1"/>
<path d="M16.7493 15.0434C16.7493 15.9695 16.0016 16.7173 15.0827 16.7173C14.1638 16.7173 13.416 15.9695 13.416 15.0434C13.416 14.1174 14.1638 13.3695 15.0827 13.3695C16.0016 13.3695 16.7493 14.1174 16.7493 15.0434Z" stroke="#157FD1"/>
<path d="M24.3333 7.43478C24.3333 8.36083 23.5856 9.10869 22.6667 9.10869C21.7478 9.10869 21 8.36083 21 7.43478C21 6.50873 21.7478 5.76086 22.6667 5.76086C23.5856 5.76086 24.3333 6.50873 24.3333 7.43478Z" stroke="#157FD1"/>
<path d="M6.41602 13.9565L8.58268 10.6957" stroke="#157FD1"/>
<path d="M11.291 10.6957L13.9993 13.9565" stroke="#157FD1"/>
<path d="M16.709 13.9565L21.584 8.52173" stroke="#157FD1"/>
</svg>
