<svg width="684" height="439" viewBox="0 0 684 439" fill="none" xmlns="http://www.w3.org/2000/svg">
<g filter="url(#filter0_f_436_18549)">
<rect x="100" y="100" width="619.652" height="343.084" fill="#157FD1"/>
</g>
<g clip-path="url(#clip0_436_18549)">
<path d="M1224.36 100.32H104.086V730.475H1224.36V100.32Z" fill="#020318"/>
<path d="M869.897 123.656H458.546C451.296 123.656 445.418 129.534 445.418 136.784C445.418 144.035 451.296 149.913 458.546 149.913H869.897C877.148 149.913 883.025 144.035 883.025 136.784C883.025 129.534 877.148 123.656 869.897 123.656Z" fill="#0F1024"/>
<path fill-rule="evenodd" clip-rule="evenodd" d="M468.091 130.98C467.268 130.981 466.456 131.178 465.724 131.555C464.992 131.933 464.361 132.48 463.883 133.151C463.405 133.823 463.095 134.598 462.978 135.414C462.861 136.229 462.941 137.061 463.211 137.839C463.481 138.617 463.933 139.32 464.529 139.888C465.126 140.456 465.85 140.873 466.64 141.105C467.431 141.336 468.266 141.375 469.074 141.219C469.883 141.062 470.643 140.714 471.29 140.204L473.509 142.424C473.624 142.535 473.777 142.596 473.937 142.594C474.096 142.593 474.249 142.529 474.361 142.416C474.474 142.304 474.538 142.151 474.539 141.992C474.54 141.833 474.479 141.679 474.369 141.564L472.149 139.345C472.75 138.583 473.124 137.668 473.228 136.703C473.333 135.739 473.163 134.765 472.74 133.892C472.317 133.019 471.656 132.283 470.834 131.768C470.012 131.253 469.062 130.98 468.091 130.98ZM464.141 136.147C464.141 135.099 464.557 134.094 465.298 133.353C466.039 132.612 467.044 132.196 468.091 132.196C469.139 132.196 470.144 132.612 470.885 133.353C471.626 134.094 472.042 135.099 472.042 136.147C472.042 137.194 471.626 138.199 470.885 138.94C470.144 139.681 469.139 140.097 468.091 140.097C467.044 140.097 466.039 139.681 465.298 138.94C464.557 138.199 464.141 137.194 464.141 136.147Z" fill="#8688A6"/>
<path d="M492.469 133.158C492.466 133.826 492.311 134.434 492.004 134.981C491.7 135.525 491.265 135.995 490.7 136.39C490.135 136.785 489.46 137.093 488.676 137.315L488.375 136.75C489.022 136.567 489.586 136.329 490.067 136.034C490.546 135.739 490.926 135.399 491.206 135.013C491.486 134.627 491.651 134.206 491.703 133.75H488.795V133.158H492.469ZM495.003 137.26H494.283V135.327H492.487V134.726H494.283V132.638H495.003V137.26ZM495.003 140.624H489.743V137.607H495.003V140.624ZM490.435 140.041H494.292V138.181H490.435V140.041ZM498.768 134.215C498.768 134.522 498.835 134.825 498.969 135.122C499.103 135.417 499.294 135.683 499.543 135.92C499.793 136.157 500.087 136.342 500.427 136.476L500.045 137.032C499.668 136.874 499.341 136.655 499.064 136.376C498.788 136.093 498.577 135.77 498.431 135.405C498.276 135.809 498.054 136.172 497.766 136.494C497.477 136.814 497.139 137.06 496.753 137.233L496.362 136.677C496.708 136.525 497.01 136.315 497.268 136.048C497.53 135.777 497.73 135.482 497.871 135.163C498.013 134.841 498.085 134.525 498.085 134.215V133.13H498.768V134.215ZM503.236 137.534H502.552V135.355H501.476V137.488H500.801V132.784H501.476V134.753H502.552V132.638H503.236V137.534ZM503.236 140.734H502.534V138.573H497.774V137.98H503.236V140.734ZM506.599 133.258C506.964 133.261 507.291 133.363 507.58 133.563C507.871 133.764 508.107 134.05 508.286 134.42C508.465 134.791 508.573 135.227 508.61 135.729H510.429V132.629H511.14V140.752H510.429V136.321H508.619C508.592 136.844 508.49 137.3 508.314 137.689C508.137 138.078 507.9 138.377 507.602 138.587C507.308 138.796 506.973 138.901 506.599 138.901C506.204 138.901 505.852 138.786 505.542 138.555C505.235 138.324 504.995 137.996 504.822 137.57C504.652 137.145 504.566 136.649 504.566 136.084C504.566 135.519 504.652 135.024 504.822 134.598C504.995 134.173 505.235 133.844 505.542 133.614C505.849 133.379 506.201 133.261 506.599 133.258ZM506.599 133.896C506.335 133.899 506.1 133.992 505.893 134.174C505.69 134.353 505.532 134.609 505.419 134.94C505.306 135.268 505.25 135.65 505.25 136.084C505.25 136.519 505.306 136.902 505.419 137.233C505.532 137.561 505.69 137.815 505.893 137.994C506.1 138.173 506.335 138.263 506.599 138.263C506.861 138.263 507.094 138.173 507.297 137.994C507.504 137.815 507.663 137.561 507.776 137.233C507.891 136.902 507.949 136.519 507.949 136.084C507.949 135.65 507.891 135.268 507.776 134.94C507.663 134.609 507.505 134.353 507.302 134.174C507.098 133.992 506.864 133.899 506.599 133.896ZM519.901 136.959H512.48V136.394H519.901V136.959ZM518.971 139.33H514.103V140.105H519.236V140.624H513.382V138.837H518.26V138.145H513.374V137.607H518.971V139.33ZM518.944 134.553H514.158V135.264H519.09V135.783H513.446V134.06H518.223V133.395H513.419V132.875H518.944V134.553ZM529.592 136.978H528.881V132.629H529.592V136.978ZM525.052 138.372H528.881V137.388H529.592V140.624H524.341V137.388H525.052V138.372ZM528.881 140.041V138.947H525.052V140.041H528.881ZM525.216 133.03C525.624 133.027 525.988 133.103 526.31 133.258C526.632 133.413 526.884 133.633 527.067 133.919C527.249 134.202 527.34 134.525 527.34 134.89C527.34 135.252 527.249 135.574 527.067 135.856C526.884 136.139 526.632 136.359 526.31 136.517C525.988 136.672 525.624 136.75 525.216 136.75C524.809 136.75 524.444 136.672 524.122 136.517C523.8 136.359 523.548 136.139 523.366 135.856C523.183 135.574 523.092 135.252 523.092 134.89C523.092 134.525 523.183 134.202 523.366 133.919C523.548 133.633 523.8 133.413 524.122 133.258C524.444 133.103 524.809 133.027 525.216 133.03ZM525.216 133.632C524.943 133.629 524.696 133.682 524.478 133.791C524.262 133.898 524.093 134.047 523.972 134.238C523.85 134.429 523.791 134.647 523.794 134.89C523.791 135.133 523.85 135.352 523.972 135.546C524.093 135.738 524.262 135.888 524.478 135.998C524.696 136.104 524.943 136.157 525.216 136.157C525.486 136.157 525.73 136.104 525.946 135.998C526.162 135.888 526.33 135.738 526.452 135.546C526.576 135.352 526.638 135.133 526.638 134.89C526.638 134.647 526.576 134.429 526.452 134.238C526.33 134.047 526.162 133.898 525.946 133.791C525.73 133.682 525.486 133.629 525.216 133.632ZM534.816 135.4H532.027V136.659C532.85 136.659 533.486 136.646 533.936 136.622C534.386 136.598 534.837 136.543 535.29 136.458L535.363 137.051C534.88 137.13 534.397 137.181 533.914 137.206C533.433 137.23 532.759 137.242 531.89 137.242H531.315V134.853H534.105V133.705H531.297V133.13H534.816V135.4ZM537.688 137.616H536.968V136.112H535.354V135.519H536.968V134.425H535.354V133.841H536.968V132.638H537.688V137.616ZM537.688 140.752H536.968V138.637H532.227V138.053H537.688V140.752ZM545.309 135.975H546.668V136.567H545.309V140.734H544.598V132.629H545.309V135.975ZM543.815 134.525H538.992V133.933H541.079V132.729H541.791V133.933H543.815V134.525ZM541.444 135.2C541.824 135.2 542.165 135.279 542.465 135.437C542.766 135.595 543.001 135.815 543.172 136.098C543.342 136.38 543.428 136.701 543.431 137.06C543.428 137.418 543.342 137.739 543.172 138.022C543.001 138.304 542.766 138.524 542.465 138.682C542.165 138.84 541.824 138.919 541.444 138.919C541.061 138.919 540.718 138.84 540.414 138.682C540.113 138.524 539.877 138.304 539.708 138.022C539.537 137.739 539.454 137.418 539.457 137.06C539.454 136.701 539.537 136.38 539.708 136.098C539.877 135.815 540.113 135.595 540.414 135.437C540.718 135.279 541.061 135.2 541.444 135.2ZM541.444 135.802C541.195 135.802 540.97 135.856 540.769 135.966C540.572 136.072 540.417 136.221 540.304 136.412C540.192 136.604 540.138 136.82 540.14 137.06C540.138 137.303 540.192 137.52 540.304 137.712C540.417 137.9 540.572 138.047 540.769 138.154C540.97 138.26 541.195 138.312 541.444 138.309C541.69 138.312 541.912 138.26 542.11 138.154C542.307 138.047 542.462 137.9 542.575 137.712C542.687 137.52 542.745 137.303 542.748 137.06C542.745 136.82 542.687 136.604 542.575 136.412C542.462 136.221 542.307 136.072 542.11 135.966C541.912 135.856 541.69 135.802 541.444 135.802ZM549.512 134.935C549.512 135.367 549.581 135.799 549.718 136.23C549.854 136.662 550.05 137.055 550.306 137.411C550.564 137.766 550.868 138.047 551.217 138.254L550.807 138.81C550.427 138.579 550.098 138.262 549.818 137.857C549.541 137.45 549.328 136.993 549.18 136.485C549.028 137.032 548.805 137.525 548.51 137.962C548.215 138.4 547.869 138.74 547.47 138.983L547.014 138.445C547.379 138.233 547.698 137.942 547.972 137.575C548.245 137.204 548.455 136.792 548.601 136.339C548.747 135.884 548.82 135.425 548.82 134.963V133.395H549.512V134.935ZM554.053 140.734H553.36V132.629H554.053V140.734ZM552.375 140.324H551.7V136.148H550.324V135.537H551.7V132.802H552.375V140.324ZM562.595 139.694H555.174V139.093H557.016V136.905C556.663 136.722 556.39 136.488 556.195 136.203C556.001 135.914 555.903 135.589 555.903 135.227C555.903 134.814 556.03 134.451 556.282 134.138C556.534 133.822 556.883 133.577 557.33 133.404C557.78 133.231 558.292 133.142 558.867 133.139C559.441 133.142 559.951 133.231 560.398 133.404C560.847 133.577 561.199 133.822 561.451 134.138C561.703 134.451 561.829 134.814 561.829 135.227C561.829 135.583 561.735 135.903 561.546 136.189C561.358 136.472 561.094 136.704 560.754 136.886V139.093H562.595V139.694ZM558.867 133.732C558.425 133.729 558.034 133.79 557.69 133.914C557.347 134.039 557.078 134.215 556.883 134.443C556.692 134.668 556.596 134.929 556.596 135.227C556.596 135.525 556.692 135.789 556.883 136.02C557.078 136.248 557.347 136.426 557.69 136.554C558.034 136.678 558.425 136.741 558.867 136.741C559.304 136.741 559.695 136.677 560.038 136.549C560.381 136.422 560.65 136.244 560.845 136.016C561.039 135.788 561.136 135.525 561.136 135.227C561.136 134.929 561.039 134.668 560.845 134.443C560.65 134.215 560.381 134.039 560.038 133.914C559.695 133.79 559.304 133.729 558.867 133.732ZM560.034 139.093V137.165C559.672 137.259 559.283 137.306 558.867 137.306C558.447 137.306 558.064 137.26 557.718 137.169V139.093H560.034Z" fill="#8688A6"/>
<path d="M104.086 193.676H149.014C153.847 193.676 157.766 197.594 157.766 202.428V677.961C157.766 682.795 153.847 686.715 149.014 686.715H104.086V193.676Z" fill="#0F1024"/>
<path d="M130.927 249.882C137.372 249.882 142.597 244.657 142.597 238.213C142.597 231.768 137.372 226.543 130.927 226.543C124.482 226.543 119.258 231.768 119.258 238.213C119.258 244.657 124.482 249.882 130.927 249.882Z" fill="#22233B"/>
<g filter="url(#filter1_f_436_18549)">
<path fill-rule="evenodd" clip-rule="evenodd" d="M129.565 225.388C122.854 225.693 117.507 231.231 117.507 238.017C117.507 244.804 122.854 250.341 129.565 250.646C129.372 250.655 129.177 250.659 128.982 250.659C122 250.659 116.34 244.999 116.34 238.017C116.34 231.035 122 225.375 128.982 225.375C129.177 225.375 129.372 225.38 129.565 225.388Z" fill="#157FD1"/>
</g>
<g filter="url(#filter2_f_436_18549)">
<path d="M116.921 239.381C117.565 239.381 118.088 238.858 118.088 238.214C118.088 237.569 117.565 237.047 116.921 237.047C116.276 237.047 115.754 237.569 115.754 238.214C115.754 238.858 116.276 239.381 116.921 239.381Z" fill="#F5F5F5"/>
</g>
<path d="M123.926 235.732V244.046C123.926 244.368 124.187 244.63 124.509 244.63H137.346C137.668 244.63 137.929 244.368 137.929 244.046V235.732C137.929 235.563 137.855 235.4 137.726 235.29L131.307 229.785C131.089 229.598 130.766 229.598 130.548 229.785L124.129 235.29C124 235.4 123.926 235.563 123.926 235.732Z" fill="#22233B"/>
<path d="M128.302 244.314V237.944C128.302 237.622 128.563 237.361 128.885 237.361H133.261C133.584 237.361 133.845 237.622 133.845 237.944V244.314M137.929 244.046V235.732C137.929 235.563 137.855 235.4 137.726 235.29L131.307 229.785C131.089 229.598 130.766 229.598 130.548 229.785L124.129 235.29C124 235.4 123.926 235.563 123.926 235.732V244.046C123.926 244.368 124.187 244.63 124.509 244.63H137.346C137.668 244.63 137.929 244.368 137.929 244.046Z" stroke="#F5F5F5" stroke-width="1.5" stroke-linecap="round" stroke-linejoin="round"/>
<path d="M139.095 283.238H122.758V299.576H139.095V283.238Z" fill="#0F1024"/>
<path d="M130.926 295.824V298.361" stroke="#888888" stroke-width="1.5" stroke-linecap="round"/>
<path d="M126.914 298.992H135.083" stroke="#888888" stroke-width="1.5" stroke-linecap="round"/>
<path d="M138.51 289.797V294.072C138.51 295.038 137.727 295.822 136.76 295.822H125.09C124.124 295.822 123.34 295.038 123.34 294.072V286.157C123.34 285.19 124.124 284.406 125.09 284.406H136.614" stroke="#888888" stroke-width="1.5" stroke-linecap="round"/>
<path d="M126.843 292.016C126.843 292.556 126.407 292.993 125.871 292.993C125.335 292.993 124.898 292.556 124.898 292.016C124.898 291.476 125.335 291.039 125.871 291.039C126.407 291.039 126.843 291.476 126.843 292.016Z" stroke="#157FD1"/>
<path d="M129.371 288.844C129.371 289.384 128.934 289.821 128.398 289.821C127.862 289.821 127.426 289.384 127.426 288.844C127.426 288.304 127.862 287.867 128.398 287.867C128.934 287.867 129.371 288.304 129.371 288.844Z" stroke="#157FD1"/>
<path d="M132.531 292.016C132.531 292.556 132.095 292.993 131.558 292.993C131.022 292.993 130.586 292.556 130.586 292.016C130.586 291.476 131.022 291.039 131.558 291.039C132.095 291.039 132.531 291.476 132.531 292.016Z" stroke="#157FD1"/>
<path d="M136.957 287.578C136.957 288.119 136.52 288.554 135.984 288.554C135.448 288.554 135.012 288.119 135.012 287.578C135.012 287.037 135.448 286.602 135.984 286.602C136.52 286.602 136.957 287.037 136.957 287.578Z" stroke="#157FD1"/>
<path d="M126.5 291.383L127.764 289.48" stroke="#157FD1"/>
<path d="M129.348 289.48L130.928 291.383" stroke="#157FD1"/>
<path d="M132.504 291.382L135.348 288.211" stroke="#157FD1"/>
<path d="M139.095 337.504H122.758V353.841H139.095V337.504Z" fill="#0F1024"/>
<path d="M129.758 344.617H130.633C130.955 344.617 131.217 344.879 131.217 345.201V348.702" stroke="#157FD1" stroke-width="1.5" stroke-linecap="round" stroke-linejoin="round"/>
<path d="M133.064 353.371H125.09C124.124 353.371 123.34 352.587 123.34 351.62V341.118C123.34 340.151 124.124 339.367 125.09 339.367H136.176C137.143 339.367 137.927 340.151 137.927 341.118V348.804" stroke="#888888" stroke-width="1.5" stroke-linecap="round"/>
<path d="M134.392 338.477C134.392 338.369 134.305 338.281 134.196 338.281C134.088 338.281 134 338.369 134 338.477V340.027C134 340.135 134.088 340.223 134.196 340.223C134.305 340.223 134.392 340.135 134.392 340.027V338.477Z" stroke="#888888" stroke-width="0.672414"/>
<path d="M127.912 338.477C127.912 338.369 127.824 338.281 127.716 338.281C127.607 338.281 127.52 338.369 127.52 338.477V340.027C127.52 340.135 127.607 340.223 127.716 340.223C127.824 340.223 127.912 340.135 127.912 340.027V338.477Z" stroke="#888888" stroke-width="0.672414"/>
<path d="M139.095 391.766H122.758V408.103H139.095V391.766Z" fill="#0F1024"/>
<path d="M138.51 402.832V394.684C138.51 393.717 137.727 392.934 136.76 392.934H125.09C124.124 392.934 123.34 393.717 123.34 394.684V405.77C123.34 406.737 124.124 407.521 125.09 407.521H133.634" stroke="#888888" stroke-width="1.5" stroke-linecap="round"/>
<path d="M136.178 396.359H125.676C125.555 396.359 125.457 396.457 125.457 396.578C125.457 396.699 125.555 396.797 125.676 396.797H136.178C136.299 396.797 136.397 396.699 136.397 396.578C136.397 396.457 136.299 396.359 136.178 396.359Z" fill="#157FD1" stroke="#157FD1" stroke-width="0.75"/>
<path d="M136.178 399.57H125.676C125.555 399.57 125.457 399.668 125.457 399.789C125.457 399.91 125.555 400.008 125.676 400.008H136.178C136.299 400.008 136.397 399.91 136.397 399.789C136.397 399.668 136.299 399.57 136.178 399.57Z" fill="#157FD1" stroke="#157FD1" stroke-width="0.75"/>
<path d="M130.577 402.777H125.676C125.555 402.777 125.457 402.875 125.457 402.996C125.457 403.117 125.555 403.215 125.676 403.215H130.577C130.698 403.215 130.796 403.117 130.796 402.996C130.796 402.875 130.698 402.777 130.577 402.777Z" fill="#157FD1" stroke="#157FD1" stroke-width="0.75"/>
<path d="M309.47 193.676H169.436C164.602 193.676 160.684 197.594 160.684 202.428V677.961C160.684 682.795 164.602 686.714 169.436 686.714H309.47C314.304 686.714 318.222 682.795 318.222 677.961V202.428C318.222 197.594 314.304 193.676 309.47 193.676Z" fill="#0F1024"/>
<path d="M294.883 217.016H184.022C180.8 217.016 178.188 219.628 178.188 222.85V240.355C178.188 243.577 180.8 246.189 184.022 246.189H294.883C298.105 246.189 300.718 243.577 300.718 240.355V222.85C300.718 219.628 298.105 217.016 294.883 217.016Z" fill="#157FD1"/>
<path d="M217.395 235.876H216.575V227.707H217.395V235.876ZM215.672 235.475H214.852V231.682H213.256C212.746 232.672 211.94 233.49 210.84 234.135L210.348 233.514C211.199 233.01 211.844 232.417 212.285 231.737C212.729 231.056 212.987 230.287 213.06 229.43H210.73V228.719H213.921C213.916 229.558 213.794 230.315 213.557 230.989H214.852V227.916H215.672V235.475ZM221.443 229.786C221.44 230.278 221.529 230.763 221.712 231.24C221.897 231.714 222.154 232.136 222.482 232.507C222.814 232.878 223.187 233.156 223.604 233.341L223.084 234.025C222.619 233.803 222.207 233.476 221.849 233.045C221.49 232.611 221.214 232.112 221.019 231.55C220.827 232.154 220.548 232.689 220.18 233.154C219.816 233.619 219.392 233.97 218.908 234.208L218.38 233.478C218.802 233.29 219.179 233.004 219.51 232.621C219.844 232.238 220.105 231.799 220.29 231.304C220.475 230.805 220.568 230.299 220.568 229.786V228.391H221.443V229.786ZM225.208 235.894H224.342V227.707H225.208V235.894ZM233.04 228.592C233.04 228.977 233.029 229.329 233.008 229.644C232.989 229.96 232.942 230.315 232.866 230.707H233.988V231.399H226.512V230.707H231.996C232.072 230.333 232.122 229.993 232.146 229.686C232.17 229.379 232.183 229.065 232.183 228.746H227.451V228.054H233.04V228.592ZM233.048 234.271H228.262V235.101H233.258V235.793H227.396V233.605H232.192V232.822H227.387V232.129H233.048V234.271ZM239.358 229.275C239.358 229.576 239.42 229.871 239.544 230.159C239.672 230.445 239.859 230.703 240.105 230.934C240.351 231.162 240.646 231.342 240.99 231.472L240.534 232.138C240.163 231.995 239.842 231.793 239.572 231.532C239.304 231.27 239.094 230.966 238.943 230.62C238.787 231.012 238.57 231.361 238.291 231.668C238.011 231.975 237.68 232.211 237.297 232.375L236.823 231.7C237.179 231.545 237.484 231.337 237.739 231.075C237.995 230.811 238.188 230.523 238.318 230.21C238.452 229.897 238.518 229.585 238.518 229.275V228.218H239.358V229.275ZM243.825 232.74H243.004V230.551H242.047V232.484H241.245V227.862H242.047V229.84H243.004V227.716H243.825V232.74ZM241.09 232.895C241.655 232.895 242.146 232.954 242.562 233.072C242.979 233.191 243.299 233.363 243.524 233.587C243.752 233.809 243.867 234.073 243.87 234.38C243.867 234.688 243.752 234.952 243.524 235.174C243.299 235.398 242.979 235.569 242.562 235.684C242.146 235.803 241.655 235.861 241.09 235.858C240.524 235.861 240.034 235.803 239.617 235.684C239.201 235.569 238.88 235.398 238.656 235.174C238.434 234.952 238.324 234.688 238.327 234.38C238.324 234.073 238.434 233.809 238.656 233.587C238.88 233.363 239.201 233.191 239.617 233.072C240.034 232.954 240.524 232.895 241.09 232.895ZM241.09 233.56C240.695 233.56 240.353 233.594 240.064 233.66C239.778 233.724 239.559 233.818 239.408 233.943C239.255 234.065 239.181 234.21 239.184 234.38C239.181 234.551 239.255 234.698 239.408 234.823C239.559 234.944 239.78 235.037 240.069 235.101C240.357 235.164 240.698 235.195 241.09 235.192C241.482 235.195 241.82 235.164 242.106 235.101C242.395 235.037 242.615 234.944 242.767 234.823C242.922 234.701 243.001 234.554 243.004 234.38C243.001 234.122 242.829 233.922 242.489 233.779C242.152 233.633 241.686 233.56 241.09 233.56ZM247.827 228.929C247.827 229.312 247.906 229.675 248.064 230.018C248.222 230.358 248.45 230.658 248.748 230.916C249.046 231.175 249.398 231.369 249.805 231.5L249.331 232.174C248.887 232.013 248.502 231.782 248.173 231.482C247.848 231.178 247.596 230.819 247.417 230.406C247.237 230.876 246.971 231.287 246.619 231.636C246.269 231.983 245.852 232.244 245.366 232.42L244.901 231.728C245.329 231.582 245.698 231.371 246.008 231.094C246.318 230.818 246.555 230.497 246.719 230.132C246.883 229.764 246.967 229.375 246.97 228.965V228.163H247.827V228.929ZM251.738 232.53H250.872V230.078H249.149V229.366H250.872V227.707H251.738V232.53ZM249.003 232.758C249.574 232.758 250.067 232.818 250.48 232.94C250.893 233.062 251.211 233.24 251.433 233.474C251.654 233.708 251.766 233.989 251.766 234.317C251.766 234.642 251.654 234.92 251.433 235.151C251.211 235.385 250.892 235.561 250.476 235.68C250.062 235.801 249.571 235.861 249.003 235.858C248.432 235.861 247.938 235.801 247.522 235.68C247.108 235.561 246.791 235.385 246.569 235.151C246.347 234.92 246.238 234.642 246.241 234.317C246.238 233.989 246.347 233.708 246.569 233.474C246.791 233.24 247.108 233.062 247.522 232.94C247.938 232.818 248.432 232.758 249.003 232.758ZM249.003 233.433C248.404 233.433 247.936 233.51 247.599 233.665C247.265 233.817 247.098 234.034 247.098 234.317C247.098 234.59 247.265 234.802 247.599 234.95C247.936 235.099 248.404 235.174 249.003 235.174C249.602 235.174 250.068 235.099 250.403 234.95C250.74 234.802 250.909 234.59 250.909 234.317C250.909 234.034 250.74 233.817 250.403 233.665C250.068 233.51 249.602 233.433 249.003 233.433ZM259.36 231.017H260.673V231.737H259.36V235.876H258.503V227.707H259.36V231.017ZM257.792 229.694H252.951V228.983H254.966V227.816H255.831V228.983H257.792V229.694ZM255.403 230.296C255.789 230.296 256.135 230.377 256.442 230.538C256.749 230.699 256.991 230.924 257.167 231.213C257.343 231.501 257.433 231.828 257.436 232.192C257.433 232.56 257.343 232.888 257.167 233.177C256.991 233.466 256.749 233.691 256.442 233.852C256.135 234.013 255.789 234.095 255.403 234.098C255.014 234.095 254.664 234.013 254.355 233.852C254.048 233.691 253.806 233.466 253.63 233.177C253.457 232.888 253.37 232.56 253.37 232.192C253.37 231.828 253.457 231.501 253.63 231.213C253.806 230.924 254.048 230.699 254.355 230.538C254.664 230.377 255.014 230.296 255.403 230.296ZM255.403 231.007C255.175 231.007 254.968 231.057 254.783 231.158C254.598 231.258 254.453 231.398 254.35 231.577C254.247 231.756 254.197 231.962 254.199 232.192C254.197 232.427 254.247 232.633 254.35 232.812C254.453 232.992 254.596 233.13 254.779 233.227C254.964 233.325 255.172 233.371 255.403 233.369C255.631 233.371 255.836 233.325 256.019 233.227C256.204 233.13 256.348 232.992 256.452 232.812C256.555 232.633 256.606 232.427 256.606 232.192C256.606 231.962 256.555 231.756 256.452 231.577C256.348 231.398 256.204 231.258 256.019 231.158C255.836 231.057 255.631 231.007 255.403 231.007ZM267.857 235.876H266.982V227.707H267.857V235.876ZM265.423 228.582C265.423 229.847 265.12 230.971 264.515 231.955C263.914 232.937 262.943 233.748 261.603 234.39L261.147 233.688C262.219 233.177 263.032 232.556 263.585 231.823C264.141 231.091 264.462 230.242 264.547 229.275H261.539V228.582H265.423Z" fill="white"/>
<path d="M304.219 205.928C304.219 203.672 306.047 201.844 308.303 201.844H318.222V217.014H308.303C306.047 217.014 304.219 215.186 304.219 212.93V205.928Z" fill="#22233B"/>
<path d="M310.639 211.762L308.305 209.428L310.639 207.094" stroke="#8688A6" stroke-width="1.5" stroke-linecap="round" stroke-linejoin="round"/>
<path d="M314.139 211.762L311.805 209.428L314.139 207.094" stroke="#8688A6" stroke-width="1.5" stroke-linecap="round" stroke-linejoin="round"/>
<path d="M185.964 273.948H178.488V273.219H185.964V273.948ZM185.28 268.296H184.031V271.022H185.253V271.715H179.145V271.022H180.366V268.296H179.126V267.585H185.28V268.296ZM183.183 271.022V268.296H181.223V271.022H183.183ZM194.032 273.994H186.557V273.265H189.847V271.833H187.468V269.235H192.264V268.086H187.45V267.375H193.121V269.928H188.325V271.122H193.312V271.833H190.705V273.265H194.032V273.994ZM199.985 271.724H199.165V269.582H198.025V268.88H199.165V266.974H199.985V271.724ZM197.095 268.551C197.095 268.852 197.155 269.147 197.273 269.436C197.395 269.724 197.574 269.987 197.811 270.224C198.048 270.458 198.335 270.645 198.672 270.785L198.235 271.451C197.874 271.302 197.563 271.095 197.305 270.83C197.047 270.563 196.843 270.256 196.695 269.91C196.542 270.299 196.33 270.642 196.056 270.94C195.785 271.238 195.458 271.469 195.072 271.633L194.607 270.949C194.956 270.809 195.256 270.611 195.505 270.356C195.754 270.101 195.941 269.817 196.066 269.504C196.193 269.191 196.257 268.873 196.257 268.551V268.15H194.807V267.448H198.463V268.15H197.095V268.551ZM201.59 271.788H200.77V266.801H201.59V271.788ZM201.59 274.969H200.733V272.827H196.038V272.125H201.59V274.969ZM209.321 271.843H203.632V267.475H209.239V268.177H204.507V269.281H209.066V269.964H204.507V271.149H209.321V271.843ZM210.169 273.939H202.693V273.228H210.169V273.939ZM220.517 273.958H213.041V273.237H216.332V271.56H213.898V267.357H214.764V268.761H218.775V267.357H219.632V271.56H217.189V273.237H220.517V273.958ZM218.775 270.858V269.463H214.764V270.858H218.775ZM227.901 274.969H227.026V266.801H227.901V274.969ZM225.467 267.676C225.467 268.94 225.165 270.065 224.56 271.049C223.958 272.031 222.987 272.842 221.647 273.483L221.191 272.781C222.264 272.271 223.077 271.649 223.63 270.917C224.186 270.184 224.507 269.335 224.592 268.369H221.583V267.676H225.467Z" fill="white"/>
<path fill-rule="evenodd" clip-rule="evenodd" d="M292.718 272.856C292.946 273.085 293.315 273.085 293.543 272.856L296.631 269.768L299.72 272.856C299.947 273.085 300.317 273.085 300.545 272.856C300.773 272.628 300.773 272.259 300.545 272.031L297.044 268.53C296.816 268.302 296.446 268.302 296.219 268.53L292.718 272.031C292.49 272.259 292.49 272.628 292.718 272.856Z" fill="#F5F5F5"/>
<path d="M192.773 288.327H189.342C189.192 288.327 189.048 288.269 188.939 288.165L188.531 287.775C188.422 287.671 188.278 287.613 188.128 287.613H185.771C185.449 287.613 185.188 287.875 185.188 288.197V292.865C185.188 293.187 185.449 293.448 185.771 293.448H192.773C193.095 293.448 193.356 293.187 193.356 292.865V288.91C193.356 288.588 193.095 288.327 192.773 288.327Z" stroke="#F5F5F5" stroke-opacity="0.5" stroke-width="1.5" stroke-linecap="round" stroke-linejoin="round"/>
<path d="M205.857 294.772H205.155V290.579H203.988V294.354H203.313V286.85H203.988V289.968H205.155V286.668H205.857V294.772ZM200.058 292.038C200.511 292.032 200.952 292.01 201.38 291.974C201.809 291.934 202.253 291.867 202.711 291.773L202.803 292.412C202.265 292.506 201.757 292.574 201.28 292.617C200.803 292.656 200.326 292.676 199.849 292.676H199.348V287.662H200.058V292.038ZM216.77 293.733H209.348V293.122H216.77V293.733ZM216.058 288.081H214.773V290.916H216.04V291.5H210.023V290.916H211.29V288.081H210.005V287.488H216.058V288.081ZM214.071 290.916V288.081H212.002V290.916H214.071ZM224.838 293.77H217.417V293.168H220.754V291.637H218.347V289.138H223.197V287.862H218.329V287.27H223.899V289.722H219.058V291.044H224.091V291.637H221.456V293.168H224.838V293.77ZM230.791 291.555H230.099V289.357H228.859V288.765H230.099V286.85H230.791V291.555ZM227.883 288.409C227.883 288.707 227.947 289.005 228.075 289.303C228.205 289.598 228.392 289.867 228.635 290.109C228.881 290.35 229.171 290.539 229.506 290.679L229.132 291.226C228.761 291.071 228.442 290.853 228.175 290.57C227.908 290.287 227.702 289.965 227.559 289.603C227.413 290.011 227.199 290.374 226.917 290.693C226.634 291.009 226.297 291.254 225.905 291.427L225.522 290.861C225.866 290.716 226.163 290.514 226.415 290.255C226.668 289.994 226.859 289.702 226.99 289.38C227.123 289.058 227.19 288.735 227.19 288.409V287.926H225.677V287.333H229.314V287.926H227.883V288.409ZM232.368 291.628H231.685V286.668H232.368V291.628ZM232.368 294.772H231.666V292.566H226.908V291.983H232.368V294.772ZM240.118 291.637H234.511V287.37H240.026V287.971H235.24V289.175H239.854V289.749H235.24V291.053H240.118V291.637ZM240.975 293.715H233.554V293.122H240.975V293.715Z" fill="white" fill-opacity="0.5"/>
<path d="M192.773 308.167H189.342C189.192 308.167 189.048 308.108 188.939 308.005L188.531 307.615C188.422 307.511 188.278 307.453 188.128 307.453H185.771C185.449 307.453 185.188 307.715 185.188 308.037V312.704C185.188 313.026 185.449 313.288 185.771 313.288H192.773C193.095 313.288 193.356 313.026 193.356 312.704V308.75C193.356 308.428 193.095 308.167 192.773 308.167Z" stroke="#F5F5F5" stroke-opacity="0.5" stroke-width="1.5" stroke-linecap="round" stroke-linejoin="round"/>
<path d="M205.585 314.608H204.873V306.504H205.585V314.608ZM198.984 312.448C199.996 312.442 200.765 312.431 201.291 312.416V311.527C200.969 311.494 200.686 311.412 200.443 311.281C200.203 311.15 200.017 310.982 199.887 310.775C199.756 310.565 199.692 310.327 199.695 310.06C199.692 309.759 199.771 309.495 199.933 309.271C200.094 309.043 200.321 308.866 200.616 308.742C200.911 308.617 201.251 308.555 201.637 308.555C202.023 308.555 202.363 308.617 202.659 308.742C202.956 308.866 203.187 309.043 203.351 309.271C203.515 309.495 203.597 309.759 203.597 310.06C203.597 310.324 203.532 310.561 203.401 310.77C203.271 310.977 203.085 311.146 202.845 311.277C202.608 311.404 202.33 311.486 202.011 311.522V312.389C202.893 312.349 203.667 312.284 204.335 312.193L204.39 312.74C203.585 312.87 202.748 312.957 201.879 313C201.01 313.039 200.081 313.059 199.093 313.059L198.984 312.448ZM204.126 308.09H199.158V307.507H201.291V306.513H202.011V307.507H204.126V308.09ZM201.637 309.111C201.391 309.111 201.171 309.151 200.976 309.23C200.781 309.309 200.63 309.421 200.52 309.567C200.414 309.71 200.361 309.874 200.361 310.06C200.361 310.245 200.414 310.407 200.52 310.547C200.63 310.687 200.781 310.795 200.976 310.871C201.171 310.947 201.391 310.983 201.637 310.98C201.887 310.983 202.107 310.948 202.298 310.875C202.493 310.799 202.643 310.692 202.75 310.551C202.859 310.409 202.914 310.245 202.914 310.06C202.914 309.874 202.859 309.71 202.75 309.567C202.643 309.421 202.493 309.309 202.298 309.23C202.107 309.151 201.887 309.111 201.637 309.111ZM209.724 308.683C209.724 309.148 209.818 309.613 210.006 310.078C210.195 310.54 210.449 310.953 210.768 311.318C211.09 311.682 211.441 311.959 211.821 312.147L211.383 312.721C210.936 312.487 210.535 312.144 210.18 311.691C209.827 311.238 209.561 310.731 209.382 310.169C209.203 310.767 208.932 311.308 208.57 311.791C208.209 312.272 207.8 312.633 207.344 312.877L206.889 312.302C207.28 312.111 207.637 311.823 207.959 311.441C208.285 311.054 208.542 310.62 208.73 310.137C208.922 309.651 209.019 309.166 209.022 308.683V307.206H209.724V308.683ZM213.28 309.795H214.638V310.415H213.28V314.608H212.568V306.504H213.28V309.795ZM221.785 310.743H221.074V309.704H219.16V310.415H215.486V306.887H216.197V308.054H218.458V306.887H219.16V307.671H221.074V306.504H221.785V310.743ZM221.785 313.041H217.264V313.925H222.095V314.499H216.552V312.494H221.074V311.71H216.534V311.135H221.785V313.041ZM218.458 309.831V308.619H216.197V309.831H218.458ZM221.074 309.139V308.227H219.16V309.139H221.074Z" fill="white" fill-opacity="0.5"/>
<path fill-rule="evenodd" clip-rule="evenodd" d="M296.219 308.206C296.446 307.978 296.816 307.978 297.044 308.206L300.545 311.707C300.773 311.935 300.773 312.304 300.545 312.532C300.317 312.76 299.947 312.76 299.72 312.532L296.631 309.444L293.543 312.532C293.315 312.76 292.946 312.76 292.718 312.532C292.49 312.304 292.49 311.935 292.718 311.707L296.219 308.206Z" fill="#6F707C"/>
<path d="M198.027 323.207V360.55" stroke="#888888" stroke-opacity="0.3" stroke-linecap="round"/>
<path d="M206.359 336.042L208.776 329.441H209.641L212.058 336.042H211.191L210.531 334.182H207.878L207.216 336.042H206.359ZM210.28 333.462L209.231 330.508H209.176L208.128 333.462H210.28ZM219.196 336.78H218.485V328.676H219.196V336.78ZM212.596 334.62C213.607 334.614 214.376 334.603 214.902 334.588V333.699C214.58 333.666 214.297 333.583 214.054 333.453C213.814 333.322 213.629 333.153 213.498 332.947C213.368 332.737 213.303 332.499 213.307 332.231C213.303 331.93 213.383 331.667 213.544 331.443C213.705 331.214 213.932 331.038 214.228 330.914C214.522 330.789 214.862 330.727 215.249 330.727C215.634 330.727 215.974 330.789 216.27 330.914C216.567 331.038 216.798 331.214 216.962 331.443C217.126 331.667 217.209 331.93 217.209 332.231C217.209 332.496 217.143 332.733 217.012 332.942C216.882 333.149 216.696 333.318 216.456 333.449C216.22 333.576 215.941 333.658 215.622 333.694V334.561C216.504 334.521 217.279 334.456 217.947 334.365L218.001 334.911C217.196 335.042 216.359 335.129 215.49 335.172C214.621 335.211 213.693 335.231 212.705 335.231L212.596 334.62ZM217.737 330.262H212.769V329.679H214.902V328.685H215.622V329.679H217.737V330.262ZM215.249 331.283C215.002 331.283 214.782 331.322 214.588 331.402C214.393 331.481 214.241 331.593 214.132 331.739C214.025 331.882 213.972 332.046 213.972 332.231C213.972 332.416 214.025 332.579 214.132 332.719C214.241 332.859 214.393 332.967 214.588 333.043C214.782 333.118 215.002 333.155 215.249 333.152C215.498 333.155 215.718 333.12 215.909 333.047C216.104 332.971 216.255 332.863 216.361 332.723C216.47 332.581 216.525 332.416 216.525 332.231C216.525 332.046 216.47 331.882 216.361 331.739C216.255 331.593 216.104 331.481 215.909 331.402C215.718 331.322 215.498 331.283 215.249 331.283ZM223.335 330.854C223.335 331.32 223.429 331.785 223.617 332.25C223.806 332.712 224.06 333.125 224.379 333.489C224.701 333.854 225.052 334.131 225.432 334.319L224.994 334.893C224.548 334.659 224.147 334.316 223.791 333.863C223.438 333.41 223.172 332.903 222.993 332.341C222.814 332.939 222.543 333.48 222.182 333.963C221.82 334.443 221.411 334.805 220.956 335.049L220.5 334.474C220.892 334.282 221.249 333.995 221.571 333.613C221.896 333.226 222.153 332.792 222.341 332.309C222.533 331.822 222.63 331.338 222.633 330.854V329.378H223.335V330.854ZM226.891 331.967H228.249V332.587H226.891V336.78H226.179V328.676H226.891V331.967Z" fill="#8688A6"/>
<path d="M206.922 348.113H209.238C209.684 348.113 210.06 348.19 210.363 348.341C210.667 348.493 210.894 348.701 211.042 348.966C211.195 349.23 211.271 349.529 211.271 349.864C211.271 350.259 211.172 350.567 210.974 350.789C210.777 351.008 210.517 351.161 210.195 351.249V351.314C210.408 351.326 210.617 351.399 210.824 351.532C211.031 351.666 211.201 351.856 211.334 352.102C211.468 352.345 211.535 352.632 211.535 352.964C211.535 353.307 211.456 353.61 211.298 353.871C211.143 354.132 210.9 354.339 210.569 354.491C210.237 354.639 209.821 354.714 209.319 354.714H206.922V348.113ZM209.311 353.985C209.8 353.985 210.16 353.89 210.391 353.702C210.625 353.514 210.742 353.264 210.742 352.954C210.742 352.73 210.684 352.523 210.569 352.335C210.456 352.143 210.294 351.993 210.081 351.883C209.871 351.771 209.63 351.714 209.356 351.714H207.742V353.985H209.311ZM209.21 351.004C209.447 351.004 209.663 350.958 209.857 350.867C210.052 350.773 210.206 350.64 210.318 350.47C210.43 350.297 210.486 350.098 210.486 349.873C210.486 349.569 210.382 349.322 210.172 349.13C209.962 348.938 209.651 348.843 209.238 348.843H207.742V351.004H209.21ZM218.947 355.452H218.236V347.348H218.947V355.452ZM212.346 353.292C213.358 353.286 214.127 353.275 214.653 353.26V352.371C214.331 352.338 214.048 352.255 213.805 352.125C213.565 351.994 213.38 351.825 213.249 351.619C213.118 351.409 213.054 351.171 213.058 350.903C213.054 350.602 213.134 350.339 213.295 350.115C213.456 349.886 213.684 349.71 213.978 349.586C214.273 349.461 214.613 349.399 215 349.399C215.385 349.399 215.726 349.461 216.021 349.586C216.318 349.71 216.549 349.886 216.713 350.115C216.877 350.339 216.959 350.602 216.959 350.903C216.959 351.168 216.894 351.405 216.763 351.614C216.633 351.821 216.448 351.99 216.207 352.12C215.97 352.248 215.692 352.33 215.373 352.366V353.233C216.255 353.193 217.029 353.128 217.698 353.037L217.752 353.583C216.947 353.714 216.11 353.801 215.241 353.844C214.372 353.883 213.443 353.902 212.456 353.902L212.346 353.292ZM217.488 348.934H212.52V348.351H214.653V347.357H215.373V348.351H217.488V348.934ZM215 349.955C214.753 349.955 214.533 349.994 214.338 350.074C214.144 350.152 213.992 350.265 213.883 350.411C213.776 350.554 213.723 350.718 213.723 350.903C213.723 351.088 213.776 351.251 213.883 351.391C213.992 351.531 214.144 351.639 214.338 351.714C214.533 351.79 214.753 351.827 215 351.824C215.249 351.827 215.469 351.792 215.661 351.719C215.855 351.643 216.005 351.535 216.112 351.395C216.221 351.253 216.276 351.088 216.276 350.903C216.276 350.718 216.221 350.554 216.112 350.411C216.005 350.265 215.855 350.152 215.661 350.074C215.469 349.994 215.249 349.955 215 349.955ZM223.086 349.526C223.086 349.991 223.18 350.456 223.369 350.921C223.557 351.384 223.811 351.797 224.13 352.161C224.452 352.526 224.803 352.803 225.183 352.991L224.745 353.565C224.298 353.331 223.898 352.988 223.542 352.535C223.189 352.082 222.923 351.575 222.744 351.012C222.565 351.611 222.294 352.152 221.933 352.635C221.571 353.115 221.162 353.477 220.707 353.72L220.251 353.146C220.643 352.954 221 352.667 221.322 352.284C221.647 351.898 221.904 351.464 222.092 350.98C222.284 350.494 222.381 350.009 222.384 349.526V348.05H223.086V349.526ZM226.642 350.638H228V351.259H226.642V355.452H225.93V347.348H226.642V350.638Z" fill="#8688A6"/>
<path d="M185.481 380.579H184.651V376.394H183.603V380.159H182.791V372.574H183.603V375.683H184.651V372.41H185.481V380.579ZM179.737 377.739C180.615 377.73 181.451 377.646 182.244 377.488L182.335 378.245C181.809 378.339 181.308 378.406 180.831 378.446C180.357 378.482 179.88 378.5 179.4 378.5H178.871V373.376H179.737V377.739ZM192.92 375.665H194.187V376.385H192.92V380.569H192.054V372.41H192.92V375.665ZM190.787 373.267C190.78 374.513 190.478 375.632 189.88 376.622C189.281 377.613 188.337 378.428 187.049 379.065L186.565 378.391C187.586 377.88 188.375 377.257 188.931 376.522C189.49 375.786 189.814 374.942 189.902 373.987H186.976V373.267H190.787ZM204.361 376.96H196.904V376.248H204.361V376.96ZM203.496 375.537H197.834V372.702H203.441V373.413H198.691V374.835H203.496V375.537ZM200.624 377.598C201.21 377.598 201.713 377.656 202.133 377.771C202.555 377.886 202.879 378.056 203.103 378.282C203.329 378.503 203.441 378.771 203.441 379.083C203.441 379.397 203.329 379.664 203.103 379.886C202.879 380.108 202.555 380.277 202.133 380.392C201.71 380.508 201.207 380.564 200.624 380.561C200.037 380.564 199.531 380.508 199.106 380.392C198.68 380.277 198.353 380.108 198.126 379.886C197.901 379.664 197.789 379.397 197.789 379.083C197.789 378.771 197.901 378.503 198.126 378.282C198.353 378.056 198.679 377.886 199.101 377.771C199.527 377.656 200.034 377.598 200.624 377.598ZM200.624 378.263C199.998 378.269 199.514 378.344 199.174 378.486C198.834 378.627 198.664 378.825 198.664 379.083C198.664 379.342 198.834 379.543 199.174 379.686C199.514 379.825 199.998 379.895 200.624 379.895C201.24 379.895 201.719 379.825 202.06 379.686C202.403 379.543 202.575 379.342 202.575 379.083C202.575 378.825 202.404 378.627 202.064 378.486C201.724 378.344 201.244 378.269 200.624 378.263ZM212.439 377.57H204.964V376.868H208.272V376.094H205.92V374.015H210.634V373.285H205.902V372.602H211.5V374.653H206.778V375.419H211.664V376.094H209.13V376.868H212.439V377.57ZM211.546 380.515H210.671V378.838H205.802V378.145H211.546V380.515ZM219.459 375.045H220.645V375.765H219.459V378.527H218.593V372.419H219.459V375.045ZM217.919 374.07H213.05V373.368H215.056V372.41H215.922V373.368H217.919V374.07ZM215.484 374.462C215.873 374.462 216.217 374.525 216.515 374.653C216.815 374.781 217.048 374.961 217.212 375.195C217.379 375.426 217.462 375.695 217.462 376.002C217.462 376.309 217.379 376.578 217.212 376.809C217.048 377.04 216.815 377.219 216.515 377.347C216.217 377.471 215.873 377.534 215.484 377.534C215.092 377.534 214.746 377.471 214.445 377.347C214.144 377.219 213.91 377.04 213.743 376.809C213.579 376.578 213.497 376.309 213.497 376.002C213.497 375.695 213.579 375.426 213.743 375.195C213.91 374.961 214.144 374.781 214.445 374.653C214.746 374.525 215.092 374.462 215.484 374.462ZM215.484 375.127C215.253 375.127 215.05 375.164 214.873 375.237C214.7 375.307 214.566 375.408 214.473 375.542C214.378 375.672 214.332 375.826 214.335 376.002C214.332 376.175 214.378 376.328 214.473 376.458C214.566 376.586 214.7 376.685 214.873 376.754C215.05 376.824 215.253 376.859 215.484 376.859C215.715 376.859 215.917 376.824 216.09 376.754C216.267 376.685 216.403 376.586 216.501 376.458C216.598 376.328 216.648 376.175 216.651 376.002C216.648 375.826 216.598 375.672 216.501 375.542C216.403 375.408 216.267 375.307 216.09 375.237C215.917 375.164 215.715 375.127 215.484 375.127ZM219.805 380.406H214.281V378.044H215.147V379.704H219.805V380.406ZM229.916 373.295C229.916 373.68 229.905 374.032 229.884 374.347C229.866 374.664 229.819 375.018 229.743 375.41H230.864V376.102H223.389V375.41H228.872C228.948 375.036 228.998 374.696 229.023 374.389C229.047 374.082 229.059 373.768 229.059 373.449H224.327V372.757H229.916V373.295ZM229.925 378.974H225.139V379.804H230.135V380.497H224.273V378.309H229.068V377.525H224.264V376.832H229.925V378.974Z" fill="white"/>
<path d="M862.607 193.676H468.761C465.538 193.676 462.926 196.288 462.926 199.511V243.855C462.926 247.077 465.538 249.69 468.761 249.69H862.607C865.83 249.69 868.442 247.077 868.442 243.855V199.511C868.442 196.288 865.83 193.676 862.607 193.676Z" fill="#0F1024"/>
<path d="M621.464 215.255V215.856H614.07V215.255H621.464ZM620.598 213.896V214.48H615.009V211.726H620.543V212.329H615.711V213.896H620.598ZM617.763 216.567C619.504 216.567 620.543 217.097 620.552 218.026C620.543 218.966 619.504 219.485 617.763 219.485C616.012 219.485 614.964 218.966 614.964 218.026C614.964 217.097 616.012 216.567 617.763 216.567ZM617.763 217.124C616.459 217.133 615.684 217.461 615.693 218.026C615.684 218.601 616.459 218.919 617.763 218.919C619.048 218.919 619.832 218.601 619.832 218.026C619.832 217.461 619.048 217.133 617.763 217.124ZM629.551 215.866V216.458H622.129V215.866H625.484V215.008H623.096V213.03H627.873V212.191H623.069V211.608H628.594V213.568H623.807V214.434H628.766V215.008H626.186V215.866H629.551ZM628.639 217.078V219.431H627.919V217.661H622.959V217.078H628.639ZM634.92 214.06V214.644H633.28V215.775C634.036 215.742 634.792 215.688 635.495 215.611L635.549 216.139C633.808 216.376 631.875 216.431 630.353 216.431L630.244 215.847C630.954 215.843 631.753 215.833 632.568 215.802V214.644H630.982V211.927H634.857V212.52H631.702V214.06H634.92ZM636.89 211.408V217.47H636.169V211.408H636.89ZM637.154 218.728V219.33H631.629V217.051H632.34V218.728H637.154ZM648.04 217.853V218.464H640.619V217.853H648.04ZM647.328 212.219V212.812H646.043V215.647H647.31V216.23H641.293V215.647H642.56V212.812H641.275V212.219H647.328ZM643.272 215.647H645.341V212.812H643.272V215.647ZM656.108 217.898V218.501H648.687V217.898H652.024V216.367H649.617V213.869H654.467V212.593H649.599V212H655.169V214.452H650.328V215.775H655.36V216.367H652.726V217.898H656.108ZM662.061 211.58V216.285H661.368V214.088H660.128V213.495H661.368V211.58H662.061ZM659.153 213.14C659.153 214.024 659.745 214.981 660.776 215.41L660.402 215.957C659.64 215.638 659.107 215.031 658.834 214.334C658.546 215.123 657.982 215.802 657.175 216.157L656.792 215.592C657.849 215.146 658.46 214.106 658.46 213.14V212.656H656.947V212.064H660.584V212.656H659.153V213.14ZM663.638 211.398V216.358H662.955V211.398H663.638ZM663.638 216.713V219.503H662.936V217.297H658.178V216.713H663.638ZM671.388 215.784V216.367H665.781V212.1H671.297V212.702H666.51V213.906H671.123V214.48H666.51V215.784H671.388ZM672.245 217.853V218.446H664.823V217.853H672.245ZM679.164 211.398V214.699H680.477V215.3H679.164V219.503H678.453V211.398H679.164ZM677.068 212.274C677.068 214.571 675.992 216.659 673.348 217.963L672.947 217.397C675.044 216.353 676.183 214.794 676.347 212.875H673.321V212.274H677.068ZM684.917 216.157V217.169H686.394V216.157H687.06V219.394H684.242V216.157H684.917ZM684.917 218.828H686.394V217.716H684.917V218.828ZM689.376 216.796C689.364 217.653 689.877 218.546 690.869 218.911L690.496 219.457C689.749 219.157 689.259 218.587 689.008 217.908C688.751 218.573 688.261 219.148 687.543 219.457L687.169 218.911C688.144 218.509 688.664 217.616 688.664 216.796V216.102H689.376V216.796ZM685.537 211.763C686.622 211.763 687.451 212.379 687.608 213.313H689.3V211.398H690.023V215.692H689.3V213.906H687.613C687.47 214.863 686.636 215.492 685.537 215.492C684.306 215.492 683.431 214.735 683.431 213.623C683.431 212.52 684.306 211.763 685.537 211.763ZM685.537 212.365C684.707 212.365 684.115 212.885 684.115 213.623C684.115 214.371 684.707 214.899 685.537 214.899C686.358 214.899 686.941 214.371 686.941 213.623C686.941 212.885 686.358 212.365 685.537 212.365ZM693.022 216.267V217.215H697.072V216.267H697.789V219.394H692.31V216.267H693.022ZM693.022 218.82H697.072V217.78H693.022V218.82ZM698.758 215.1V215.692H691.371V215.1H698.758ZM695.438 211.872C695.438 212.875 696.914 213.769 698.338 213.951L698.075 214.525C696.815 214.339 695.584 213.696 695.076 212.784C694.551 213.7 693.314 214.339 692.065 214.525L691.791 213.951C693.232 213.76 694.697 212.903 694.697 211.872V211.489H695.438V211.872ZM706.121 211.398V219.503H705.409V211.398H706.121ZM700.672 212.201V216.796C701.909 216.791 703.186 216.691 704.546 216.404L704.645 217.014C703.204 217.315 701.92 217.415 700.625 217.415H699.972V212.201H700.672ZM713.782 211.398V214.608H715.142V215.209H713.782V219.522H713.071V211.398H713.782ZM711.647 212.191V212.784H708.578V216.887C710.042 216.887 711.081 216.818 712.289 216.595L712.376 217.215C711.11 217.443 710.042 217.488 708.502 217.488H707.866V212.191H711.647ZM716.431 218.82C716.116 218.82 715.842 218.555 715.848 218.227C715.842 217.908 716.116 217.643 716.431 217.643C716.752 217.643 717.015 217.908 717.015 218.227C717.015 218.555 716.752 218.82 716.431 218.82ZM626.697 230.106V230.717H619.276V230.106H626.697ZM625.986 224.472V225.065H624.701V227.9H625.968V228.483H619.951V227.9H621.218V225.065H619.933V224.472H625.986ZM621.929 227.9H623.998V225.065H621.929V227.9ZM634.766 230.151V230.754H627.344V230.151H630.681V228.62H628.274V226.122H633.124V224.846H628.256V224.253H633.826V226.705H628.985V228.028H634.018V228.62H631.383V230.151H634.766ZM640.719 223.833V228.538H640.026V226.341H638.786V225.748H640.026V223.833H640.719ZM637.81 225.393C637.81 226.277 638.403 227.234 639.433 227.663L639.059 228.21C638.298 227.891 637.765 227.284 637.492 226.587C637.204 227.376 636.639 228.055 635.832 228.41L635.449 227.845C636.507 227.399 637.118 226.359 637.118 225.393V224.909H635.604V224.317H639.242V224.909H637.81V225.393ZM642.296 223.651V228.611H641.612V223.651H642.296ZM642.296 228.966V231.756H641.594V229.55H636.835V228.966H642.296ZM650.045 228.037V228.62H644.439V224.353H649.954V224.955H645.168V226.159H649.781V226.733H645.168V228.037H650.045ZM650.902 230.106V230.699H643.481V230.106H650.902ZM658.961 227.417V227.982H651.541V227.417H658.961ZM658.032 228.629V230.352H653.163V231.127H658.296V231.647H652.443V229.86H657.321V229.167H652.434V228.629H658.032ZM658.004 223.898V225.575H653.218V226.286H658.15V226.806H652.507V225.083H657.284V224.417H652.479V223.898H658.004ZM664.377 225.265C664.377 226.159 665.006 227.07 666.045 227.462L665.671 228.009C664.892 227.708 664.332 227.13 664.04 226.432C663.739 227.207 663.16 227.895 662.362 228.237L661.97 227.681C663.037 227.216 663.693 226.167 663.693 225.265V224.162H664.377V225.265ZM668.844 223.661V228.666H668.16V226.432H667.084V228.41H666.41V223.815H667.084V225.839H668.16V223.661H668.844ZM666.164 228.848C667.841 228.848 668.89 229.377 668.89 230.297C668.89 231.209 667.841 231.738 666.164 231.738C664.477 231.738 663.438 231.209 663.447 230.297C663.438 229.377 664.477 228.848 666.164 228.848ZM666.164 229.395C664.924 229.395 664.149 229.732 664.158 230.297C664.149 230.854 664.924 231.182 666.164 231.182C667.395 231.182 668.17 230.854 668.178 230.297C668.17 229.732 667.395 229.395 666.164 229.395ZM672.819 224.928C672.81 226.086 673.63 227.107 674.825 227.508L674.423 228.064C673.53 227.726 672.828 227.07 672.482 226.213C672.131 227.184 671.388 227.941 670.412 228.31L670.02 227.726C671.269 227.289 672.099 226.213 672.108 224.955V224.116H672.819V224.928ZM676.749 223.651V228.456H676.028V225.985H674.223V225.393H676.028V223.651H676.749ZM674.059 228.693C675.746 228.693 676.776 229.249 676.776 230.225C676.776 231.191 675.746 231.738 674.059 231.738C672.372 231.738 671.342 231.191 671.342 230.225C671.342 229.249 672.372 228.693 674.059 228.693ZM674.059 229.258C672.819 229.258 672.044 229.623 672.053 230.225C672.044 230.808 672.819 231.164 674.059 231.164C675.299 231.164 676.065 230.808 676.065 230.225C676.065 229.623 675.299 229.258 674.059 229.258ZM682.146 225.055V225.639H678.079V225.055H679.766V223.898H680.477V225.055H682.146ZM680.112 226.186C681.133 226.186 681.863 226.952 681.872 228.028C681.863 229.112 681.133 229.887 680.112 229.887C679.101 229.887 678.371 229.112 678.371 228.028C678.371 226.952 679.101 226.186 680.112 226.186ZM680.112 226.788C679.475 226.796 679.01 227.316 679.01 228.028C679.01 228.748 679.475 229.267 680.112 229.258C680.76 229.267 681.234 228.748 681.234 228.028C681.234 227.316 680.76 226.796 680.112 226.788ZM684.999 223.651V231.756H684.316V227.663H683.24V231.355H682.565V223.852H683.24V227.07H684.316V223.651H684.999ZM690.257 224.8C690.251 225.885 691.698 226.806 693.116 227.016L692.847 227.581C691.581 227.366 690.35 226.692 689.86 225.712C689.364 226.692 688.133 227.366 686.886 227.581L686.603 227.016C688.01 226.806 689.457 225.885 689.457 224.8V224.745H686.859V224.162H692.847V224.745H690.257V224.8ZM693.553 228.274V228.866H690.198V231.756H689.492V228.866H686.166V228.274H693.553ZM696.64 225.958C696.64 227.243 697.27 228.638 698.344 229.276L697.935 229.833C697.159 229.358 696.593 228.493 696.313 227.508C696.01 228.584 695.409 229.509 694.598 230.006L694.143 229.468C695.263 228.812 695.951 227.371 695.951 225.985V224.417H696.64V225.958ZM701.179 223.651V231.756H700.491V223.651H701.179ZM699.505 223.825V231.346H698.828V227.17H697.451V226.56H698.828V223.825H699.505ZM709.721 230.115V230.717H702.305V230.115H704.143V227.927C703.449 227.567 703.035 226.984 703.035 226.25C703.035 224.992 704.26 224.171 705.993 224.162C707.726 224.171 708.957 224.992 708.957 226.25C708.957 226.97 708.554 227.549 707.883 227.909V230.115H709.721ZM705.993 224.754C704.663 224.745 703.723 225.347 703.723 226.25C703.723 227.152 704.663 227.763 705.993 227.763C707.317 227.763 708.263 227.152 708.263 226.25C708.263 225.347 707.317 224.745 705.993 224.754ZM704.844 230.115H707.16V228.183C706.81 228.278 706.419 228.329 705.993 228.329C705.579 228.329 705.194 228.283 704.844 228.191V230.115ZM711.227 231.073C710.912 231.073 710.637 230.808 710.643 230.48C710.637 230.161 710.912 229.896 711.227 229.896C711.548 229.896 711.81 230.161 711.81 230.48C711.81 230.808 711.548 231.073 711.227 231.073Z" fill="white"/>
<path d="M850.937 193.676H477.512C467.845 193.676 460.008 201.513 460.008 211.18V669.209C460.008 678.877 467.845 686.714 477.512 686.714H850.937C860.605 686.714 868.442 678.877 868.442 669.209V211.18C868.442 201.513 860.605 193.676 850.937 193.676Z" fill="#0F1024"/>
<path d="M501.333 230.632H489.652V229.492H501.333V230.632ZM500.265 221.799H498.313V226.059H500.222V227.141H490.677V226.059H492.587V221.799H490.649V220.689H500.265V221.799ZM496.988 226.059V221.799H493.926V226.059H496.988ZM513.94 230.703H502.259V229.563H507.402V227.327H503.684V223.267H511.176V221.472H503.655V220.361H512.515V224.349H505.022V226.215H512.815V227.327H508.741V229.563H513.94V230.703ZM523.242 227.156H521.96V223.808H520.179V222.711H521.96V219.734H523.242V227.156ZM518.726 222.199C518.726 222.668 518.819 223.129 519.004 223.58C519.194 224.031 519.474 224.442 519.844 224.813C520.215 225.178 520.664 225.47 521.19 225.688L520.507 226.728C519.942 226.495 519.457 226.173 519.054 225.76C518.651 225.342 518.332 224.862 518.1 224.321C517.862 224.929 517.53 225.465 517.103 225.93C516.68 226.396 516.167 226.757 515.564 227.013L514.837 225.944C515.384 225.726 515.851 225.418 516.241 225.019C516.63 224.62 516.922 224.176 517.117 223.687C517.316 223.198 517.416 222.702 517.416 222.199V221.571H515.151V220.474H520.863V221.571H518.726V222.199ZM525.749 227.256H524.467V219.463H525.749V227.256ZM525.749 232.227H524.41V228.879H517.074V227.782H525.749V232.227ZM537.829 227.341H528.94V220.518H537.7V221.614H530.307V223.338H537.43V224.406H530.307V226.258H537.829V227.341ZM539.154 230.617H527.473V229.506H539.154V230.617ZM550.108 226.543H544.139V220.589H550.108V226.543ZM545.464 225.475H548.783V221.686H545.464V225.475ZM553.669 223.267H555.521V224.406H553.669V228.808H552.316V219.449H553.669V223.267ZM554.211 231.956H545.578V227.911H546.932V230.859H554.211V231.956ZM567.9 225.774H556.247V224.691H567.9V225.774ZM566.518 223.765H557.772V219.834H566.39V220.931H559.125V222.683H566.518V223.765ZM566.419 229.877H558.983V231.016H566.775V232.084H557.658V228.879H565.08V227.825H557.644V226.785H566.419V229.877ZM579.467 232.227H578.1V219.463H579.467V232.227ZM575.664 220.831C575.664 222.806 575.191 224.563 574.247 226.101C573.306 227.635 571.789 228.903 569.695 229.905L568.983 228.808C570.659 228.011 571.929 227.039 572.793 225.895C573.662 224.751 574.163 223.423 574.296 221.913H569.595V220.831H575.664Z" fill="#F5F5F5"/>
<path d="M497.407 264.565H496.474V255.375H497.407V264.565ZM495.54 264.103H494.617V259.426H493.192V258.626H494.617V255.57H495.54V264.103ZM492.289 257.939C492.289 258.473 492.361 258.99 492.504 259.493C492.651 259.992 492.868 260.445 493.156 260.852C493.447 261.259 493.8 261.584 494.217 261.827L493.633 262.544C493.205 262.288 492.84 261.939 492.535 261.498C492.231 261.057 491.997 260.553 491.833 259.985C491.665 260.601 491.424 261.15 491.11 261.632C490.795 262.11 490.419 262.486 489.981 262.759L489.387 262.031C489.807 261.775 490.164 261.432 490.458 261.001C490.756 260.57 490.98 260.091 491.13 259.565C491.281 259.035 491.356 258.493 491.356 257.939V257.201H489.663V256.411H493.868V257.201H492.289V257.939ZM505.91 258.903H503.264V259.97H506.976V260.76H498.597V259.97H502.299V258.903H499.664V255.754H505.91V258.903ZM500.617 258.124H504.946V256.524H500.617V258.124ZM505.95 264.565H504.966V262.401H499.53V261.632H505.95V264.565ZM509.541 260.442L509.602 258.913L508.309 259.734L507.92 259.057L509.284 258.359L507.92 257.652L508.309 256.975L509.602 257.795L509.541 256.267H510.32L510.248 257.795L511.54 256.975L511.94 257.652L510.576 258.359L511.94 259.057L511.54 259.734L510.248 258.913L510.32 260.442H509.541Z" fill="#F5F5F5"/>
<path d="M833.431 273.613H495.014C491.792 273.613 489.18 276.226 489.18 279.448V296.952C489.18 300.175 491.792 302.787 495.014 302.787H833.431C836.653 302.787 839.266 300.175 839.266 296.952V279.448C839.266 276.226 836.653 273.613 833.431 273.613Z" fill="#343552"/>
<path d="M513.997 292.184H513.167V284.016H513.997V292.184ZM512.338 291.774H511.517V287.617H510.25V286.906H511.517V284.189H512.338V291.774ZM509.447 286.295C509.447 286.769 509.512 287.229 509.639 287.676C509.769 288.12 509.963 288.522 510.218 288.884C510.476 289.246 510.79 289.534 511.162 289.75L510.642 290.388C510.262 290.16 509.937 289.85 509.666 289.458C509.396 289.066 509.188 288.618 509.042 288.113C508.893 288.661 508.679 289.148 508.399 289.577C508.119 290.002 507.785 290.336 507.396 290.58L506.867 289.933C507.241 289.705 507.559 289.399 507.82 289.016C508.084 288.633 508.284 288.208 508.417 287.74C508.551 287.269 508.618 286.787 508.618 286.295V285.638H507.113V284.936H510.852V285.638H509.447V286.295ZM521.554 287.152H519.202V288.1H522.503V288.802H515.055V288.1H518.345V287.152H516.003V284.353H521.554V287.152ZM516.85 286.459H520.698V285.037H516.85V286.459ZM521.591 292.184H520.716V290.261H515.884V289.577H521.591V292.184ZM526.843 284.152C527.456 284.152 527.98 284.207 528.415 284.317C528.853 284.423 529.185 284.581 529.413 284.79C529.644 285 529.76 285.256 529.76 285.557C529.76 285.857 529.644 286.114 529.413 286.327C529.185 286.536 528.853 286.696 528.415 286.805C527.98 286.915 527.456 286.97 526.843 286.97C526.229 286.97 525.703 286.915 525.265 286.805C524.831 286.696 524.498 286.536 524.267 286.327C524.039 286.114 523.925 285.857 523.925 285.557C523.925 285.256 524.039 285 524.267 284.79C524.498 284.581 524.831 284.423 525.265 284.317C525.703 284.207 526.229 284.152 526.843 284.152ZM526.843 284.79C526.192 284.79 525.692 284.858 525.343 284.991C524.993 285.125 524.821 285.313 524.828 285.557C524.825 285.806 524.995 285.995 525.338 286.126C525.684 286.257 526.186 286.322 526.843 286.322C527.496 286.322 527.995 286.257 528.342 286.126C528.692 285.995 528.867 285.806 528.867 285.557C528.867 285.313 528.69 285.125 528.337 284.991C527.988 284.858 527.49 284.79 526.843 284.79ZM530.571 288.164H523.123V287.471H530.571V288.164ZM529.632 290.708H524.873V291.437H529.86V292.102H524.025V290.079H528.775V289.44H524.016V288.793H529.632V290.708ZM540.244 288.401H539.378V284.016H540.244V288.401ZM535.749 289.714H539.387V288.793H540.244V292.084H534.901V288.793H535.749V289.714ZM539.387 291.373V290.397H535.749V291.373H539.387ZM535.813 284.39C536.227 284.39 536.598 284.47 536.926 284.631C537.257 284.792 537.515 285.017 537.7 285.306C537.889 285.592 537.983 285.918 537.983 286.286C537.983 286.654 537.889 286.981 537.7 287.27C537.515 287.556 537.257 287.78 536.926 287.941C536.598 288.098 536.227 288.176 535.813 288.173C535.4 288.176 535.028 288.098 534.697 287.941C534.365 287.78 534.106 287.556 533.917 287.27C533.729 286.981 533.635 286.654 533.635 286.286C533.635 285.918 533.729 285.592 533.917 285.306C534.106 285.017 534.365 284.792 534.697 284.631C535.028 284.47 535.4 284.39 535.813 284.39ZM535.813 285.119C535.558 285.115 535.329 285.164 535.125 285.265C534.924 285.362 534.767 285.5 534.651 285.68C534.539 285.856 534.483 286.058 534.483 286.286C534.483 286.516 534.539 286.722 534.651 286.901C534.767 287.077 534.924 287.215 535.125 287.316C535.329 287.413 535.558 287.462 535.813 287.462C536.066 287.462 536.292 287.413 536.493 287.316C536.693 287.215 536.85 287.077 536.962 286.901C537.078 286.722 537.136 286.516 537.136 286.286C537.136 286.058 537.078 285.856 536.962 285.68C536.85 285.5 536.693 285.362 536.493 285.265C536.292 285.164 536.066 285.115 535.813 285.119ZM545.431 286.887H542.733V288.018H542.97C543.638 288.018 544.181 288.004 544.598 287.977C545.017 287.949 545.434 287.896 545.851 287.818L545.933 288.519C545.459 288.601 544.98 288.656 544.497 288.683C544.014 288.708 543.338 288.72 542.469 288.72H541.876V286.231H544.566V285.201H541.867V284.508H545.431V286.887ZM548.349 289.048H547.483V287.608H545.951V286.915H547.483V285.903H545.951V285.21H547.483V284.025H548.349V289.048ZM548.349 292.194H547.483V290.16H542.806V289.458H548.349V292.194ZM555.971 287.325H557.284V288.045H555.971V292.184H555.114V284.016H555.971V287.325ZM554.402 286.003H549.561V285.292H551.577V284.125H552.443V285.292H554.402V286.003ZM552.014 286.605C552.4 286.605 552.747 286.686 553.053 286.847C553.36 287.008 553.602 287.232 553.778 287.521C553.954 287.81 554.044 288.137 554.047 288.501C554.044 288.869 553.954 289.197 553.778 289.486C553.602 289.775 553.36 289.999 553.053 290.16C552.747 290.321 552.4 290.404 552.014 290.406C551.625 290.404 551.276 290.321 550.966 290.16C550.659 289.999 550.417 289.775 550.241 289.486C550.068 289.197 549.981 288.869 549.981 288.501C549.981 288.137 550.068 287.81 550.241 287.521C550.417 287.232 550.659 287.008 550.966 286.847C551.276 286.686 551.625 286.605 552.014 286.605ZM552.014 287.316C551.786 287.316 551.58 287.366 551.394 287.466C551.208 287.567 551.064 287.707 550.961 287.886C550.858 288.065 550.808 288.27 550.811 288.501C550.808 288.735 550.858 288.942 550.961 289.121C551.064 289.3 551.207 289.438 551.389 289.536C551.575 289.633 551.783 289.68 552.014 289.677C552.242 289.68 552.447 289.633 552.629 289.536C552.815 289.438 552.959 289.3 553.062 289.121C553.165 288.942 553.217 288.735 553.217 288.501C553.217 288.27 553.165 288.065 553.062 287.886C552.959 287.707 552.815 287.567 552.629 287.466C552.447 287.366 552.242 287.316 552.014 287.316ZM560.164 286.249C560.164 286.693 560.227 287.132 560.352 287.567C560.476 287.998 560.661 288.393 560.908 288.752C561.154 289.111 561.453 289.398 561.806 289.613L561.322 290.279C560.951 290.057 560.634 289.755 560.37 289.372C560.105 288.986 559.902 288.548 559.759 288.059C559.604 288.591 559.385 289.066 559.102 289.486C558.823 289.902 558.49 290.227 558.104 290.461L557.566 289.814C557.94 289.589 558.259 289.291 558.524 288.92C558.788 288.547 558.987 288.133 559.12 287.68C559.258 287.225 559.326 286.76 559.326 286.286V284.763H560.164V286.249ZM564.705 292.184H563.875V284.016H564.705V292.184ZM563.009 291.783H562.188V287.608H560.921V286.887H562.188V284.171H563.009V291.783ZM573.22 291.163H565.744V290.443H567.531V288.309C567.191 288.121 566.926 287.883 566.738 287.594C566.549 287.305 566.455 286.981 566.455 286.623C566.455 286.201 566.583 285.828 566.838 285.506C567.096 285.184 567.453 284.935 567.909 284.758C568.365 284.579 568.883 284.49 569.464 284.49C570.047 284.49 570.566 284.579 571.023 284.758C571.481 284.935 571.838 285.184 572.094 285.506C572.352 285.828 572.481 286.201 572.481 286.623C572.481 286.979 572.39 287.299 572.208 287.585C572.025 287.868 571.767 288.103 571.433 288.291V290.443H573.22V291.163ZM569.464 285.183C569.038 285.183 568.661 285.242 568.333 285.361C568.005 285.476 567.749 285.643 567.567 285.862C567.385 286.078 567.294 286.331 567.294 286.623C567.294 286.912 567.385 287.165 567.567 287.384C567.749 287.603 568.005 287.773 568.333 287.895C568.661 288.014 569.038 288.073 569.464 288.073C569.886 288.073 570.261 288.014 570.589 287.895C570.921 287.773 571.179 287.603 571.365 287.384C571.55 287.165 571.642 286.912 571.642 286.623C571.642 286.334 571.55 286.081 571.365 285.862C571.182 285.643 570.925 285.476 570.594 285.361C570.266 285.242 569.889 285.183 569.464 285.183ZM570.558 290.443V288.624C570.226 288.706 569.862 288.747 569.464 288.747C569.081 288.747 568.722 288.708 568.388 288.629V290.443H570.558ZM574.742 291.473C574.627 291.473 574.517 291.444 574.414 291.387C574.314 291.329 574.235 291.25 574.177 291.15C574.119 291.049 574.092 290.941 574.095 290.826C574.092 290.71 574.119 290.602 574.177 290.502C574.235 290.402 574.314 290.323 574.414 290.265C574.517 290.207 574.627 290.179 574.742 290.179C574.854 290.179 574.961 290.207 575.062 290.265C575.161 290.323 575.241 290.402 575.298 290.502C575.359 290.602 575.39 290.71 575.39 290.826C575.39 290.941 575.359 291.049 575.298 291.15C575.241 291.25 575.161 291.329 575.062 291.387C574.961 291.444 574.854 291.473 574.742 291.473Z" fill="#8688A6"/>
<path d="M496.291 314.183H495.424V312.086H493.701V311.384H495.424V309.98H496.291V314.183ZM496.291 316.599H491.814V317.356H496.573V318.049H490.966V315.943H495.434V315.25H490.948V314.566H496.291V316.599ZM492.352 310.956C492.352 311.303 492.431 311.635 492.589 311.954C492.75 312.27 492.98 312.551 493.277 312.797C493.575 313.041 493.926 313.226 494.33 313.354L493.875 314.028C493.431 313.873 493.042 313.648 492.708 313.354C492.376 313.059 492.12 312.715 491.938 312.324C491.758 312.767 491.495 313.153 491.149 313.481C490.802 313.81 490.392 314.055 489.918 314.22L489.453 313.527C489.873 313.393 490.234 313.197 490.538 312.939C490.845 312.681 491.08 312.381 491.244 312.041C491.408 311.701 491.492 311.339 491.495 310.956V310.245H492.352V310.956ZM504.359 314.803H503.493V313.59H501.715V314.256H497.922V310.591H501.715V311.266H503.493V309.98H504.359V314.803ZM498.779 313.564H500.867V311.284H498.779V313.564ZM501.624 315.031C502.195 315.031 502.688 315.092 503.101 315.214C503.514 315.335 503.832 315.513 504.053 315.747C504.275 315.981 504.386 316.262 504.386 316.59C504.386 316.915 504.275 317.193 504.053 317.424C503.832 317.658 503.513 317.835 503.097 317.953C502.683 318.074 502.192 318.134 501.624 318.131C501.053 318.134 500.559 318.074 500.142 317.953C499.729 317.835 499.411 317.658 499.19 317.424C498.968 317.193 498.859 316.915 498.862 316.59C498.859 316.262 498.968 315.981 499.19 315.747C499.411 315.513 499.729 315.335 500.142 315.214C500.559 315.092 501.053 315.031 501.624 315.031ZM501.624 315.697C501.019 315.703 500.55 315.782 500.215 315.934C499.884 316.086 499.718 316.305 499.718 316.59C499.718 316.773 499.795 316.929 499.946 317.06C500.099 317.19 500.317 317.291 500.603 317.36C500.889 317.43 501.229 317.465 501.624 317.465C502.019 317.465 502.36 317.43 502.645 317.36C502.931 317.291 503.15 317.19 503.301 317.06C503.454 316.929 503.53 316.773 503.53 316.59C503.53 316.305 503.362 316.086 503.028 315.934C502.697 315.782 502.229 315.703 501.624 315.697ZM503.493 312.889V311.959H501.715V312.889H503.493ZM514.67 314.366H513.804V309.98H514.67V314.366ZM510.175 315.679H513.813V314.757H514.67V318.049H509.328V314.757H510.175V315.679ZM513.813 317.338V316.362H510.175V317.338H513.813ZM510.239 310.354C510.653 310.354 511.024 310.435 511.352 310.596C511.683 310.757 511.941 310.982 512.126 311.271C512.315 311.556 512.409 311.883 512.409 312.251C512.409 312.618 512.315 312.946 512.126 313.235C511.941 313.521 511.683 313.744 511.352 313.906C511.024 314.063 510.653 314.141 510.239 314.138C509.826 314.141 509.454 314.063 509.123 313.906C508.791 313.744 508.532 313.521 508.343 313.235C508.155 312.946 508.06 312.618 508.06 312.251C508.06 311.883 508.155 311.556 508.343 311.271C508.532 310.982 508.791 310.757 509.123 310.596C509.454 310.435 509.826 310.354 510.239 310.354ZM510.239 311.084C509.984 311.08 509.755 311.129 509.551 311.23C509.35 311.327 509.192 311.465 509.077 311.645C508.965 311.821 508.908 312.023 508.908 312.251C508.908 312.481 508.965 312.687 509.077 312.866C509.192 313.042 509.35 313.18 509.551 313.281C509.755 313.378 509.984 313.426 510.239 313.426C510.492 313.426 510.718 313.378 510.919 313.281C511.119 313.18 511.276 313.042 511.388 312.866C511.503 312.687 511.561 312.481 511.561 312.251C511.561 312.023 511.503 311.821 511.388 311.645C511.276 311.465 511.119 311.327 510.919 311.23C510.718 311.129 510.492 311.08 510.239 311.084ZM519.858 312.852H517.159V313.983H517.396C518.064 313.983 518.607 313.969 519.023 313.942C519.443 313.914 519.86 313.861 520.277 313.782L520.359 314.484C519.885 314.566 519.406 314.621 518.923 314.648C518.44 314.673 517.764 314.685 516.895 314.685H516.302V312.196H518.992V311.166H516.293V310.473H519.858V312.852ZM522.775 315.013H521.909V313.572H520.377V312.88H521.909V311.867H520.377V311.175H521.909V309.99H522.775V315.013ZM522.775 318.158H521.909V316.125H517.232V315.423H522.775V318.158Z" fill="#F5F5F5"/>
<path d="M489.18 318.836H523.733V319.543H489.18V318.836Z" fill="#F5F5F5"/>
<path d="M497.119 349.752H496.145V340.562H497.119V349.752ZM489.57 347.25C490.675 347.243 491.516 347.231 492.093 347.214V346.296C491.734 346.251 491.422 346.154 491.155 346.003C490.888 345.853 490.683 345.66 490.539 345.424C490.396 345.188 490.326 344.922 490.329 344.624C490.326 344.282 490.416 343.981 490.601 343.721C490.786 343.462 491.047 343.26 491.385 343.116C491.724 342.973 492.114 342.901 492.555 342.901C492.999 342.901 493.393 342.973 493.735 343.116C494.079 343.26 494.347 343.462 494.535 343.721C494.726 343.981 494.822 344.282 494.822 344.624C494.822 344.918 494.748 345.183 494.601 345.419C494.457 345.652 494.252 345.843 493.985 345.994C493.722 346.143 493.413 346.243 493.058 346.291V347.178C493.96 347.14 494.801 347.072 495.581 346.973L495.652 347.701C494.746 347.851 493.813 347.949 492.852 347.993C491.891 348.038 490.842 348.06 489.703 348.06L489.57 347.25ZM495.375 342.44H489.765V341.66H492.093V340.583H493.068V341.66H495.375V342.44ZM492.555 343.66C492.299 343.66 492.071 343.701 491.873 343.783C491.674 343.861 491.521 343.975 491.411 344.122C491.302 344.265 491.249 344.433 491.252 344.624C491.249 344.815 491.302 344.983 491.411 345.126C491.521 345.267 491.674 345.376 491.873 345.455C492.071 345.53 492.299 345.568 492.555 345.568C492.818 345.568 493.051 345.53 493.253 345.455C493.454 345.376 493.61 345.267 493.719 345.126C493.832 344.983 493.888 344.815 493.888 344.624C493.888 344.433 493.832 344.265 493.719 344.122C493.606 343.975 493.449 343.861 493.247 343.783C493.045 343.701 492.815 343.66 492.555 343.66ZM501.786 342.901C501.782 343.441 501.878 343.975 502.073 344.501C502.268 345.024 502.54 345.494 502.888 345.911C503.241 346.325 503.642 346.641 504.094 346.86L503.488 347.64C502.996 347.383 502.56 347.012 502.18 346.527C501.805 346.041 501.514 345.487 501.309 344.865C501.1 345.528 500.799 346.12 500.406 346.639C500.016 347.156 499.563 347.547 499.047 347.814L498.442 347.024C498.904 346.802 499.314 346.474 499.673 346.04C500.036 345.606 500.316 345.113 500.514 344.562C500.712 344.012 500.812 343.458 500.812 342.901V341.332H501.786V342.901ZM505.755 344.224H507.232V345.055H505.755V349.752H504.78V340.562H505.755V344.224ZM513.478 342.245C513.478 342.658 513.567 343.06 513.745 343.45C513.922 343.839 514.179 344.186 514.514 344.49C514.849 344.792 515.242 345.021 515.693 345.178L515.16 345.937C514.664 345.746 514.232 345.468 513.863 345.106C513.493 344.744 513.21 344.321 513.011 343.839C512.81 344.38 512.516 344.85 512.129 345.25C511.743 345.65 511.283 345.95 510.75 346.152L510.227 345.383C510.695 345.216 511.1 344.971 511.442 344.65C511.784 344.328 512.047 343.957 512.232 343.537C512.416 343.116 512.51 342.675 512.514 342.214V341.127H513.478V342.245ZM517.899 347.424H516.924V343.465H514.986V342.665H516.924V340.573H517.899V347.424ZM518.103 349.557H511.899V346.655H512.883V348.768H518.103V349.557ZM523.283 342.009H520.627V343.034H523.18V343.783H520.627V344.901C521.276 344.894 521.823 344.876 522.268 344.845C522.712 344.81 523.16 344.751 523.611 344.665L523.704 345.465C523.229 345.554 522.765 345.615 522.314 345.65C521.866 345.684 521.321 345.701 520.678 345.701H520.288H519.693V341.219H523.283V342.009ZM527.15 346.152H526.227V343.701H525.099V346.08H524.186V340.737H525.099V342.911H526.227V340.573H527.15V346.152ZM527.15 349.752H526.186V347.383H520.904V346.593H527.15V349.752ZM530.257 345.629L530.319 344.101L529.027 344.922L528.637 344.245L530.001 343.547L528.637 342.839L529.027 342.162L530.319 342.983L530.257 341.455H531.037L530.965 342.983L532.257 342.162L532.658 342.839L531.294 343.547L532.658 344.245L532.257 344.922L530.965 344.101L531.037 345.629H530.257Z" fill="#F5F5F5"/>
<path d="M833.431 358.801H495.014C491.792 358.801 489.18 361.413 489.18 364.636V393.809C489.18 397.032 491.792 399.644 495.014 399.644H833.431C836.653 399.644 839.266 397.032 839.266 393.809V364.636C839.266 361.413 836.653 358.801 833.431 358.801Z" fill="#343552"/>
<path d="M514.46 382.183H506.984V381.453H514.46V382.183ZM513.776 376.531H512.527V379.256H513.749V379.949H507.641V379.256H508.862V376.531H507.622V375.819H513.776V376.531ZM511.679 379.256V376.531H509.719V379.256H511.679ZM522.528 382.228H515.053V381.499H518.344V380.068H515.964V377.469H520.76V376.321H515.946V375.609H521.617V378.162H516.821V379.356H521.808V380.068H519.201V381.499H522.528V382.228ZM528.481 379.958H527.661V377.816H526.522V377.114H527.661V375.208H528.481V379.958ZM525.591 376.786C525.591 377.087 525.651 377.381 525.769 377.67C525.891 377.958 526.07 378.222 526.307 378.458C526.544 378.692 526.831 378.88 527.169 379.019L526.731 379.685C526.37 379.536 526.059 379.329 525.801 379.065C525.543 378.797 525.339 378.491 525.191 378.144C525.038 378.533 524.826 378.876 524.552 379.174C524.282 379.472 523.954 379.703 523.568 379.867L523.103 379.183C523.452 379.044 523.752 378.846 524.001 378.591C524.25 378.335 524.437 378.051 524.562 377.738C524.689 377.425 524.753 377.108 524.753 376.786V376.385H523.303V375.682H526.959V376.385H525.591V376.786ZM530.086 380.022H529.266V375.035H530.086V380.022ZM530.086 383.204H529.229V381.061H524.534V380.359H530.086V383.204ZM537.817 380.077H532.128V375.71H537.735V376.412H533.003V377.515H537.562V378.199H533.003V379.384H537.817V380.077ZM538.665 382.173H531.189V381.463H538.665V382.173ZM541.92 375.619C542.345 375.616 542.726 375.696 543.064 375.86C543.401 376.024 543.664 376.255 543.853 376.553C544.044 376.848 544.141 377.184 544.144 377.56C544.141 377.937 544.044 378.275 543.853 378.573C543.664 378.867 543.401 379.098 543.064 379.265C542.726 379.429 542.345 379.512 541.92 379.512C541.494 379.512 541.111 379.429 540.771 379.265C540.434 379.098 540.17 378.867 539.978 378.573C539.786 378.275 539.692 377.937 539.695 377.56C539.692 377.184 539.786 376.848 539.978 376.553C540.17 376.255 540.434 376.024 540.771 375.86C541.111 375.696 541.494 375.616 541.92 375.619ZM541.92 376.366C541.656 376.366 541.418 376.416 541.209 376.517C541.002 376.614 540.839 376.753 540.721 376.936C540.605 377.115 540.549 377.324 540.552 377.56C540.549 377.797 540.605 378.007 540.721 378.189C540.839 378.369 541.002 378.509 541.209 378.609C541.418 378.706 541.656 378.755 541.92 378.755C542.184 378.755 542.419 378.706 542.627 378.609C542.836 378.509 543 378.369 543.119 378.189C543.237 378.007 543.296 377.797 543.296 377.56C543.296 377.324 543.237 377.115 543.119 376.936C543 376.753 542.836 376.614 542.627 376.517C542.419 376.416 542.184 376.366 541.92 376.366ZM546.013 383.222H545.147V375.035H546.013V383.222ZM539.303 380.742C540.312 380.742 541.254 380.726 542.13 380.692C543.008 380.656 543.844 380.581 544.637 380.469L544.7 381.098C543.886 381.256 543.058 381.356 542.216 381.399C541.377 381.441 540.443 381.463 539.413 381.463L539.303 380.742ZM556.361 383.204H555.495V375.035H556.361V383.204ZM549.651 380.979C550.633 380.973 551.38 380.963 551.893 380.948V380.131C551.575 380.092 551.297 380.005 551.06 379.872C550.822 379.738 550.64 379.566 550.512 379.356C550.385 379.147 550.323 378.91 550.326 378.645C550.323 378.342 550.403 378.074 550.567 377.843C550.731 377.612 550.964 377.433 551.264 377.305C551.566 377.178 551.912 377.114 552.304 377.114C552.699 377.114 553.049 377.178 553.352 377.305C553.659 377.433 553.896 377.612 554.063 377.843C554.234 378.074 554.319 378.342 554.319 378.645C554.319 378.907 554.254 379.142 554.123 379.352C553.995 379.559 553.812 379.729 553.576 379.862C553.342 379.996 553.067 380.085 552.751 380.127V380.915C553.553 380.882 554.3 380.821 554.993 380.733L555.057 381.38C554.252 381.514 553.422 381.601 552.568 381.64C551.714 381.68 550.781 381.7 549.77 381.7L549.651 380.979ZM554.811 376.703H549.824V376.011H551.893V375.053H552.76V376.011H554.811V376.703ZM552.304 377.789C552.076 377.789 551.874 377.825 551.697 377.898C551.521 377.968 551.385 378.068 551.287 378.199C551.19 378.327 551.143 378.475 551.146 378.645C551.143 378.816 551.19 378.964 551.287 379.092C551.385 379.217 551.521 379.314 551.697 379.384C551.874 379.451 552.076 379.484 552.304 379.484C552.538 379.484 552.745 379.451 552.924 379.384C553.103 379.314 553.241 379.217 553.339 379.092C553.439 378.964 553.489 378.816 553.489 378.645C553.489 378.475 553.439 378.327 553.339 378.199C553.238 378.068 553.098 377.968 552.919 377.898C552.74 377.825 552.535 377.789 552.304 377.789ZM560.509 377.114C560.506 377.594 560.591 378.068 560.765 378.536C560.937 379.001 561.179 379.419 561.489 379.789C561.802 380.158 562.159 380.438 562.561 380.633L562.023 381.326C561.585 381.098 561.198 380.768 560.86 380.337C560.526 379.905 560.267 379.413 560.085 378.86C559.9 379.449 559.632 379.975 559.283 380.437C558.937 380.896 558.534 381.244 558.075 381.481L557.537 380.779C557.947 380.581 558.312 380.289 558.631 379.904C558.953 379.517 559.202 379.08 559.378 378.591C559.555 378.101 559.643 377.609 559.643 377.114V375.719H560.509V377.114ZM564.037 378.29H565.35V379.028H564.037V383.204H563.171V375.035H564.037V378.29ZM573.209 379.448H565.733V378.782H573.209V379.448ZM572.288 381.818H567.493V382.493H572.543V383.103H566.626V381.244H571.431V380.642H566.617V380.022H572.288V381.818ZM572.27 377.014H567.547V377.633H572.407V378.244H566.69V376.439H571.404V375.856H566.672V375.245H572.27V377.014ZM582.9 379.238H582.034V377.141H580.311V376.439H582.034V375.035H582.9V379.238ZM582.9 381.654H578.424V382.411H583.182V383.103H577.576V380.998H582.043V380.305H577.558V379.621H582.9V381.654ZM578.961 376.011C578.961 376.357 579.04 376.69 579.198 377.009C579.359 377.325 579.589 377.606 579.887 377.852C580.184 378.095 580.536 378.281 580.94 378.408L580.484 379.083C580.04 378.928 579.651 378.703 579.317 378.408C578.986 378.114 578.729 377.77 578.547 377.378C578.368 377.822 578.104 378.208 577.758 378.536C577.412 378.865 577.002 379.11 576.527 379.275L576.062 378.582C576.482 378.448 576.843 378.252 577.147 377.993C577.454 377.735 577.689 377.436 577.854 377.095C578.018 376.755 578.101 376.393 578.104 376.011V375.299H578.961V376.011ZM590.968 379.894H590.102V377.825H588.58V377.114H590.102V375.035H590.968V379.894ZM588.234 380.122C588.802 380.122 589.293 380.183 589.706 380.305C590.122 380.426 590.441 380.603 590.663 380.833C590.885 381.064 590.996 381.341 590.996 381.663C590.996 381.985 590.885 382.26 590.663 382.488C590.441 382.719 590.123 382.895 589.71 383.017C589.297 383.138 588.805 383.201 588.234 383.204C587.662 383.201 587.168 383.138 586.752 383.017C586.338 382.895 586.021 382.719 585.799 382.488C585.578 382.26 585.468 381.985 585.471 381.663C585.468 381.341 585.578 381.064 585.799 380.833C586.021 380.603 586.338 380.426 586.752 380.305C587.168 380.183 587.662 380.122 588.234 380.122ZM588.234 380.797C587.631 380.797 587.163 380.873 586.829 381.025C586.495 381.174 586.328 381.386 586.328 381.663C586.328 381.846 586.404 382.002 586.556 382.133C586.708 382.26 586.927 382.357 587.212 382.424C587.498 382.491 587.838 382.523 588.234 382.52C588.629 382.523 588.969 382.491 589.255 382.424C589.54 382.357 589.759 382.26 589.911 382.133C590.063 382.002 590.139 381.846 590.139 381.663C590.139 381.386 589.972 381.174 589.637 381.025C589.303 380.873 588.835 380.797 588.234 380.797ZM587.085 376.476C587.085 376.822 587.163 377.158 587.322 377.483C587.48 377.808 587.708 378.098 588.005 378.353C588.303 378.606 588.652 378.8 589.054 378.937L588.607 379.621C588.157 379.463 587.766 379.23 587.431 378.923C587.1 378.614 586.843 378.254 586.66 377.843C586.481 378.308 586.215 378.715 585.863 379.065C585.51 379.411 585.094 379.673 584.614 379.849L584.158 379.156C584.572 379.013 584.932 378.805 585.239 378.531C585.548 378.255 585.785 377.939 585.95 377.583C586.117 377.228 586.2 376.861 586.2 376.485V376.302H584.432V375.601H588.835V376.302H587.085V376.476ZM596.265 377.087H592.208V376.385H593.813V375.272H594.67V376.385H596.265V377.087ZM594.241 377.579C594.585 377.579 594.89 377.659 595.158 377.82C595.425 377.978 595.635 378.2 595.787 378.486C595.938 378.768 596.016 379.092 596.019 379.457C596.016 379.824 595.938 380.153 595.787 380.442C595.635 380.727 595.425 380.95 595.158 381.111C594.89 381.273 594.585 381.353 594.241 381.353C593.904 381.353 593.6 381.273 593.33 381.111C593.059 380.95 592.848 380.726 592.696 380.437C592.544 380.148 592.47 379.821 592.472 379.457C592.47 379.095 592.544 378.772 592.696 378.486C592.848 378.2 593.059 377.978 593.33 377.82C593.6 377.659 593.904 377.579 594.241 377.579ZM594.241 378.299C594.047 378.299 593.873 378.349 593.722 378.45C593.569 378.547 593.451 378.684 593.366 378.86C593.281 379.036 593.239 379.235 593.239 379.457C593.239 379.685 593.281 379.887 593.366 380.063C593.451 380.236 593.569 380.372 593.722 380.469C593.873 380.566 594.047 380.615 594.241 380.615C594.436 380.615 594.609 380.566 594.761 380.469C594.916 380.372 595.036 380.236 595.121 380.063C595.209 379.887 595.253 379.685 595.253 379.457C595.253 379.235 595.209 379.036 595.121 378.86C595.036 378.684 594.916 378.547 594.761 378.45C594.606 378.349 594.433 378.299 594.241 378.299ZM599.219 383.204H598.399V379.147H597.459V382.821H596.639V375.218H597.459V378.436H598.399V375.035H599.219V383.204ZM607.743 380.341H604.425V383.194H603.577V380.341H600.295V379.639H607.743V380.341ZM607.041 376.211H604.516C604.519 376.542 604.647 376.859 604.899 377.16C605.154 377.457 605.496 377.711 605.925 377.92C606.353 378.127 606.822 378.265 607.333 378.335L607.014 379.019C606.568 378.949 606.146 378.832 605.751 378.668C605.356 378.501 605.01 378.294 604.712 378.048C604.414 377.799 604.183 377.521 604.019 377.214C603.773 377.676 603.382 378.066 602.847 378.385C602.316 378.702 601.714 378.913 601.043 379.019L600.714 378.335C601.219 378.265 601.684 378.127 602.109 377.92C602.537 377.711 602.879 377.457 603.135 377.16C603.39 376.859 603.522 376.542 603.531 376.211H600.988V375.518H607.041V376.211ZM610.852 377.269C610.852 377.713 610.914 378.152 611.039 378.586C611.164 379.018 611.349 379.413 611.595 379.771C611.842 380.13 612.141 380.417 612.493 380.633L612.01 381.298C611.639 381.076 611.322 380.774 611.057 380.391C610.793 380.005 610.589 379.568 610.446 379.079C610.291 379.61 610.072 380.086 609.79 380.505C609.511 380.922 609.177 381.247 608.792 381.481L608.254 380.833C608.628 380.609 608.947 380.311 609.211 379.94C609.476 379.566 609.675 379.153 609.808 378.7C609.945 378.244 610.014 377.779 610.014 377.305V375.783H610.852V377.269ZM615.392 383.204H614.563V375.035H615.392V383.204ZM613.696 382.803H612.876V378.627H611.609V377.907H612.876V375.19H613.696V382.803ZM623.907 382.183H616.432V381.463H618.218V379.329C617.878 379.141 617.614 378.902 617.425 378.614C617.237 378.325 617.142 378.001 617.142 377.643C617.142 377.22 617.27 376.848 617.526 376.526C617.784 376.204 618.141 375.955 618.597 375.778C619.053 375.599 619.571 375.51 620.151 375.51C620.735 375.51 621.254 375.599 621.71 375.778C622.169 375.955 622.526 376.204 622.782 376.526C623.04 376.848 623.169 377.22 623.169 377.643C623.169 377.998 623.078 378.319 622.896 378.604C622.713 378.887 622.455 379.122 622.121 379.311V381.463H623.907V382.183ZM620.151 376.202C619.726 376.202 619.349 376.262 619.021 376.38C618.693 376.496 618.437 376.662 618.255 376.881C618.073 377.097 617.981 377.351 617.981 377.643C617.981 377.932 618.073 378.185 618.255 378.404C618.437 378.622 618.693 378.793 619.021 378.914C619.349 379.033 619.726 379.092 620.151 379.092C620.574 379.092 620.949 379.033 621.277 378.914C621.608 378.793 621.867 378.622 622.052 378.404C622.237 378.185 622.33 377.932 622.33 377.643C622.33 377.354 622.237 377.1 622.052 376.881C621.87 376.662 621.613 376.496 621.282 376.38C620.954 376.262 620.577 376.202 620.151 376.202ZM621.245 381.463V379.643C620.914 379.726 620.549 379.767 620.151 379.767C619.768 379.767 619.41 379.727 619.076 379.648V381.463H621.245ZM625.43 382.493C625.315 382.493 625.205 382.464 625.102 382.406C625.001 382.348 624.923 382.269 624.865 382.169C624.807 382.069 624.78 381.961 624.782 381.845C624.78 381.73 624.807 381.622 624.865 381.522C624.923 381.421 625.001 381.343 625.102 381.285C625.205 381.227 625.315 381.198 625.43 381.198C625.542 381.198 625.649 381.227 625.749 381.285C625.849 381.343 625.928 381.421 625.986 381.522C626.047 381.622 626.077 381.73 626.077 381.845C626.077 381.961 626.047 382.069 625.986 382.169C625.928 382.269 625.849 382.348 625.749 382.406C625.649 382.464 625.542 382.493 625.43 382.493Z" fill="#8688A6"/>
<path d="M497.14 427.185H496.165V420.508H497.14V427.185ZM497.416 429.492H491.129V426.508H492.113V428.703H497.416V429.492ZM492.155 421.123C492.613 421.123 493.027 421.22 493.396 421.415C493.768 421.61 494.061 421.88 494.273 422.226C494.488 422.571 494.596 422.962 494.596 423.4C494.596 423.844 494.488 424.241 494.273 424.59C494.061 424.935 493.768 425.205 493.396 425.4C493.027 425.591 492.613 425.687 492.155 425.687C491.696 425.687 491.281 425.591 490.909 425.4C490.536 425.205 490.242 424.933 490.026 424.585C489.811 424.236 489.703 423.841 489.703 423.4C489.703 422.962 489.811 422.571 490.026 422.226C490.242 421.88 490.536 421.61 490.909 421.415C491.281 421.22 491.696 421.123 492.155 421.123ZM492.155 421.974C491.871 421.974 491.615 422.036 491.385 422.159C491.16 422.279 490.982 422.446 490.852 422.661C490.722 422.877 490.657 423.123 490.657 423.4C490.657 423.684 490.721 423.935 490.847 424.154C490.977 424.369 491.155 424.537 491.381 424.656C491.609 424.776 491.867 424.836 492.155 424.836C492.435 424.836 492.688 424.776 492.913 424.656C493.139 424.537 493.317 424.368 493.447 424.149C493.577 423.93 493.642 423.68 493.642 423.4C493.642 423.126 493.577 422.882 493.447 422.667C493.317 422.448 493.137 422.279 492.909 422.159C492.683 422.036 492.431 421.974 492.155 421.974ZM506.237 427.472H505.262V426.589H503.416V425.903H505.262V420.508H506.237V427.472ZM506.462 429.492H499.826V426.795H500.79V428.703H506.462V429.492ZM498.554 424.702C499.751 424.695 500.825 424.675 501.775 424.641C502.729 424.607 503.638 424.535 504.504 424.425L504.565 425.123C503.809 425.246 503.002 425.335 502.145 425.39V427.185H501.17V425.446C500.51 425.47 499.837 425.482 499.15 425.482H498.678L498.554 424.702ZM501.56 420.856C502.005 420.856 502.399 420.924 502.744 421.062C503.09 421.195 503.358 421.385 503.55 421.63C503.741 421.873 503.837 422.156 503.837 422.477C503.837 422.798 503.741 423.08 503.55 423.323C503.358 423.562 503.09 423.748 502.744 423.882C502.399 424.012 502.005 424.077 501.56 424.077C501.108 424.077 500.71 424.012 500.365 423.882C500.02 423.748 499.751 423.562 499.56 423.323C499.368 423.08 499.273 422.798 499.273 422.477C499.273 422.156 499.368 421.873 499.56 421.63C499.751 421.385 500.02 421.195 500.365 421.062C500.71 420.924 501.108 420.856 501.56 420.856ZM501.56 421.584C501.29 421.581 501.051 421.615 500.842 421.687C500.633 421.759 500.473 421.863 500.36 422C500.247 422.137 500.192 422.296 500.196 422.477C500.192 422.654 500.247 422.81 500.36 422.943C500.473 423.077 500.632 423.18 500.837 423.251C501.045 423.323 501.286 423.359 501.56 423.359C501.823 423.359 502.055 423.323 502.257 423.251C502.463 423.18 502.621 423.077 502.734 422.943C502.851 422.81 502.91 422.654 502.914 422.477C502.91 422.296 502.851 422.137 502.734 422C502.621 421.863 502.463 421.759 502.257 421.687C502.055 421.615 501.823 421.581 501.56 421.584Z" fill="#F5F5F5"/>
<path d="M833.431 438.734H495.014C491.792 438.734 489.18 441.347 489.18 444.569V473.743C489.18 476.965 491.792 479.578 495.014 479.578H833.431C836.653 479.578 839.266 476.965 839.266 473.743V444.569C839.266 441.347 836.653 438.734 833.431 438.734Z" fill="#343552"/>
<path d="M115.754 140.441V123.766H123.693C124.617 123.766 125.433 123.929 126.085 124.2C126.792 124.472 127.39 124.906 127.825 125.395C128.314 125.884 128.641 126.482 128.858 127.133C129.076 127.785 129.239 128.491 129.239 129.252C129.239 130.012 129.13 130.718 128.913 131.37C128.695 132.022 128.369 132.619 127.934 133.108C127.499 133.652 126.955 134.032 126.248 134.412C125.596 134.738 124.78 135.01 123.856 135.064L119.886 135.553V139.627L115.754 140.441ZM123.04 131.533C123.693 131.479 124.182 131.262 124.563 130.936C124.943 130.61 125.106 130.121 125.106 129.469C125.106 128.872 124.943 128.383 124.563 128.002C124.182 127.622 123.693 127.459 123.04 127.459H119.941V131.859L123.04 131.533Z" fill="#157FD1"/>
<path d="M115.754 141.745V125.449H119.941V138.214L126.357 137.454V141.745H115.754Z" fill="#157FD1"/>
<path d="M140.061 124.148H144.248V133.654C144.248 134.741 144.085 135.773 143.759 136.642C143.432 137.511 142.943 138.271 142.345 138.923C141.747 139.575 141.04 140.009 140.17 140.39C139.3 140.716 138.376 140.879 137.288 140.879C136.255 140.879 135.276 140.716 134.406 140.39C133.536 140.064 132.829 139.575 132.231 138.923C131.633 138.271 131.144 137.511 130.817 136.642C130.491 135.773 130.328 134.741 130.328 133.654V124.148H134.515V133.6C134.515 134.143 134.569 134.632 134.732 135.066C134.841 135.501 135.059 135.881 135.276 136.207C135.494 136.533 135.82 136.75 136.146 136.968C136.472 137.131 136.853 137.239 137.288 137.239C137.723 137.239 138.104 137.131 138.43 136.968C138.756 136.805 139.082 136.533 139.3 136.207C139.517 135.881 139.735 135.501 139.844 135.066C139.952 134.632 140.061 134.143 140.061 133.6V124.148Z" fill="#157FD1"/>
<path d="M150.282 140.824V127.788H145.66V124.148H159.091V127.842H154.469V139.955L150.282 140.824Z" fill="#157FD1"/>
<path d="M174.482 132.89C174.482 134.14 174.373 135.226 173.992 136.204C173.666 137.182 173.177 137.996 172.524 138.702C171.872 139.409 171.165 139.897 170.241 140.278C169.371 140.658 168.392 140.875 167.305 140.875C166.271 140.875 165.293 140.767 164.368 140.441C163.498 140.115 162.682 139.626 162.03 138.974C161.378 138.322 160.834 137.507 160.453 136.53C160.073 135.552 159.855 134.466 159.855 133.271L159.801 131.641C159.801 130.392 159.91 129.305 160.29 128.328C160.616 127.35 161.106 126.535 161.758 125.829C162.411 125.123 163.118 124.634 164.042 124.254C164.912 123.874 165.891 123.656 166.978 123.656C168.011 123.656 168.99 123.819 169.915 124.145C170.784 124.471 171.6 124.96 172.253 125.612C172.905 126.264 173.449 127.078 173.83 128.056C174.21 129.034 174.428 130.12 174.428 131.315L174.482 132.89ZM170.295 131.315C170.295 130.011 170.023 129.034 169.425 128.328C168.881 127.621 168.12 127.296 167.141 127.296C166.217 127.296 165.456 127.621 164.858 128.328C164.314 129.034 163.988 130.011 163.988 131.315V133.216C163.988 134.466 164.259 135.443 164.858 136.149C165.401 136.856 166.163 137.236 167.141 137.236C168.065 137.236 168.827 136.856 169.425 136.149C169.969 135.443 170.295 134.466 170.295 133.216V131.315Z" fill="#157FD1"/>
</g>
<defs>
<filter id="filter0_f_436_18549" x="0" y="0" width="819.652" height="543.086" filterUnits="userSpaceOnUse" color-interpolation-filters="sRGB">
<feFlood flood-opacity="0" result="BackgroundImageFix"/>
<feBlend mode="normal" in="SourceGraphic" in2="BackgroundImageFix" result="shape"/>
<feGaussianBlur stdDeviation="50" result="effect1_foregroundBlur_436_18549"/>
</filter>
<filter id="filter1_f_436_18549" x="115.34" y="224.375" width="15.2266" height="27.2852" filterUnits="userSpaceOnUse" color-interpolation-filters="sRGB">
<feFlood flood-opacity="0" result="BackgroundImageFix"/>
<feBlend mode="normal" in="SourceGraphic" in2="BackgroundImageFix" result="shape"/>
<feGaussianBlur stdDeviation="0.5" result="effect1_foregroundBlur_436_18549"/>
</filter>
<filter id="filter2_f_436_18549" x="112.754" y="234.047" width="8.33203" height="8.33203" filterUnits="userSpaceOnUse" color-interpolation-filters="sRGB">
<feFlood flood-opacity="0" result="BackgroundImageFix"/>
<feBlend mode="normal" in="SourceGraphic" in2="BackgroundImageFix" result="shape"/>
<feGaussianBlur stdDeviation="1.5" result="effect1_foregroundBlur_436_18549"/>
</filter>
<clipPath id="clip0_436_18549">
<rect width="1120.28" height="630.738" fill="white" transform="translate(104.086 100)"/>
</clipPath>
</defs>
</svg>
