<svg width="28" height="28" viewBox="0 0 28 28" fill="none" xmlns="http://www.w3.org/2000/svg">
<rect x="3" y="26" width="22" height="1.5" rx="0.75" fill="#4694FF"/>
<mask id="path-2-inside-1_687_3543" fill="white">
<path d="M3 18C3 16.3431 4.34315 15 6 15H22C23.6569 15 25 16.3431 25 18V23C25 23.5523 24.5523 24 24 24H4C3.44772 24 3 23.5523 3 23V18Z"/>
</mask>
<path d="M3 18C3 16.3431 4.34315 15 6 15H22C23.6569 15 25 16.3431 25 18V23C25 23.5523 24.5523 24 24 24H4C3.44772 24 3 23.5523 3 23V18Z" stroke="white" stroke-width="3" mask="url(#path-2-inside-1_687_3543)"/>
<path d="M10.8589 11.7424C11.1458 12.991 11.3076 13.8766 11.3927 14.5047C11.4669 15.052 11.9233 15.5 12.4756 15.5L15.4091 15.5C15.9614 15.5 16.4116 15.0523 16.4552 14.5017C16.5261 13.6065 16.6905 12.373 17.0258 11.2056C17.6425 9.05845 19.4926 6.91123 18.8759 4.22725C18.2592 1.54327 13.3255 -0.60394 10.2421 2.61684C7.43245 5.55156 10.1715 8.75098 10.8589 11.7424Z" stroke="white" stroke-width="1.5" stroke-linecap="round" stroke-linejoin="round"/>
</svg>
