<svg width="810" height="811" viewBox="0 0 810 811" fill="none" xmlns="http://www.w3.org/2000/svg">
<circle cx="405" cy="406" r="405" fill="#0A1634"/>
<mask id="mask0_436_18392" style="mask-type:alpha" maskUnits="userSpaceOnUse" x="0" y="1" width="810" height="810">
<circle cx="405" cy="406" r="405" fill="#0A1634"/>
</mask>
<g mask="url(#mask0_436_18392)">
<line x1="-60" y1="405" x2="917" y2="405" stroke="#E4E4E4" stroke-opacity="0.8" stroke-width="2" stroke-dasharray="3 3"/>
<line x1="406" y1="-95" x2="406" y2="837" stroke="#E4E4E4" stroke-opacity="0.8" stroke-width="2" stroke-dasharray="3 3"/>
<line x1="70.7071" y1="70.2929" x2="741.751" y2="741.337" stroke="#E4E4E4" stroke-opacity="0.8" stroke-width="2" stroke-dasharray="3 3"/>
<line x1="740.707" y1="71.7071" x2="69.6627" y2="742.751" stroke="#E4E4E4" stroke-opacity="0.8" stroke-width="2" stroke-dasharray="3 3"/>
</g>
<mask id="mask1_436_18392" style="mask-type:alpha" maskUnits="userSpaceOnUse" x="0" y="0" width="810" height="811">
<circle cx="405" cy="405.5" r="405" fill="white"/>
</mask>
<g mask="url(#mask1_436_18392)">
</g>
<path d="M686.711 552.566H684.855V550.887H680.422V549.441H684.855V547.547H680.637C680.103 548.888 679.191 550.011 677.902 550.916C676.62 551.814 674.999 552.495 673.039 552.957L672.395 551.434C674.471 550.978 676.079 550.281 677.219 549.344C678.365 548.406 679.012 547.286 679.162 545.984H673.312V544.461H681.203C681.203 545.021 681.154 545.561 681.057 546.082H684.855V543.66H686.711V552.566ZM686.711 557.742H677.141V559.5H687.238V560.984H675.305V556.336H684.855V554.773H675.266V553.309H686.711V557.742ZM704.083 561.16H702.306V552.176H700.216V560.301H698.458V543.992H700.216V550.613H702.306V543.66H704.083V561.16ZM694.279 548.289C694.279 549.357 694.415 550.366 694.689 551.316C694.962 552.267 695.376 553.113 695.929 553.855C696.489 554.591 697.182 555.171 698.009 555.594L696.915 557.02C696.076 556.564 695.363 555.945 694.777 555.164C694.191 554.383 693.738 553.475 693.419 552.439C693.113 553.611 692.664 554.64 692.072 555.525C691.486 556.411 690.757 557.111 689.884 557.625L688.732 556.219C689.975 555.516 690.91 554.467 691.535 553.074C692.166 551.681 692.482 550.086 692.482 548.289V547.156H689.201V545.652H697.326V547.156H694.279V548.289Z" fill="white"/>
<path d="M504.73 719.484H492.543V711.223H504.574V712.746H494.379V717.961H504.73V719.484ZM506.566 724.855H490.551V723.312H506.566V724.855ZM521.029 716.496H523.841V718.059H521.029V727.199H519.193V709.66H521.029V716.496ZM516.087 717.668H509.955V721.457C511.576 721.451 512.975 721.408 514.154 721.33C515.339 721.245 516.537 721.092 517.747 720.871L517.923 722.375C516.628 722.616 515.348 722.782 514.085 722.873C512.829 722.958 511.315 723.007 509.544 723.02H508.119V716.164H514.251V712.746H508.08V711.242H516.087V717.668ZM538.733 727.199H536.878V709.66H538.733V727.199ZM529.378 710.969C530.244 710.969 531.018 711.223 531.702 711.73C532.386 712.232 532.919 712.948 533.304 713.879C533.694 714.803 533.89 715.878 533.89 717.102C533.89 718.332 533.694 719.413 533.304 720.344C532.919 721.275 532.386 721.994 531.702 722.502C531.018 723.003 530.244 723.254 529.378 723.254C528.499 723.254 527.718 723.003 527.034 722.502C526.35 721.994 525.813 721.278 525.423 720.354C525.039 719.423 524.847 718.339 524.847 717.102C524.847 715.871 525.039 714.794 525.423 713.869C525.813 712.938 526.35 712.222 527.034 711.721C527.718 711.219 528.499 710.969 529.378 710.969ZM529.378 712.629C528.837 712.629 528.359 712.811 527.942 713.176C527.532 713.54 527.213 714.061 526.985 714.738C526.757 715.409 526.643 716.197 526.643 717.102C526.643 718.013 526.757 718.807 526.985 719.484C527.213 720.161 527.532 720.682 527.942 721.047C528.359 721.411 528.837 721.594 529.378 721.594C529.912 721.594 530.384 721.411 530.794 721.047C531.204 720.682 531.523 720.161 531.751 719.484C531.979 718.807 532.093 718.013 532.093 717.102C532.093 716.197 531.979 715.409 531.751 714.738C531.523 714.061 531.204 713.54 530.794 713.176C530.384 712.811 529.912 712.629 529.378 712.629ZM557.102 724.895H541.086V723.371H557.102V724.895ZM544.778 714.016H553.371V710.871H555.207V720.051H542.922V710.871H544.778V714.016ZM553.371 718.586V715.48H544.778V718.586H553.371Z" fill="white"/>
<path d="M276.586 706.535V708.02H262.348V706.535H268.579V704.582H270.415V706.535H276.586ZM277.544 715.852V717.355H273.501V722.18H271.626V717.355H267.407V722.18H265.551V717.355H261.528V715.852H277.544ZM269.497 708.918C273.129 708.918 275.317 709.953 275.317 711.848C275.317 713.723 273.129 714.777 269.497 714.777C265.844 714.777 263.657 713.723 263.676 711.848C263.657 709.953 265.844 708.918 269.497 708.918ZM269.497 710.324C266.977 710.344 265.59 710.852 265.59 711.848C265.59 712.824 266.977 713.352 269.497 713.352C271.997 713.352 273.383 712.824 273.403 711.848C273.383 710.852 271.997 710.344 269.497 710.324ZM284.818 709.816C284.818 712.746 286.732 715.773 289.428 716.926L288.412 718.371C286.352 717.463 284.711 715.539 283.9 713.195C283.09 715.695 281.439 717.824 279.408 718.82L278.334 717.355C280.971 716.125 282.924 712.824 282.943 709.816V707.961H278.939V706.418H288.803V707.961H284.818V709.816ZM292.865 704.66V722.16H291.01V704.66H292.865ZM311.175 713.859V715.324H295.179V713.859H302.249V712.336H297.269V705.129H309.222V706.594H299.144V708.02H308.773V709.406H299.144V710.891H309.339V712.336H304.105V713.859H311.175ZM303.187 716.477C307.035 716.457 309.222 717.473 309.222 719.309C309.222 721.164 307.035 722.141 303.187 722.121C299.3 722.141 297.113 721.164 297.113 719.309C297.113 717.473 299.3 716.457 303.187 716.477ZM303.187 717.863C300.433 717.863 298.949 718.371 298.968 719.309C298.949 720.246 300.433 720.734 303.187 720.715C305.902 720.734 307.367 720.246 307.367 719.309C307.367 718.371 305.902 717.863 303.187 717.863Z" fill="white"/>
<path d="M107.017 546.246C107.889 546.253 108.671 546.425 109.361 546.764C110.057 547.096 110.604 547.561 111.001 548.16C111.398 548.753 111.6 549.423 111.607 550.172C111.6 550.927 111.398 551.601 111.001 552.193C110.604 552.786 110.057 553.248 109.361 553.58C108.671 553.912 107.889 554.078 107.017 554.078C106.138 554.078 105.347 553.912 104.644 553.58C103.947 553.248 103.4 552.786 103.003 552.193C102.606 551.601 102.407 550.927 102.407 550.172C102.407 549.423 102.606 548.753 103.003 548.16C103.4 547.561 103.947 547.096 104.644 546.764C105.347 546.425 106.138 546.253 107.017 546.246ZM107.017 547.809C106.483 547.802 106.001 547.896 105.572 548.092C105.148 548.287 104.816 548.567 104.575 548.932C104.335 549.29 104.217 549.703 104.224 550.172C104.217 550.647 104.331 551.067 104.566 551.432C104.807 551.796 105.139 552.079 105.562 552.281C105.991 552.477 106.477 552.574 107.017 552.574C107.551 552.574 108.029 552.473 108.452 552.271C108.876 552.07 109.208 551.79 109.449 551.432C109.689 551.067 109.81 550.647 109.81 550.172C109.81 549.703 109.689 549.29 109.449 548.932C109.208 548.567 108.872 548.287 108.443 548.092C108.019 547.896 107.544 547.802 107.017 547.809ZM116.568 554.566H114.712V545.66H116.568V554.566ZM116.568 559.781H106.919V561.461H117.154V562.945H105.122V558.395H114.732V556.852H105.064V555.367H116.568V559.781ZM133.491 556.07H131.635V551.637H128.374V550.113H131.635V545.66H133.491V556.07ZM127.632 556.559C128.849 556.559 129.9 556.689 130.786 556.949C131.678 557.21 132.361 557.587 132.837 558.082C133.312 558.577 133.55 559.169 133.55 559.859C133.55 560.549 133.312 561.139 132.837 561.627C132.361 562.122 131.681 562.499 130.796 562.76C129.91 563.02 128.856 563.154 127.632 563.16C126.408 563.154 125.35 563.02 124.458 562.76C123.572 562.499 122.892 562.122 122.417 561.627C121.941 561.139 121.707 560.549 121.714 559.859C121.707 559.169 121.941 558.577 122.417 558.082C122.892 557.587 123.572 557.21 124.458 556.949C125.35 556.689 126.408 556.559 127.632 556.559ZM127.632 558.004C126.342 558.004 125.34 558.167 124.624 558.492C123.908 558.811 123.55 559.267 123.55 559.859C123.55 560.25 123.712 560.585 124.038 560.865C124.363 561.139 124.832 561.347 125.444 561.49C126.056 561.633 126.785 561.702 127.632 561.695C128.478 561.702 129.207 561.633 129.819 561.49C130.431 561.347 130.9 561.139 131.225 560.865C131.551 560.585 131.714 560.25 131.714 559.859C131.714 559.267 131.356 558.811 130.639 558.492C129.923 558.167 128.921 558.004 127.632 558.004ZM125.171 548.746C125.171 549.488 125.34 550.208 125.678 550.904C126.017 551.601 126.505 552.223 127.143 552.77C127.781 553.31 128.53 553.727 129.389 554.02L128.432 555.484C127.469 555.146 126.629 554.648 125.913 553.99C125.203 553.326 124.653 552.555 124.262 551.676C123.878 552.672 123.309 553.544 122.553 554.293C121.798 555.035 120.906 555.595 119.878 555.973L118.901 554.488C119.787 554.182 120.558 553.736 121.216 553.15C121.88 552.558 122.387 551.881 122.739 551.119C123.097 550.357 123.276 549.573 123.276 548.766V548.375H119.487V546.871H128.921V548.375H125.171V548.746Z" fill="white"/>
<path d="M115.57 496.691H118.142C119.089 496.691 119.856 497.463 119.856 498.416V508.76" stroke="#157FD1" stroke-width="1.5" stroke-linecap="round" stroke-linejoin="round"/>
<path d="M126.429 524.275H101.858C99.0174 524.275 96.7148 521.96 96.7148 519.103V486.344C96.7148 483.488 99.0174 481.172 101.858 481.172H136.143C138.984 481.172 141.286 483.488 141.286 486.344V510.22" stroke="white" stroke-width="1.5" stroke-linecap="round"/>
<path d="M129.184 478.548C129.184 478.228 128.926 477.969 128.608 477.969C128.289 477.969 128.031 478.228 128.031 478.548V483.126C128.031 483.446 128.289 483.706 128.608 483.706C128.926 483.706 129.184 483.446 129.184 483.126V478.548Z" stroke="white" stroke-width="0.672414"/>
<path d="M110.149 478.548C110.149 478.228 109.891 477.969 109.572 477.969C109.254 477.969 108.996 478.228 108.996 478.548V483.126C108.996 483.446 109.254 483.706 109.572 483.706C109.891 483.706 110.149 483.446 110.149 483.126V478.548Z" stroke="white" stroke-width="0.672414"/>
<path d="M536.214 118.29V92.1423C536.214 89.1836 533.815 86.7852 530.857 86.7852H495.142C492.184 86.7852 489.785 89.1836 489.785 92.1423V127.857C489.785 130.815 492.184 133.214 495.142 133.214H521.29" stroke="white" stroke-linecap="round"/>
<path d="M529.516 99.2852H496.48V121.681H529.516V99.2852Z" stroke="black"/>
<path d="M529.072 98.3945H496.929C496.189 98.3945 495.59 98.9941 495.59 99.7338C495.59 100.473 496.189 101.073 496.929 101.073H529.072C529.812 101.073 530.411 100.473 530.411 99.7338C530.411 98.9941 529.812 98.3945 529.072 98.3945Z" fill="#4694FF"/>
<path d="M529.072 108.215H496.929C496.189 108.215 495.59 108.814 495.59 109.554C495.59 110.294 496.189 110.893 496.929 110.893H529.072C529.812 110.893 530.411 110.294 530.411 109.554C530.411 108.814 529.812 108.215 529.072 108.215Z" fill="#4694FF"/>
<path d="M511.929 118.035H496.929C496.189 118.035 495.59 118.635 495.59 119.374C495.59 120.114 496.189 120.714 496.929 120.714H511.929C512.669 120.714 513.268 120.114 513.268 119.374C513.268 118.635 512.669 118.035 511.929 118.035Z" fill="#4694FF"/>
<g clip-path="url(#clip0_436_18392)">
<path d="M685.646 301.929H670.704C667.513 301.929 664.926 299.343 664.926 296.151V261.485C664.926 258.294 667.513 255.707 670.704 255.707H707.495C710.686 255.707 713.273 258.294 713.273 261.485V274.003" stroke="white" stroke-width="1.5" stroke-linecap="round"/>
<path d="M701.404 253.151C701.404 252.794 701.114 252.504 700.757 252.504C700.399 252.504 700.109 252.794 700.109 253.151V258.265C700.109 258.623 700.399 258.913 700.757 258.913C701.114 258.913 701.404 258.623 701.404 258.265V253.151Z" stroke="white" stroke-width="0.672414"/>
<path d="M678.092 253.151C678.092 252.794 677.802 252.504 677.444 252.504C677.087 252.504 676.797 252.794 676.797 253.151V258.265C676.797 258.623 677.087 258.913 677.444 258.913C677.802 258.913 678.092 258.623 678.092 258.265V253.151Z" stroke="white" stroke-width="0.672414"/>
<path d="M713.559 288.447C713.559 296.311 707.876 302.41 701.19 302.41C694.503 302.41 688.82 296.311 688.82 288.447C688.82 280.583 694.503 274.484 701.19 274.484C707.876 274.484 713.559 280.583 713.559 288.447Z" stroke="#4694FF" stroke-width="1.5"/>
<path d="M707.231 288.45H702.15C701.619 288.45 701.188 288.019 701.188 287.487V278.82" stroke="#4694FF" stroke-width="1.2" stroke-linecap="round"/>
</g>
<circle cx="405" cy="406" r="206" fill="#FFFBFB" stroke="#8D8D8D" stroke-width="2"/>
<path d="M290.887 125.707V133.471" stroke="white" stroke-width="1.5" stroke-linecap="round"/>
<path d="M278.609 135.414H303.609" stroke="white" stroke-width="1.5" stroke-linecap="round"/>
<path d="M314.1 107.268V120.35C314.1 123.309 311.702 125.707 308.743 125.707H273.029C270.07 125.707 267.672 123.309 267.672 120.35V96.1267C267.672 93.168 270.07 90.7695 273.029 90.7695H308.297" stroke="white" stroke-width="1.5" stroke-linecap="round"/>
<path d="M278.386 114.063C278.386 115.717 277.051 117.052 275.41 117.052C273.769 117.052 272.434 115.717 272.434 114.063C272.434 112.41 273.769 111.074 275.41 111.074C277.051 111.074 278.386 112.41 278.386 114.063Z" stroke="#157FD1"/>
<path d="M286.124 104.356C286.124 106.01 284.789 107.345 283.148 107.345C281.507 107.345 280.172 106.01 280.172 104.356C280.172 102.703 281.507 101.367 283.148 101.367C284.789 101.367 286.124 102.703 286.124 104.356Z" stroke="#157FD1"/>
<path d="M295.796 114.063C295.796 115.717 294.461 117.052 292.82 117.052C291.179 117.052 289.844 115.717 289.844 114.063C289.844 112.41 291.179 111.074 292.82 111.074C294.461 111.074 295.796 112.41 295.796 114.063Z" stroke="#157FD1"/>
<path d="M309.339 100.477C309.339 102.131 308.004 103.467 306.363 103.467C304.722 103.467 303.387 102.131 303.387 100.477C303.387 98.8238 304.722 97.4883 306.363 97.4883C308.004 97.4883 309.339 98.8238 309.339 100.477Z" stroke="#157FD1"/>
<path d="M277.344 112.12L281.213 106.297" stroke="#157FD1"/>
<path d="M286.051 106.297L290.887 112.12" stroke="#157FD1"/>
<path d="M295.723 112.123L304.428 102.418" stroke="#157FD1"/>
<path d="M275.66 171.473H259.645V169.91H275.66V171.473ZM274.195 159.363H271.52V165.203H274.137V166.688H261.051V165.203H263.668V159.363H261.012V157.84H274.195V159.363ZM269.703 165.203V159.363H265.504V165.203H269.703ZM292.505 171.57H276.49V170.008H283.54V166.941H278.443V161.375H288.716V158.914H278.404V157.391H290.552V162.859H280.279V165.418H290.962V166.941H285.376V170.008H292.505V171.57ZM304.819 166.707H303.061V162.117H300.62V160.613H303.061V156.531H304.819V166.707ZM298.628 159.91C298.628 160.555 298.755 161.186 299.009 161.805C299.269 162.423 299.653 162.986 300.161 163.494C300.669 163.995 301.284 164.396 302.007 164.695L301.069 166.121C300.294 165.802 299.63 165.359 299.077 164.793C298.524 164.22 298.087 163.562 297.768 162.82C297.443 163.654 296.987 164.389 296.401 165.027C295.822 165.665 295.119 166.16 294.292 166.512L293.296 165.047C294.044 164.747 294.686 164.324 295.22 163.777C295.753 163.23 296.154 162.622 296.421 161.951C296.694 161.281 296.831 160.6 296.831 159.91V159.051H293.725V157.547H301.557V159.051H298.628V159.91ZM308.257 166.844H306.499V156.16H308.257V166.844ZM308.257 173.66H306.421V169.07H296.362V167.566H308.257V173.66ZM324.379 166.961H312.192V157.605H324.203V159.109H314.067V161.473H323.832V162.938H314.067V165.477H324.379V166.961ZM326.196 171.453H310.18V169.93H326.196V171.453Z" fill="white"/>
<path d="M484.488 156.961C485.243 156.954 485.937 157.088 486.568 157.361C487.206 157.635 487.73 158.022 488.141 158.523C488.557 159.018 488.831 159.591 488.961 160.242H492.379V156.16H494.234V165.555H492.379V161.766H488.971C488.847 162.43 488.577 163.016 488.16 163.523C487.75 164.031 487.226 164.425 486.588 164.705C485.956 164.985 485.257 165.125 484.488 165.125C483.603 165.125 482.812 164.952 482.115 164.607C481.419 164.256 480.875 163.771 480.484 163.152C480.094 162.527 479.898 161.818 479.898 161.023C479.898 160.236 480.094 159.533 480.484 158.914C480.882 158.296 481.428 157.814 482.125 157.469C482.822 157.124 483.609 156.954 484.488 156.961ZM484.488 158.504C483.941 158.504 483.453 158.611 483.023 158.826C482.6 159.035 482.268 159.331 482.027 159.715C481.793 160.092 481.676 160.529 481.676 161.023C481.676 161.518 481.793 161.958 482.027 162.342C482.268 162.726 482.6 163.025 483.023 163.24C483.453 163.455 483.941 163.562 484.488 163.562C485.022 163.562 485.497 163.455 485.914 163.24C486.337 163.025 486.666 162.726 486.9 162.342C487.141 161.958 487.262 161.518 487.262 161.023C487.262 160.529 487.145 160.092 486.91 159.715C486.676 159.331 486.347 159.035 485.924 158.826C485.501 158.611 485.022 158.504 484.488 158.504ZM484.664 168.426H492.379V166.395H494.234V173.445H482.828V166.395H484.664V168.426ZM492.379 171.922V169.891H484.664V171.922H492.379ZM512.486 167.703H505.337V173.641H503.521V167.703H496.47V166.199H512.486V167.703ZM510.474 163.973H498.482V157.098H510.474V163.973ZM500.298 162.527H508.619V158.582H500.298V162.527ZM518.296 156.746C519.168 156.753 519.949 156.925 520.64 157.264C521.336 157.596 521.883 158.061 522.28 158.66C522.677 159.253 522.879 159.923 522.886 160.672C522.879 161.427 522.677 162.101 522.28 162.693C521.883 163.286 521.336 163.748 520.64 164.08C519.949 164.412 519.168 164.578 518.296 164.578C517.417 164.578 516.626 164.412 515.923 164.08C515.226 163.748 514.679 163.286 514.282 162.693C513.885 162.101 513.686 161.427 513.686 160.672C513.686 159.923 513.885 159.253 514.282 158.66C514.679 158.061 515.226 157.596 515.923 157.264C516.626 156.925 517.417 156.753 518.296 156.746ZM518.296 158.309C517.762 158.302 517.28 158.396 516.85 158.592C516.427 158.787 516.095 159.067 515.854 159.432C515.613 159.79 515.496 160.203 515.503 160.672C515.496 161.147 515.61 161.567 515.845 161.932C516.085 162.296 516.418 162.579 516.841 162.781C517.27 162.977 517.755 163.074 518.296 163.074C518.83 163.074 519.308 162.973 519.731 162.771C520.155 162.57 520.487 162.29 520.727 161.932C520.968 161.567 521.089 161.147 521.089 160.672C521.089 160.203 520.968 159.79 520.727 159.432C520.487 159.067 520.151 158.787 519.722 158.592C519.298 158.396 518.823 158.302 518.296 158.309ZM527.847 165.066H525.991V156.16H527.847V165.066ZM527.847 170.281H518.198V171.961H528.432V173.445H516.401V168.895H526.011V167.352H516.343V165.867H527.847V170.281ZM536.625 161.316C536.625 162.286 536.821 163.247 537.211 164.197C537.608 165.148 538.155 165.997 538.852 166.746C539.555 167.488 540.349 168.048 541.235 168.426L540.219 169.871C539.197 169.422 538.292 168.745 537.504 167.84C536.716 166.928 536.118 165.883 535.707 164.705C535.297 165.962 534.695 167.088 533.901 168.084C533.113 169.08 532.218 169.826 531.215 170.32L530.141 168.855C531 168.452 531.782 167.85 532.485 167.049C533.188 166.242 533.738 165.333 534.135 164.324C534.539 163.309 534.744 162.306 534.75 161.316V159.461H530.746V157.918H540.61V159.461H536.625V161.316ZM544.672 173.66H542.817V156.16H544.672V173.66Z" fill="white"/>
<path d="M662.738 323.316C662.738 324.234 662.927 325.165 663.305 326.109C663.682 327.053 664.21 327.906 664.887 328.668C665.57 329.43 666.345 330.016 667.211 330.426L666.156 331.871C665.193 331.402 664.333 330.709 663.578 329.791C662.829 328.873 662.253 327.831 661.85 326.666C661.446 327.929 660.85 329.065 660.062 330.074C659.281 331.077 658.396 331.826 657.406 332.32L656.312 330.855C657.178 330.439 657.96 329.827 658.656 329.02C659.359 328.212 659.91 327.307 660.307 326.305C660.704 325.296 660.902 324.299 660.902 323.316V321.461H656.957V319.918H666.547V321.461H662.738V323.316ZM670.277 325.094H673.09V326.656H670.277V335.66H668.422V318.16H670.277V325.094ZM688.04 331.441H686.185V329.762H682.669V328.453H686.185V318.18H688.04V331.441ZM688.47 335.289H675.833V330.152H677.669V333.785H688.47V335.289ZM673.412 326.168C675.69 326.155 677.734 326.116 679.544 326.051C681.361 325.986 683.093 325.849 684.74 325.641L684.857 326.969C683.418 327.203 681.882 327.372 680.247 327.477V330.895H678.392V327.584C677.136 327.63 675.853 327.652 674.544 327.652H673.646L673.412 326.168ZM679.134 318.844C679.981 318.844 680.733 318.974 681.39 319.234C682.048 319.488 682.559 319.85 682.923 320.318C683.288 320.781 683.47 321.318 683.47 321.93C683.47 322.542 683.288 323.079 682.923 323.541C682.559 323.997 682.048 324.352 681.39 324.605C680.733 324.853 679.981 324.977 679.134 324.977C678.275 324.977 677.516 324.853 676.859 324.605C676.201 324.352 675.69 323.997 675.326 323.541C674.961 323.079 674.779 322.542 674.779 321.93C674.779 321.318 674.961 320.781 675.326 320.318C675.69 319.85 676.201 319.488 676.859 319.234C677.516 318.974 678.275 318.844 679.134 318.844ZM679.134 320.23C678.62 320.224 678.164 320.289 677.767 320.426C677.37 320.562 677.064 320.761 676.849 321.021C676.634 321.282 676.53 321.585 676.537 321.93C676.53 322.268 676.634 322.564 676.849 322.818C677.064 323.072 677.367 323.268 677.757 323.404C678.154 323.541 678.613 323.609 679.134 323.609C679.636 323.609 680.078 323.541 680.462 323.404C680.853 323.268 681.156 323.072 681.371 322.818C681.592 322.564 681.706 322.268 681.712 321.93C681.706 321.585 681.592 321.282 681.371 321.021C681.156 320.761 680.853 320.562 680.462 320.426C680.078 320.289 679.636 320.224 679.134 320.23ZM705.393 335.66H703.616V318.16H705.393V335.66ZM701.878 334.801H700.12V329.156H697.581C697.268 330.035 696.829 330.712 696.263 331.188C695.696 331.663 695.042 331.897 694.3 331.891C693.544 331.897 692.88 331.65 692.307 331.148C691.741 330.647 691.302 329.931 690.989 329C690.683 328.062 690.53 326.969 690.53 325.719C690.53 324.469 690.683 323.378 690.989 322.447C691.302 321.516 691.741 320.803 692.307 320.309C692.88 319.807 693.544 319.56 694.3 319.566C695.042 319.56 695.693 319.794 696.253 320.27C696.819 320.738 697.262 321.409 697.581 322.281H700.12V318.492H701.878V334.801ZM694.3 321.305C693.87 321.305 693.499 321.48 693.186 321.832C692.88 322.177 692.643 322.682 692.474 323.346C692.311 324.003 692.229 324.794 692.229 325.719C692.229 326.643 692.311 327.438 692.474 328.102C692.643 328.759 692.88 329.264 693.186 329.615C693.499 329.96 693.87 330.133 694.3 330.133C694.729 330.133 695.1 329.96 695.413 329.615C695.732 329.264 695.976 328.756 696.145 328.092C696.321 327.428 696.409 326.637 696.409 325.719C696.409 324.801 696.321 324.01 696.145 323.346C695.976 322.682 695.732 322.177 695.413 321.832C695.1 321.48 694.729 321.305 694.3 321.305ZM697.962 323.785C698.059 324.378 698.108 325.022 698.108 325.719C698.108 326.409 698.059 327.047 697.962 327.633H700.12V323.785H697.962ZM723.41 322.242H720.93V324.469H723.41V326.031H720.93V328.531H719.075V318.16H720.93V320.719H723.41V322.242ZM720.93 335.66H719.075V330.816H709.368V329.312H720.93V335.66ZM712.102 319.176C712.987 319.176 713.782 319.355 714.485 319.713C715.194 320.064 715.751 320.559 716.155 321.197C716.558 321.829 716.763 322.548 716.77 323.355C716.763 324.163 716.558 324.885 716.155 325.523C715.751 326.155 715.194 326.65 714.485 327.008C713.782 327.359 712.987 327.535 712.102 327.535C711.216 327.535 710.419 327.359 709.709 327.008C709 326.65 708.443 326.155 708.039 325.523C707.642 324.885 707.447 324.163 707.453 323.355C707.447 322.548 707.642 321.829 708.039 321.197C708.443 320.559 709 320.064 709.709 319.713C710.419 319.355 711.216 319.176 712.102 319.176ZM712.102 320.758C711.555 320.758 711.067 320.868 710.637 321.09C710.207 321.305 709.869 321.607 709.621 321.998C709.381 322.389 709.263 322.841 709.27 323.355C709.263 323.876 709.381 324.335 709.621 324.732C709.869 325.123 710.207 325.426 710.637 325.641C711.067 325.855 711.555 325.96 712.102 325.953C712.649 325.96 713.137 325.855 713.567 325.641C714.003 325.426 714.341 325.123 714.582 324.732C714.83 324.335 714.953 323.876 714.953 323.355C714.953 322.841 714.83 322.389 714.582 321.998C714.341 321.601 714.003 321.295 713.567 321.08C713.137 320.865 712.649 320.758 712.102 320.758Z" fill="white"/>
<path d="M94.7537 317.16V334.66H92.9764V325.617H90.7108V333.762H89.0116V317.512H90.7108V324.094H92.9764V317.16H94.7537ZM86.8827 319.27V320.773H82.1756V328.879C84.3241 328.859 85.9452 328.762 87.8202 328.41L87.9569 329.934C85.8475 330.363 84.0506 330.441 81.492 330.461H80.3202V319.27H86.8827ZM103.298 318.918C103.279 320.891 104.88 322.57 107.615 323.195L106.755 324.66C104.675 324.123 103.142 323.01 102.361 321.477C101.57 323.176 99.9973 324.465 97.8684 325.051L96.9505 323.605C99.7239 322.883 101.384 321.027 101.384 318.918V317.902H103.298V318.918ZM111.13 317.18V334.66H109.294V317.18H111.13ZM96.5598 326.457C99.8216 326.477 104.255 326.418 108.083 325.891L108.22 327.219C106.618 327.521 104.968 327.707 103.357 327.805V334.113H101.501V327.922C99.8118 327.99 98.2102 328 96.8137 328L96.5598 326.457ZM129.44 330.949V332.492H113.425V330.949H120.475V327.355H115.26V318.352H117.116V321.359H125.71V318.352H127.546V327.355H122.311V330.949H129.44ZM117.116 325.852H125.71V322.863H117.116V325.852ZM144.449 325.461V326.984H132.262V318.723H144.293V320.246H134.098V325.461H144.449ZM146.285 330.812V332.355H130.27V330.812H146.285Z" fill="white"/>
<g clip-path="url(#clip1_436_18392)">
<path d="M271.383 660.845L271.383 689.285C271.383 690.942 272.726 692.285 274.383 692.285L297.652 692.285C299.309 692.285 300.652 690.942 300.652 689.285L300.652 660.845C300.652 659.188 299.309 657.845 297.652 657.845L274.383 657.845C272.726 657.845 271.383 659.188 271.383 660.845Z" stroke="white" stroke-width="1.5" stroke-linejoin="round"/>
<path d="M286.469 671.586V682.349" stroke="#157FD1" stroke-width="1.5" stroke-linecap="round" stroke-linejoin="round"/>
<path d="M303.91 661.487H268.111C267.582 661.487 267.14 661.073 267.145 660.544C267.198 654.937 270.976 653.2 272.96 653.043H298.048C303.625 653.043 304.9 657.635 304.858 660.598C304.851 661.106 304.419 661.487 303.91 661.487Z" fill="#0F1024" stroke="white" stroke-width="1.5" stroke-linecap="round" stroke-linejoin="round"/>
<path d="M279.234 648.082V651.546C279.234 652.098 279.682 652.546 280.234 652.546H291.743C292.296 652.546 292.743 652.098 292.743 651.546V648.082C292.743 647.53 292.296 647.082 291.743 647.082H280.234C279.682 647.082 279.234 647.53 279.234 648.082Z" stroke="white" stroke-width="1.5" stroke-linecap="round" stroke-linejoin="round"/>
<path d="M278.266 671.586V682.349" stroke="#157FD1" stroke-width="1.5" stroke-linecap="round" stroke-linejoin="round"/>
<path d="M294.672 671.586V682.349" stroke="#157FD1" stroke-width="1.5" stroke-linecap="round" stroke-linejoin="round"/>
</g>
<path d="M508.838 683.338C504.839 683.653 495.919 684.281 494.073 676.733C492.699 671.115 496.522 667.978 499.543 666.713C500.143 666.462 500.608 665.959 500.786 665.334C502.098 660.722 506.395 653.145 515.298 653.145C523.525 653.145 527.367 657.305 528.684 660.276C529.024 661.044 529.74 661.626 530.574 661.729C534.462 662.209 540.214 664.686 540.214 672.015C540.214 682.395 529.14 683.338 526.372 683.338" stroke="white" stroke-width="1.5" stroke-linecap="round" stroke-linejoin="round"/>
<path d="M517.895 686.178V672.785" stroke="#157FD1" stroke-width="1.5" stroke-linecap="round" stroke-linejoin="round"/>
<path d="M512.535 675.465L516.749 671.953C517.411 671.401 518.373 671.401 519.036 671.953L523.249 675.465" stroke="#157FD1" stroke-width="1.5" stroke-linecap="round" stroke-linejoin="round"/>
<path d="M305 432V375H332.081C335.234 375 338.016 375.557 340.242 376.485C342.653 377.414 344.694 378.899 346.177 380.57C347.847 382.241 348.96 384.283 349.702 386.511C350.444 388.739 351 391.153 351 393.752C351 396.352 350.629 398.765 349.887 400.993C349.145 403.222 348.032 405.264 346.548 406.935C345.065 408.792 343.21 410.091 340.798 411.391C338.573 412.505 335.79 413.433 332.637 413.619L319.097 415.29V429.215L305 432ZM329.855 401.55C332.081 401.365 333.75 400.622 335.048 399.508C336.347 398.394 336.903 396.723 336.903 394.495C336.903 392.453 336.347 390.782 335.048 389.482C333.75 388.182 332.081 387.625 329.855 387.625H319.282V402.664L329.855 401.55Z" fill="#277CC0"/>
<path d="M305 437V381H319.215V424.867L341 422.253V437H305Z" fill="#277CC0"/>
<path d="M387.863 377H402V409.386C402 413.088 401.449 416.604 400.348 419.565C399.246 422.526 397.594 425.117 395.574 427.338C393.555 429.558 391.168 431.039 388.23 432.334C385.293 433.445 382.172 434 378.5 434C375.012 434 371.707 433.445 368.77 432.334C365.832 431.224 363.445 429.558 361.426 427.338C359.406 425.117 357.754 422.526 356.652 419.565C355.551 416.604 355 413.088 355 409.386V377H369.137V409.201C369.137 411.052 369.32 412.718 369.871 414.198C370.238 415.679 370.973 416.974 371.707 418.084C372.441 419.195 373.543 419.935 374.645 420.675C375.746 421.231 377.031 421.601 378.5 421.601C379.969 421.601 381.254 421.231 382.355 420.675C383.457 420.12 384.559 419.195 385.293 418.084C386.027 416.974 386.762 415.679 387.129 414.198C387.496 412.718 387.863 411.052 387.863 409.201V377Z" fill="#277CC0"/>
<path d="M422.83 434V389.44H407V377H453V389.625H437.17V431.029L422.83 434Z" fill="#277CC0"/>
<path d="M505 406.64C505 410.921 504.63 414.644 503.333 417.994C502.222 421.344 500.556 424.136 498.333 426.555C496.111 428.975 493.704 430.65 490.556 431.953C487.593 433.256 484.259 434 480.556 434C477.037 434 473.704 433.628 470.556 432.511C467.593 431.394 464.815 429.719 462.593 427.486C460.37 425.252 458.519 422.461 457.222 419.11C455.926 415.76 455.185 412.038 455.185 407.943L455 402.36C455 398.079 455.37 394.356 456.667 391.006C457.778 387.656 459.444 384.864 461.667 382.445C463.889 380.025 466.296 378.35 469.444 377.047C472.407 375.744 475.741 375 479.444 375C482.963 375 486.296 375.558 489.444 376.675C492.407 377.792 495.185 379.467 497.407 381.7C499.63 383.934 501.481 386.726 502.778 390.076C504.074 393.426 504.815 397.148 504.815 401.243L505 406.64ZM490.741 401.243C490.741 396.776 489.815 393.426 487.778 391.006C485.926 388.587 483.333 387.47 480 387.47C476.852 387.47 474.259 388.587 472.222 391.006C470.37 393.426 469.259 396.776 469.259 401.243V407.757C469.259 412.038 470.185 415.388 472.222 417.808C474.074 420.227 476.667 421.53 480 421.53C483.148 421.53 485.741 420.227 487.778 417.808C489.63 415.388 490.741 412.038 490.741 407.757V401.243Z" fill="#277CC0"/>
<path d="M708.302 518.43H671.695C670.955 518.43 670.355 519.029 670.355 519.769C670.355 520.509 670.955 521.108 671.695 521.108H708.302C709.042 521.108 709.641 520.509 709.641 519.769C709.641 519.029 709.042 518.43 708.302 518.43Z" fill="#4694FF"/>
<mask id="mask2_436_18392" style="mask-type:luminance" maskUnits="userSpaceOnUse" x="670" y="498" width="40" height="17">
<path d="M670.355 504.142C670.355 501.184 672.754 498.785 675.713 498.785H704.284C707.243 498.785 709.641 501.184 709.641 504.142V513.071C709.641 514.057 708.842 514.857 707.855 514.857H672.141C671.155 514.857 670.355 514.057 670.355 513.071V504.142Z" fill="white"/>
</mask>
<g mask="url(#mask2_436_18392)">
<path d="M670.355 504.142C670.355 501.184 672.754 498.785 675.713 498.785H704.284C707.243 498.785 709.641 501.184 709.641 504.142V513.071C709.641 514.057 708.842 514.857 707.855 514.857H672.141C671.155 514.857 670.355 514.057 670.355 513.071V504.142Z" stroke="white" stroke-width="3"/>
</g>
<path d="M684.39 492.968C684.902 495.198 685.191 496.779 685.343 497.901C685.475 498.878 686.29 499.678 687.277 499.678H692.515C693.501 499.678 694.305 498.879 694.383 497.895C694.51 496.297 694.803 494.094 695.402 492.009C696.503 488.175 699.807 484.341 698.706 479.548C697.605 474.755 688.794 470.921 683.288 476.672C678.271 481.913 683.162 487.626 684.39 492.968Z" stroke="white" stroke-width="1.5" stroke-linecap="round" stroke-linejoin="round"/>
<path d="M107.852 297.872V278.54C107.852 277.562 108.644 276.77 109.622 276.77H122.904C123.882 276.77 124.674 277.562 124.674 278.54V297.872M137.07 297.06V271.828C137.07 271.312 136.845 270.821 136.452 270.484L116.973 253.778C116.31 253.209 115.331 253.209 114.668 253.778L95.1883 270.484C94.7961 270.821 94.5703 271.312 94.5703 271.828V297.06C94.5703 298.038 95.3632 298.831 96.3411 298.831H135.299C136.278 298.831 137.07 298.038 137.07 297.06Z" stroke="white" stroke-width="1.5" stroke-linecap="round" stroke-linejoin="round"/>
<path d="M107.965 297.966V278.68C107.965 277.694 108.764 276.895 109.751 276.895H123.143C124.13 276.895 124.929 277.694 124.929 278.68V297.966" stroke="#157FD1" stroke-width="1.5"/>
<defs>
<clipPath id="clip0_436_18392">
<rect width="52" height="52" fill="white" transform="translate(663 251.855)"/>
</clipPath>
<clipPath id="clip1_436_18392">
<rect width="48" height="49" fill="white" transform="translate(264 645.82)"/>
</clipPath>
</defs>
</svg>
